<svg width="19" height="19" viewBox="0 0 19 19" fill="none" xmlns="http://www.w3.org/2000/svg">
<path d="M6.90946 0H1.72838C0.773115 0 0 0.773115 0 1.72838V6.90946C0 7.86068 0.773115 8.63784 1.72838 8.63784H6.90946C7.86068 8.63784 8.63784 7.86472 8.63784 6.90946V1.72838C8.63379 0.773115 7.86068 0 6.90946 0Z" fill="#C4C4C4"/>
<path d="M17.2708 0H12.0897C11.1344 0 10.3613 0.773115 10.3613 1.72838V6.90946C10.3613 7.86068 11.1344 8.63784 12.0897 8.63784H17.2708C18.222 8.63784 18.9992 7.86472 18.9992 6.90946V1.72838C18.9951 0.773115 18.222 0 17.2708 0Z" fill="#C4C4C4"/>
<path d="M6.90946 10.3622H1.72838C0.773115 10.3622 0 11.1353 0 12.0906V17.2716C0 18.2229 0.773115 19 1.72838 19H6.90946C7.86068 19 8.63784 18.2269 8.63784 17.2716V12.0906C8.63379 11.1353 7.86068 10.3622 6.90946 10.3622Z" fill="#C4C4C4"/>
<path d="M16.838 13.8149H15.5427V12.5196C15.5427 12.2808 15.3484 12.0865 15.1096 12.0865H14.2474C14.0086 12.0865 13.8143 12.2808 13.8143 12.5196V13.8149H12.519C12.2802 13.8149 12.0859 14.0092 12.0859 14.248V15.1101C12.0859 15.3489 12.2802 15.5432 12.519 15.5432H13.8143V16.8385C13.8143 17.0773 14.0086 17.2716 14.2474 17.2716H15.1096C15.3484 17.2716 15.5427 17.0773 15.5427 16.8385V15.5432H16.838C17.0768 15.5432 17.2711 15.3489 17.2711 15.1101V14.248C17.2711 14.0092 17.0768 13.8149 16.838 13.8149Z" fill="#C4C4C4"/>
</svg>
