<svg width="28" height="31" viewBox="0 0 28 31" fill="none" xmlns="http://www.w3.org/2000/svg">
<path d="M24.2196 3.02746H22.7059V0H19.6784V3.02746H7.56862V0H4.54116V3.02746H3.02746C1.35483 3.02746 0.0151845 4.38222 0.0151845 6.05493L0 27.247C0 28.9196 1.35476 30.2744 3.02746 30.2744H24.2196C25.8922 30.2744 27.247 28.9197 27.247 27.247V6.05485C27.247 4.38222 25.8922 3.02746 24.2196 3.02746ZM24.2196 27.247H3.02746V10.596H24.2196V27.247Z" fill="#949090"/>
<path d="M20.4804 15.2276L18.8759 13.623L11.4889 21.01L8.27988 17.8009L6.67529 19.4054L11.4889 24.2191L20.4804 15.2276Z" fill="#949090"/>
</svg>
