<svg width="117" height="125" viewBox="0 0 117 125" fill="none" xmlns="http://www.w3.org/2000/svg">
<path d="M106.601 12.3699H96.7887V8.08803C96.7887 3.80613 93.6665 0 89.2062 0C84.7459 0 81.6236 3.80613 81.6236 8.08803V12.3699H66.0126V8.08803C66.0126 3.80613 62.4443 0 57.984 0C53.5237 0 50.4015 3.80613 50.4015 8.08803V12.3699H34.7904V8.08803C34.7904 3.33036 31.2222 0 27.2079 0C23.1936 0 19.1793 3.80613 19.1793 8.08803V12.3699H9.81268C4.46031 12.3699 0 17.1276 0 22.8368V105.62C0 111.329 4.46031 116.087 9.81268 116.087H64.2284C65.1205 116.087 66.0126 115.135 66.0126 114.184C66.0126 113.232 65.1205 112.281 64.2284 112.281H9.81268C6.69046 112.281 4.01428 109.426 4.01428 106.096V41.3917H112.846V76.5984C112.846 77.5499 113.738 78.5014 114.63 78.5014C115.522 78.5014 116.414 77.5499 116.414 76.5984V22.8368C116.414 17.1276 111.954 12.3699 106.601 12.3699ZM85.1919 8.08803C85.1919 5.7092 86.976 3.80613 89.2062 3.80613C91.4363 3.80613 93.2205 5.7092 93.2205 8.08803V20.458C93.2205 22.8368 91.4363 24.7398 89.2062 24.7398C86.976 24.7398 85.1919 22.8368 85.1919 20.458V8.08803ZM54.4158 8.08803C54.4158 5.7092 56.1999 3.80613 58.43 3.80613C60.6602 3.80613 62.4443 5.7092 62.4443 8.08803V20.458C62.4443 22.8368 60.6602 24.7398 58.43 24.7398C56.1999 24.7398 54.4158 22.8368 54.4158 20.458V8.08803ZM23.1936 8.08803C23.1936 5.7092 24.9777 3.80613 27.2079 3.80613C29.438 3.80613 31.2222 6.18496 31.2222 8.08803V20.458C31.2222 22.8368 29.438 24.7398 27.2079 24.7398C24.9777 24.7398 23.1936 22.8368 23.1936 20.458V8.08803ZM112.4 37.1098H4.01428V22.8368C4.01428 19.5064 6.69046 16.6518 9.81268 16.6518H19.6254V20.9337C19.6254 25.6914 23.1936 29.0217 27.2079 29.0217C31.2222 29.0217 34.7904 25.2156 34.7904 20.9337V16.6518H50.4015V20.9337C50.4015 25.6914 53.9697 29.0217 57.984 29.0217C61.9983 29.0217 65.5665 25.2156 65.5665 20.9337V16.6518H81.1776V20.9337C81.1776 25.6914 84.7459 29.0217 88.7601 29.0217C93.2205 29.0217 96.3427 25.2156 96.3427 20.9337V16.6518H106.155C109.278 16.6518 111.954 19.5064 111.954 22.8368V37.1098H112.4Z" fill="#C4C4C4"/>
<path d="M54.4167 55.6637C54.4167 53.2849 52.6326 51.3818 50.4025 51.3818H42.8199C40.5898 51.3818 38.8057 53.2849 38.8057 55.6637V61.8487C38.8057 64.2275 40.5898 66.1306 42.8199 66.1306H50.4025C52.6326 66.1306 54.4167 64.2275 54.4167 61.8487V55.6637ZM42.8199 61.8487V55.6637H50.4025V61.8487H42.8199Z" fill="#C4C4C4"/>
<path d="M31.2168 55.6637C31.2168 53.2849 29.4327 51.3818 27.2025 51.3818H19.1739C16.9438 51.3818 15.1597 53.2849 15.1597 55.6637V61.8487C15.1597 64.2275 16.9438 66.1306 19.1739 66.1306H26.7565C29.4327 66.1306 31.2168 64.2275 31.2168 61.8487V55.6637ZM19.1739 61.8487V55.6637H26.7565V61.8487H19.1739Z" fill="#C4C4C4"/>
<path d="M96.7867 66.1306C99.0169 66.1306 100.801 64.2275 100.801 61.8487V55.6637C100.801 53.2849 99.0169 51.3818 96.7867 51.3818H89.2042C86.9741 51.3818 85.1899 53.2849 85.1899 55.6637V61.8487C85.1899 64.2275 86.9741 66.1306 89.2042 66.1306H96.7867ZM89.2042 55.6637H96.7867V61.8487H89.2042V55.6637Z" fill="#C4C4C4"/>
<path d="M54.4167 74.695C54.4167 72.3161 52.6326 70.4131 50.4025 70.4131H42.8199C40.5898 70.4131 38.8057 72.3161 38.8057 74.695V80.8799C38.8057 83.2588 40.5898 85.1618 42.8199 85.1618H50.4025C52.6326 85.1618 54.4167 83.2588 54.4167 80.8799V74.695ZM42.8199 80.8799V74.695H50.4025V80.8799H42.8199Z" fill="#C4C4C4"/>
<path d="M31.2168 74.695C31.2168 72.3161 29.4327 70.4131 27.2025 70.4131H19.1739C16.9438 70.4131 15.1597 72.3161 15.1597 74.695V80.8799C15.1597 83.2588 16.9438 85.1618 19.1739 85.1618H26.7565C29.4327 84.6861 31.2168 82.783 31.2168 80.8799V74.695ZM19.1739 80.8799V74.695H26.7565V80.8799H19.1739Z" fill="#C4C4C4"/>
<path d="M50.4025 88.9688H42.8199C40.5898 88.9688 38.8057 90.8718 38.8057 93.2506V99.4356C38.8057 101.814 40.5898 103.717 42.8199 103.717H50.4025C52.6326 103.717 54.4167 101.814 54.4167 99.4356V93.2506C54.4167 90.8718 52.6326 88.9688 50.4025 88.9688ZM42.8199 99.4356V93.2506H50.4025V99.4356H42.8199Z" fill="#C4C4C4"/>
<path d="M66.0104 66.1306H73.5929C75.823 66.1306 77.6072 64.2275 77.6072 61.8487V55.6637C77.6072 53.2849 75.823 51.3818 73.5929 51.3818H66.0104C63.7802 51.3818 61.9961 53.2849 61.9961 55.6637V61.8487C61.9961 64.2275 63.7802 66.1306 66.0104 66.1306ZM66.0104 55.6637H73.5929V61.8487H66.0104V55.6637Z" fill="#C4C4C4"/>
<path d="M61.9961 80.8798C61.9961 83.2586 63.7802 85.1617 66.0104 85.1617C66.9024 85.1617 67.7945 84.2101 67.7945 83.2586C67.7945 82.3071 66.9024 80.8798 66.0104 80.8798V74.6948H73.5929C74.485 74.6948 75.377 73.7433 75.377 72.7917C75.377 71.8402 74.485 70.8887 73.5929 70.8887H66.0104C63.7802 70.8887 61.9961 72.7917 61.9961 75.1706V80.8798Z" fill="#C4C4C4"/>
<path d="M27.2025 88.9688H19.1739C16.9438 88.9688 15.1597 90.8718 15.1597 93.2506V99.4356C15.1597 101.814 16.9438 103.717 19.1739 103.717H26.7565C28.9866 103.717 30.7708 101.814 30.7708 99.4356V93.2506C31.2168 90.8718 29.4327 88.9688 27.2025 88.9688ZM19.1739 99.4356V93.2506H26.7565V99.4356H19.1739Z" fill="#C4C4C4"/>
<path d="M90.9809 70.4131C77.1539 70.4131 65.5571 82.3072 65.5571 97.5318C65.5571 112.756 76.7079 124.65 90.9809 124.65C105.254 124.65 116.405 112.756 116.405 97.5318C116.405 82.3072 105.254 70.4131 90.9809 70.4131ZM90.9809 119.893C79.3841 119.893 69.5714 109.902 69.5714 97.056C69.5714 84.2103 78.9381 74.2192 90.9809 74.2192C103.024 74.2192 112.39 84.2103 112.39 97.056C112.39 109.902 103.024 119.893 90.9809 119.893Z" fill="#C4C4C4"/>
<path d="M102.59 88.4916L87.4246 104.668L80.2881 97.5312C79.396 96.5796 78.504 96.5796 77.6119 97.5312C76.7199 98.4827 76.7199 99.4342 77.6119 100.386L85.6405 108.95C86.5325 109.901 87.4246 109.901 88.3167 108.95L104.82 91.3462C105.712 90.3947 105.712 89.4431 104.82 88.4916C104.374 88.0158 103.036 88.0158 102.59 88.4916Z" fill="#C4C4C4"/>
</svg>
