<svg width="29" height="15" viewBox="0 0 29 15" fill="none" xmlns="http://www.w3.org/2000/svg">
<path d="M4.573 10.0319L9.03799 7.44718C9.10048 7.41178 9.17059 7.39198 9.24237 7.38945C9.31414 7.38692 9.38547 7.40173 9.4503 7.43263L14.2553 9.77388L18.3931 5.70899C18.4658 5.63831 18.5608 5.59521 18.6619 5.58715C18.7629 5.57908 18.8636 5.60654 18.9466 5.6648L24.4583 9.56355V0.464355H4.573V10.0319ZM13.4089 2.85489C13.8149 2.85489 14.2117 2.97528 14.5493 3.20082C14.8869 3.42637 15.15 3.74695 15.3053 4.12202C15.4607 4.49709 15.5014 4.90982 15.4222 5.308C15.343 5.70618 15.1475 6.07195 14.8605 6.35904C14.5734 6.64612 14.2077 6.84165 13.8095 6.92088C13.4113 7.00011 12.9986 6.9595 12.6235 6.80417C12.2484 6.64884 11.9278 6.38577 11.7022 6.04824C11.4766 5.7107 11.3562 5.31385 11.3562 4.90787C11.3567 4.3636 11.5732 3.84177 11.958 3.45689C12.3428 3.07201 12.8646 2.85551 13.4089 2.85489Z" fill="black"/>
<path d="M10.7329 14.4577H24.4575V10.6164L18.7423 6.5835L10.7329 14.4577Z" fill="black"/>
<path d="M13.409 6.10072C14.0681 6.10072 14.6024 5.56641 14.6024 4.90729C14.6024 4.24818 14.0681 3.71387 13.409 3.71387C12.7499 3.71387 12.2156 4.24818 12.2156 4.90729C12.2156 5.56641 12.7499 6.10072 13.409 6.10072Z" fill="black"/>
<path d="M9.27054 8.30518L4.573 11.025V14.4577H9.50794L13.5991 10.4227L9.27054 8.30518Z" fill="black"/>
<path d="M2.30218 0.54541C2.18824 0.54541 2.07896 0.590673 1.99839 0.671243C1.91782 0.751813 1.87256 0.861089 1.87256 0.975031V13.9468C1.87256 14.0607 1.91782 14.17 1.99839 14.2506C2.07896 14.3311 2.18824 14.3764 2.30218 14.3764C2.41612 14.3764 2.5254 14.3311 2.60597 14.2506C2.68654 14.17 2.7318 14.0607 2.7318 13.9468V0.975031C2.7318 0.861089 2.68654 0.751813 2.60597 0.671243C2.5254 0.590673 2.41612 0.54541 2.30218 0.54541Z" fill="black"/>
<path d="M0.460871 1.46631C0.346929 1.46631 0.237653 1.51157 0.157083 1.59214C0.0765136 1.67271 0.03125 1.78199 0.03125 1.89593V13.0264C0.03125 13.1404 0.0765136 13.2497 0.157083 13.3302C0.237653 13.4108 0.346929 13.4561 0.460871 13.4561C0.574814 13.4561 0.68409 13.4108 0.764659 13.3302C0.845229 13.2497 0.890493 13.1404 0.890493 13.0264V1.89593C0.890493 1.78199 0.845229 1.67271 0.764659 1.59214C0.68409 1.51157 0.574814 1.46631 0.460871 1.46631Z" fill="black"/>
<path d="M26.7292 0.54541C26.6152 0.54541 26.506 0.590673 26.4254 0.671243C26.3448 0.751813 26.2996 0.861089 26.2996 0.975031V13.9468C26.2996 14.0607 26.3448 14.17 26.4254 14.2506C26.506 14.3311 26.6152 14.3764 26.7292 14.3764C26.8431 14.3764 26.9524 14.3311 27.033 14.2506C27.1135 14.17 27.1588 14.0607 27.1588 13.9468V0.975031C27.1588 0.861089 27.1135 0.751813 27.033 0.671243C26.9524 0.590673 26.8431 0.54541 26.7292 0.54541Z" fill="black"/>
<path d="M28.5705 1.46631C28.4565 1.46631 28.3473 1.51157 28.2667 1.59214C28.1861 1.67271 28.1409 1.78199 28.1409 1.89593V13.0264C28.1409 13.1404 28.1861 13.2497 28.2667 13.3302C28.3473 13.4108 28.4565 13.4561 28.5705 13.4561C28.6844 13.4561 28.7937 13.4108 28.8743 13.3302C28.9548 13.2497 29.0001 13.1404 29.0001 13.0264V1.89593C29.0001 1.78199 28.9548 1.67271 28.8743 1.59214C28.7937 1.51157 28.6844 1.46631 28.5705 1.46631Z" fill="black"/>
</svg>
