<svg width="26" height="26" viewBox="0 0 26 26" fill="none" xmlns="http://www.w3.org/2000/svg">
<path fill-rule="evenodd" clip-rule="evenodd" d="M0 20.4158C0 20.8363 0.340948 21.1773 0.761499 21.1773H22.5518C22.9723 21.1773 23.3133 20.8363 23.3133 20.4158V19.6543H0V20.4158Z" fill="black"/>
<path fill-rule="evenodd" clip-rule="evenodd" d="M17.5884 24.477H17.5089C16.3736 24.477 15.4099 23.7291 15.084 22.7002H8.22864C7.90277 23.7291 6.93907 24.477 5.80378 24.477H5.72428C4.71392 24.5173 4.71468 25.9602 5.72428 26H17.5884C18.5987 25.9598 18.598 24.5169 17.5884 24.477Z" fill="black"/>
<path fill-rule="evenodd" clip-rule="evenodd" d="M25.5071 0.493641C24.8766 -0.164547 23.7238 -0.164547 23.0933 0.493641L22.9697 0.617207L25.3836 3.03106L25.5071 2.90749C26.1652 2.27692 26.1652 1.12416 25.5071 0.493641Z" fill="black"/>
<path fill-rule="evenodd" clip-rule="evenodd" d="M18.4204 12.1474L18.0969 12.4708C18.0965 12.4712 18.096 12.4716 18.0956 12.472C18.0153 12.5522 17.9161 12.6141 17.8089 12.6515L12.4524 14.5172C12.1796 14.6128 11.8705 14.5442 11.6635 14.3365C11.4569 14.13 11.3867 13.8235 11.4828 13.5476L13.3485 8.19103C13.3531 8.19103 13.3885 8.09706 13.3914 8.09158C13.4273 8.02218 13.474 7.95831 13.5292 7.90303L18.2262 3.20605H5.65383C5.23328 3.20605 4.89233 3.547 4.89233 3.96755V18.1314H18.4204V12.1474ZM9.17099 13.8672H7.15779C6.14744 13.8269 6.1482 12.384 7.15779 12.3442H9.17099C10.1813 12.3844 10.1806 13.8273 9.17099 13.8672ZM9.80725 10.8212H7.15779C6.14744 10.7809 6.1482 9.33805 7.15779 9.2982H9.80725C10.8176 9.33845 10.8168 10.7813 9.80725 10.8212ZM7.15779 7.7752C6.14744 7.73494 6.1482 6.29205 7.15779 6.2522H11.3714C12.3818 6.29246 12.381 7.73535 11.3714 7.7752H7.15779Z" fill="black"/>
<path fill-rule="evenodd" clip-rule="evenodd" d="M16.1616 11.6121L14.3874 9.83789L13.4392 12.5603L16.1616 11.6121Z" fill="black"/>
<path fill-rule="evenodd" clip-rule="evenodd" d="M19.9434 18.1312H23.313V7.25439L19.9434 10.6241V18.1312Z" fill="black"/>
<path fill-rule="evenodd" clip-rule="evenodd" d="M15.1428 8.44238L21.8889 1.69628L24.3024 4.10972L17.5563 10.8558L15.1428 8.44238Z" fill="black"/>
<path fill-rule="evenodd" clip-rule="evenodd" d="M3.36963 4.88379H0.761499C0.340948 4.88379 0 5.22474 0 5.64529V18.1313H3.36963V4.88379Z" fill="black"/>
</svg>
