<svg width="19" height="19" viewBox="0 0 19 19" fill="none" xmlns="http://www.w3.org/2000/svg">
<path d="M18.4021 4.32377C18.3096 4.16344 18.1523 4.07612 18.0032 4.12653L3.07012 5.90757C2.89023 5.90455 2.71861 6.03926 2.67344 6.20785C2.62826 6.37645 2.66739 6.56763 2.82469 6.65495L7.44649 10.649L8.59455 16.6486C8.64496 16.7977 8.73753 16.958 8.90612 17.0032C9.07471 17.0483 9.23504 16.9558 9.35322 16.8519L18.3622 4.80999C18.4917 4.66398 18.4947 4.48409 18.4021 4.32377ZM4.13734 6.64528L15.995 5.21472L7.87181 9.90466L4.13734 6.64528ZM9.24796 15.5588L8.30378 10.6528L16.427 5.96291L9.24796 15.5588Z" fill="white"/>
</svg>
