<svg width="34" height="33" viewBox="0 0 34 33" fill="none" xmlns="http://www.w3.org/2000/svg">
<path d="M24.6744 10.8272C24.5237 10.419 24.2834 10.0495 23.9711 9.74624C23.6679 9.43397 23.2986 9.19365 22.8902 9.04302C22.5589 8.91436 22.0613 8.76123 21.1448 8.71951C20.1533 8.67429 19.856 8.66455 17.3459 8.66455C14.8355 8.66455 14.5382 8.67404 13.547 8.71926C12.6304 8.76123 12.1325 8.91436 11.8015 9.04302C11.3931 9.19365 11.0236 9.43397 10.7206 9.74624C10.4083 10.0495 10.168 10.4187 10.0171 10.8272C9.88848 11.1584 9.73535 11.6563 9.69363 12.5729C9.64841 13.5641 9.63867 13.8614 9.63867 16.3717C9.63867 18.8819 9.64841 19.1791 9.69363 20.1706C9.73535 21.0872 9.88848 21.5848 10.0171 21.9161C10.168 22.3245 10.4081 22.6937 10.7204 22.997C11.0236 23.3093 11.3929 23.5496 11.8013 23.7002C12.1325 23.8291 12.6304 23.9823 13.547 24.024C14.5382 24.0692 14.8353 24.0787 17.3456 24.0787C19.8562 24.0787 20.1535 24.0692 21.1445 24.024C22.0611 23.9823 22.5589 23.8291 22.8902 23.7002C23.7101 23.384 24.3581 22.736 24.6744 21.9161C24.803 21.5848 24.9561 21.0872 24.9981 20.1706C25.0433 19.1791 25.0528 18.8819 25.0528 16.3717C25.0528 13.8614 25.0433 13.5641 24.9981 12.5729C24.9564 11.6563 24.8033 11.1584 24.6744 10.8272ZM17.3459 21.1989C14.6796 21.1989 12.5183 19.0377 12.5183 16.3715C12.5183 13.7053 14.6796 11.5441 17.3459 11.5441C20.0119 11.5441 22.1732 13.7053 22.1732 16.3715C22.1732 19.0377 20.0119 21.1989 17.3459 21.1989ZM22.3641 12.4814C21.7411 12.4814 21.2359 11.9763 21.2359 11.3533C21.2359 10.7302 21.7411 10.2251 22.3641 10.2251C22.9871 10.2251 23.4922 10.7302 23.4922 11.3533C23.492 11.9763 22.9871 12.4814 22.3641 12.4814Z" fill="#666A73"/>
<path d="M20.4802 16.3714C20.4802 18.1021 19.0772 19.5051 17.3465 19.5051C15.6158 19.5051 14.2129 18.1021 14.2129 16.3714C14.2129 14.6407 15.6158 13.2378 17.3465 13.2378C19.0772 13.2378 20.4802 14.6407 20.4802 16.3714Z" fill="#666A73"/>
<path d="M31.3565 0H3.33608C2.03181 0 0.974609 1.0572 0.974609 2.36147V30.3819C0.974609 31.6861 2.03181 32.7433 3.33608 32.7433H31.3565C32.6608 32.7433 33.718 31.6861 33.718 30.3819V2.36147C33.718 1.0572 32.6608 0 31.3565 0V0ZM26.6905 20.2475C26.645 21.2483 26.4859 21.9315 26.2536 22.5295C25.7652 23.7923 24.7669 24.7906 23.5041 25.279C22.9063 25.5113 22.2229 25.6702 21.2224 25.7159C20.2199 25.7616 19.8996 25.7726 17.3465 25.7726C14.7932 25.7726 14.4732 25.7616 13.4705 25.7159C12.47 25.6702 11.7865 25.5113 11.1887 25.279C10.5611 25.0429 9.99307 24.6729 9.52342 24.1945C9.04528 23.7251 8.67531 23.1568 8.43924 22.5295C8.20691 21.9317 8.04778 21.2483 8.00232 20.2478C7.9561 19.245 7.94536 18.9248 7.94536 16.3717C7.94536 13.8186 7.9561 13.4983 8.00207 12.4958C8.04753 11.4951 8.20641 10.8119 8.43874 10.2138C8.67481 9.58653 9.04503 9.01821 9.52342 8.54881C9.99282 8.07042 10.5611 7.70045 11.1884 7.46438C11.7865 7.23205 12.4697 7.07317 13.4705 7.02746C14.4729 6.98174 14.7932 6.97075 17.3463 6.97075C19.8994 6.97075 20.2196 6.98174 21.2221 7.02771C22.2229 7.07317 22.9061 7.23205 23.5041 7.46413C24.1314 7.7002 24.6997 8.07042 25.1694 8.54881C25.6475 9.01846 26.0178 9.58653 26.2536 10.2138C26.4862 10.8119 26.645 11.4951 26.6907 12.4958C26.7365 13.4983 26.7472 13.8186 26.7472 16.3717C26.7472 18.9248 26.7365 19.245 26.6905 20.2475Z" fill="#666A73"/>
</svg>
