<svg width="41" height="40" viewBox="0 0 41 40" fill="none" xmlns="http://www.w3.org/2000/svg">
<path d="M18.1367 23.2796L24.5145 19.6063L18.1367 15.9331V23.2796Z" fill="#666A73"/>
<path d="M20.5792 0C9.75246 0 0.972656 8.7798 0.972656 19.6065C0.972656 30.4333 9.75246 39.2131 20.5792 39.2131C31.4059 39.2131 40.1857 30.4333 40.1857 19.6065C40.1857 8.7798 31.4059 0 20.5792 0ZM32.8303 19.6266C32.8303 19.6266 32.8303 23.6029 32.3259 25.5203C32.0432 26.5698 31.2157 27.3973 30.1662 27.6797C28.2488 28.1844 20.5792 28.1844 20.5792 28.1844C20.5792 28.1844 12.9297 28.1844 10.9922 27.6596C9.94273 27.3772 9.11522 26.5494 8.8325 25.4999C8.3278 23.6029 8.3278 19.6065 8.3278 19.6065C8.3278 19.6065 8.3278 15.6305 8.8325 13.7131C9.11492 12.6637 9.96278 11.8158 10.9922 11.5334C12.9096 11.0287 20.5792 11.0287 20.5792 11.0287C20.5792 11.0287 28.2488 11.0287 30.1662 11.5534C31.2157 11.8358 32.0432 12.6637 32.3259 13.7131C32.8506 15.6305 32.8303 19.6266 32.8303 19.6266Z" fill="#666A73"/>
</svg>
