<svg width="41" height="40" viewBox="0 0 41 40" fill="none" xmlns="http://www.w3.org/2000/svg">
<path d="M24.346 19.6063C24.346 21.679 22.6658 23.3591 20.5931 23.3591C18.5205 23.3591 16.8403 21.679 16.8403 19.6063C16.8403 17.5337 18.5205 15.8535 20.5931 15.8535C22.6658 15.8535 24.346 17.5337 24.346 19.6063Z" fill="#666A73"/>
<path d="M29.3689 12.9664C29.1885 12.4775 28.9007 12.0351 28.5267 11.6719C28.1635 11.2979 27.7213 11.0101 27.2322 10.8297C26.8355 10.6756 26.2395 10.4922 25.1419 10.4423C23.9545 10.3881 23.5984 10.3765 20.5924 10.3765C17.586 10.3765 17.23 10.3878 16.0429 10.442C14.9452 10.4922 14.3489 10.6756 13.9525 10.8297C13.4634 11.0101 13.0209 11.2979 12.658 11.6719C12.2841 12.0351 11.9963 12.4773 11.8156 12.9664C11.6615 13.3631 11.4781 13.9593 11.4281 15.057C11.374 16.2441 11.3623 16.6001 11.3623 19.6065C11.3623 22.6126 11.374 22.9686 11.4281 24.156C11.4781 25.2537 11.6615 25.8496 11.8156 26.2463C11.9963 26.7355 12.2838 27.1777 12.6577 27.5409C13.0209 27.9148 13.4631 28.2026 13.9522 28.383C14.3489 28.5374 14.9452 28.7208 16.0429 28.7708C17.23 28.8249 17.5857 28.8363 20.5921 28.8363C23.5987 28.8363 23.9548 28.8249 25.1416 28.7708C26.2392 28.7208 26.8355 28.5374 27.2322 28.383C28.2141 28.0043 28.9901 27.2282 29.3689 26.2463C29.5229 25.8496 29.7063 25.2537 29.7566 24.156C29.8107 22.9686 29.8221 22.6126 29.8221 19.6065C29.8221 16.6001 29.8107 16.2441 29.7566 15.057C29.7066 13.9593 29.5232 13.3631 29.3689 12.9664ZM20.5924 25.3874C17.3993 25.3874 14.8109 22.7993 14.8109 19.6062C14.8109 16.4132 17.3993 13.825 20.5924 13.825C23.7851 13.825 26.3736 16.4132 26.3736 19.6062C26.3736 22.7993 23.7851 25.3874 20.5924 25.3874ZM26.6021 14.9475C25.856 14.9475 25.2511 14.3426 25.2511 13.5965C25.2511 12.8503 25.856 12.2454 26.6021 12.2454C27.3483 12.2454 27.9532 12.8503 27.9532 13.5965C27.9529 14.3426 27.3483 14.9475 26.6021 14.9475Z" fill="#666A73"/>
<path d="M20.5929 0C9.76613 0 0.986328 8.7798 0.986328 19.6065C0.986328 30.4333 9.76613 39.2131 20.5929 39.2131C31.4196 39.2131 40.1994 30.4333 40.1994 19.6065C40.1994 8.7798 31.4196 0 20.5929 0ZM31.7834 24.2482C31.7289 25.4467 31.5384 26.2649 31.2601 26.9811C30.6753 28.4934 29.4798 29.6889 27.9675 30.2738C27.2515 30.552 26.433 30.7423 25.2348 30.7971C24.0342 30.8518 23.6507 30.865 20.5932 30.865C17.5353 30.865 17.1521 30.8518 15.9512 30.7971C14.753 30.7423 13.9345 30.552 13.2186 30.2738C12.4671 29.9911 11.7867 29.548 11.2243 28.9751C10.6517 28.413 10.2086 27.7323 9.92589 26.9811C9.64766 26.2652 9.45708 25.4467 9.40264 24.2485C9.34729 23.0476 9.33442 22.6641 9.33442 19.6065C9.33442 16.549 9.34729 16.1655 9.40234 14.9649C9.45679 13.7664 9.64706 12.9482 9.92529 12.2319C10.208 11.4807 10.6514 10.8001 11.2243 10.238C11.7864 9.66505 12.4671 9.22198 13.2183 8.93926C13.9345 8.66103 14.7527 8.47076 15.9512 8.41601C17.1518 8.36126 17.5353 8.3481 20.5929 8.3481C23.6504 8.3481 24.0339 8.36126 25.2345 8.41631C26.433 8.47076 27.2512 8.66103 27.9675 8.93896C28.7187 9.22168 29.3993 9.66505 29.9617 10.238C30.5344 10.8004 30.9777 11.4807 31.2601 12.2319C31.5387 12.9482 31.7289 13.7664 31.7837 14.9649C31.8384 16.1655 31.8513 16.549 31.8513 19.6065C31.8513 22.6641 31.8384 23.0476 31.7834 24.2482Z" fill="#666A73"/>
</svg>
