<svg width="120" height="84" viewBox="0 0 120 84" fill="none" xmlns="http://www.w3.org/2000/svg">
<path d="M79.5449 42.615L120 68.19V15.96L79.5449 42.615Z" fill="#5B73E8"
/>
<path d="M0 15.96V68.19L40.455 42.615L0 15.96Z" fill="#5B73E8"
/>
<path d="M112.5 0.75H7.49961C3.75711 0.75 0.787109 3.54 0.224609 7.1325L59.9996 46.515L119.775 7.1325C119.212 3.54 116.242 0.75 112.5 0.75Z" fill="#5B73E8"
/>
<path d="M72.6752 47.1452L62.0627 54.1352C61.4327 54.5477 60.7202 54.7502 60.0002 54.7502C59.2802 54.7502 58.5677 54.5477 57.9377 54.1352L47.3252 47.1377L0.240234 76.9202C0.817734 80.4827 3.77273 83.2502 7.50023 83.2502H112.5C116.228 83.2502 119.183 80.4827 119.76 76.9202L72.6752 47.1452Z" fill="#5B73E8"/>
</svg>
