<svg width="24" height="24" viewBox="0 0 24 24" fill="none" xmlns="http://www.w3.org/2000/svg">
<path d="M18.2621 11.5332C17.7306 11.5332 17.301 11.9638 17.301 12.4943V20.1837C17.301 20.7132 16.8704 21.1448 16.3399 21.1448H2.8835C2.35288 21.1448 1.92239 20.7132 1.92239 20.1837V6.72725C1.92239 6.19768 2.35288 5.76614 2.8835 5.76614H10.5729C11.1044 5.76614 11.534 5.33548 11.534 4.80504C11.534 4.27441 11.1044 3.84375 10.5729 3.84375H2.8835C1.29374 3.84375 0 5.13749 0 6.72725V20.1837C0 21.7734 1.29374 23.0672 2.8835 23.0672H16.3399C17.9297 23.0672 19.2234 21.7734 19.2234 20.1837V12.4943C19.2234 11.9628 18.7936 11.5332 18.2621 11.5332Z" fill="#949090"/>
<path d="M9.01143 10.6575C8.9442 10.7247 8.89897 10.8102 8.87979 10.9025L8.20027 14.3013C8.16859 14.4588 8.21858 14.6212 8.33192 14.7356C8.42326 14.827 8.54628 14.8759 8.67229 14.8759C8.70292 14.8759 8.73477 14.8731 8.76645 14.8664L12.1642 14.1869C12.2584 14.1675 12.3439 14.1225 12.4103 14.0551L20.015 6.45032L16.6172 3.05273L9.01143 10.6575Z" fill="#949090"/>
<path d="M22.3649 0.70288C21.4279 -0.234293 19.9034 -0.234293 18.9671 0.70288L17.637 2.03305L21.0347 5.43081L22.3649 4.10047C22.8186 3.64781 23.0685 3.04414 23.0685 2.40211C23.0685 1.76008 22.8186 1.15642 22.3649 0.70288Z" fill="#949090"/>
</svg>
