<svg width="34" height="33" viewBox="0 0 34 33" fill="none" xmlns="http://www.w3.org/2000/svg">
<path d="M15.2822 19.4386L20.6077 16.3714L15.2822 13.3042V19.4386Z" fill="#666A73"/>
<path d="M31.3311 0H3.31069C2.00642 0 0.949219 1.0572 0.949219 2.36147V30.3819C0.949219 31.6861 2.00642 32.7433 3.31069 32.7433H31.3311C32.6354 32.7433 33.6926 31.6861 33.6926 30.3819V2.36147C33.6926 1.0572 32.6354 0 31.3311 0V0ZM27.5507 16.3884C27.5507 16.3884 27.5507 19.7087 27.1295 21.3097C26.8934 22.186 26.2025 22.877 25.3261 23.1128C23.7251 23.5343 17.3209 23.5343 17.3209 23.5343C17.3209 23.5343 10.9335 23.5343 9.31567 23.0961C8.43933 22.8603 7.74835 22.1691 7.51228 21.2927C7.09084 19.7087 7.09084 16.3717 7.09084 16.3717C7.09084 16.3717 7.09084 13.0517 7.51228 11.4506C7.7481 10.5743 8.45607 9.86632 9.31567 9.6305C10.9167 9.20907 17.3209 9.20907 17.3209 9.20907C17.3209 9.20907 23.7251 9.20907 25.3261 9.64724C26.2025 9.88306 26.8934 10.5743 27.1295 11.4506C27.5677 13.0517 27.5507 16.3884 27.5507 16.3884Z" fill="#666A73"/>
</svg>
