<svg width="39" height="38" viewBox="0 0 39 38" fill="none" xmlns="http://www.w3.org/2000/svg">
<path d="M39 19C39 8.50547 30.2707 0 19.5 0C8.7293 0 0 8.50547 0 19C0 29.4945 8.7293 38 19.5 38C19.6143 38 19.7285 38 19.8428 37.9926V23.2082H15.6533V18.4508H19.8428V14.9477C19.8428 10.8879 22.3869 8.67617 26.1041 8.67617C27.8865 8.67617 29.4176 8.80234 29.8594 8.86172V13.107H27.3C25.2814 13.107 24.8854 14.0422 24.8854 15.4152V18.4434H29.7223L29.09 23.2008H24.8854V37.2652C33.0357 34.9867 39 27.6762 39 19Z" fill="#5B73E8"/>
</svg>
