<svg width="20" height="20" viewBox="0 0 20 20" fill="none" xmlns="http://www.w3.org/2000/svg">
<path d="M12.2222 7.08333C12.1528 7.08333 12.0833 7.08333 12.0139 7.01389C11.875 6.94444 11.8055 6.80556 11.8055 6.66667V5.90278H11.3194C10.9027 5.90278 10.4861 5.55556 10.4861 5.06944V0.833333C10.4861 0.416667 10.8333 0 11.3194 0H19.0972C19.5139 0 19.9305 0.347222 19.9305 0.833333V5.06944C19.9305 5.48611 19.5833 5.90278 19.0972 5.90278H13.8889L12.5 7.01389C12.4305 7.08333 12.3611 7.08333 12.2222 7.08333ZM11.3889 0.763889V5.06944H12.2222C12.4305 5.06944 12.6389 5.27778 12.6389 5.48611V5.90278L13.6111 5.13889C13.6805 5.06944 13.75 5.06944 13.8194 5.06944H19.1666V0.833333L11.3889 0.763889Z" fill="black"/>
<path d="M17.5693 2.29183H12.986C12.7777 2.29183 12.5693 2.0835 12.5693 1.87516C12.5693 1.66683 12.7777 1.4585 12.986 1.4585H17.5693C17.7777 1.4585 17.986 1.66683 17.986 1.87516C17.986 2.0835 17.7777 2.29183 17.5693 2.29183Z" fill="black"/>
<path d="M17.5693 4.09749H12.986C12.7777 4.09749 12.5693 3.88916 12.5693 3.68083C12.5693 3.47249 12.7777 3.26416 12.986 3.26416H17.5693C17.7777 3.26416 17.986 3.47249 17.986 3.68083C17.986 3.9586 17.7777 4.09749 17.5693 4.09749Z" fill="black"/>
<path d="M6.45833 5.48611C4.93056 5.48611 3.75 4.23611 3.75 2.77778C3.75 1.31944 5 0 6.45833 0C7.98611 0 9.16667 1.25 9.16667 2.70833C9.23611 4.23611 7.98611 5.48611 6.45833 5.48611ZM6.45833 0.763889C5.34722 0.763889 4.51389 1.66667 4.51389 2.70833C4.51389 3.81944 5.41667 4.65278 6.45833 4.65278C7.5 4.65278 8.40278 3.75 8.40278 2.70833C8.40278 1.66667 7.56944 0.763889 6.45833 0.763889Z" fill="black"/>
<path d="M8.5417 12.0832C8.40281 12.0832 8.26392 11.9443 8.19448 11.8054C8.12504 11.6666 8.19448 11.4582 8.33337 11.3888C8.47226 11.3193 8.61115 11.2499 8.75004 11.3888C8.88893 11.4582 8.95837 11.6666 8.95837 11.8054C8.88892 12.0138 8.75004 12.0832 8.5417 12.0832Z" fill="black"/>
<path d="M12.5694 8.95814H9.72222V7.22203C9.72222 6.59703 9.16667 6.04147 8.54167 6.04147H4.375C3.75 6.04147 3.19444 6.59703 3.19444 7.22203V8.95814H2.22222V6.59703L3.40278 5.76369C3.61111 5.62481 3.61111 5.41647 3.47222 5.20814C3.40278 5.06925 3.125 4.99981 2.98611 5.13869L1.59722 6.04147C1.52778 6.18036 1.45833 6.24981 1.45833 6.38869V8.95814H0.416667C0.208333 8.95814 0 9.16647 0 9.37481V11.7359C0 11.9443 0.208333 12.1526 0.416667 12.1526H1.18056V19.6526C1.18056 19.8609 1.38889 20.0693 1.59722 20.0693H11.4583C11.6667 20.0693 11.875 19.8609 11.875 19.6526V12.0831H12.6389C12.8472 12.0831 13.0556 11.8748 13.0556 11.6665V9.30536C12.9861 9.09703 12.7778 8.95814 12.5694 8.95814ZM4.02778 7.22203C4.02778 7.01369 4.23611 6.80536 4.44444 6.80536H8.61111C8.81944 6.80536 9.02778 7.01369 9.02778 7.22203V8.95814H4.02778V7.22203ZM12.1528 11.3193H10.2778C10.0694 11.3193 9.86111 11.5276 9.86111 11.7359C9.86111 11.9443 10.0694 12.1526 10.2778 12.1526H10.9722V19.2359H1.94444V12.0831H6.66667C6.875 12.0831 7.08333 11.8748 7.08333 11.6665C7.08333 11.4581 6.875 11.2498 6.66667 11.2498H0.763889V9.72203H12.1528V11.3193Z" fill="black"/>
</svg>
