<svg width="18" height="22" viewBox="0 0 18 22" fill="none" xmlns="http://www.w3.org/2000/svg">
<path d="M6.71851 1.328H10.3954V1.94669H11.7232V1.24139C11.7234 0.556915 11.1668 0 10.4826 0H6.63123C5.94708 0 5.3905 0.556915 5.3905 1.24139V1.94669H6.71851V1.328Z" fill="#949090"/>
<path d="M14.79 7.20801H2.32437C1.98281 7.20801 1.71392 7.49939 1.74144 7.83995L2.7836 20.7265C2.84168 21.4459 3.44173 22 4.16263 22H12.9516C13.6725 22 14.2725 21.4459 14.3306 20.7264L15.3728 7.83995C15.4005 7.49939 15.1316 7.20801 14.79 7.20801ZM5.34276 20.6255C5.32883 20.6263 5.3149 20.6268 5.30113 20.6268C4.95302 20.6268 4.6608 20.3558 4.63915 20.0036L3.98606 9.42442C3.96356 9.05835 4.24202 8.7433 4.60793 8.72081C4.97266 8.69865 5.28905 8.97644 5.31154 9.34268L5.96446 19.9219C5.98712 20.288 5.70867 20.6028 5.34276 20.6255ZM9.22858 19.9628C9.22858 20.3294 8.93132 20.6267 8.56458 20.6267C8.19783 20.6267 7.90058 20.3294 7.90058 19.9628V9.38347C7.90058 9.01672 8.19783 8.71947 8.56458 8.71947C8.93115 8.71947 9.22858 9.01672 9.22858 9.38347V19.9628ZM13.1283 9.42258L12.5048 20.0018C12.4841 20.3546 12.1914 20.6267 11.8426 20.6267C11.8295 20.6267 11.8163 20.6263 11.803 20.6257C11.4369 20.604 11.1576 20.2898 11.1793 19.9237L11.8027 9.34436C11.8242 8.97829 12.1374 8.69899 12.5044 8.72064C12.8705 8.74213 13.1498 9.0565 13.1283 9.42258Z" fill="#949090"/>
<path d="M17.0864 5.15866L16.6504 3.85147C16.5354 3.50688 16.2128 3.27441 15.8494 3.27441H1.26537C0.902153 3.27441 0.579384 3.50688 0.464577 3.85147L0.0285113 5.15866C-0.0555799 5.41077 0.0538562 5.66791 0.258126 5.79614C0.341378 5.84834 0.439904 5.87973 0.548165 5.87973H16.5668C16.675 5.87973 16.7737 5.84834 16.8568 5.79597C17.0611 5.66774 17.1705 5.4106 17.0864 5.15866Z" fill="#949090"/>
</svg>
