<svg width="33" height="33" viewBox="0 0 33 33" fill="none" xmlns="http://www.w3.org/2000/svg">
<path d="M30.3819 0H2.36147C1.0572 0 0 1.0572 0 2.36147V30.3819C0 31.6861 1.0572 32.7433 2.36147 32.7433H30.3819C31.6861 32.7433 32.7433 31.6861 32.7433 30.3819V2.36147C32.7433 1.0572 31.6861 0 30.3819 0V0ZM23.8468 12.7649C23.854 12.926 23.8575 13.0879 23.8575 13.2505C23.8575 18.216 20.0779 23.942 13.1658 23.9422H13.1661H13.1658C11.0437 23.9422 9.06892 23.3202 7.40592 22.2542C7.69995 22.289 7.99923 22.3062 8.30225 22.3062C10.0629 22.3062 11.6832 21.7057 12.9695 20.6977C11.3245 20.6672 9.93752 19.5808 9.45888 18.0876C9.68796 18.1316 9.92353 18.1556 10.1651 18.1556C10.5081 18.1556 10.8403 18.1094 11.1561 18.0232C9.43665 17.6789 8.14137 16.1593 8.14137 14.3397C8.14137 14.3227 8.14137 14.3075 8.14187 14.2917C8.64824 14.5733 9.2273 14.7427 9.84384 14.7616C8.83485 14.0884 8.1716 12.9375 8.1716 11.6337C8.1716 10.9453 8.35771 10.3002 8.68046 9.74491C10.5336 12.0187 13.303 13.5141 16.4261 13.6712C16.3617 13.3959 16.3285 13.1091 16.3285 12.8144C16.3285 10.7399 18.0114 9.05693 20.0866 9.05693C21.1676 9.05693 22.1438 9.51384 22.8296 10.2443C23.6857 10.0754 24.4896 9.76265 25.2158 9.33222C24.9347 10.2093 24.3392 10.9453 23.5633 11.4107C24.3234 11.3197 25.0479 11.1181 25.7211 10.8189C25.2183 11.5725 24.5805 12.2345 23.8468 12.7649Z" fill="#666A73"/>
</svg>
