<svg width="34" height="33" viewBox="0 0 34 33" fill="none" xmlns="http://www.w3.org/2000/svg">
<path d="M31.3448 0H3.32436C2.02009 0 0.962891 1.0572 0.962891 2.36147V30.3819C0.962891 31.6861 2.02009 32.7433 3.32436 32.7433H31.3448C32.649 32.7433 33.7062 31.6861 33.7062 30.3819V2.36147C33.7062 1.0572 32.649 0 31.3448 0V0ZM12.5771 24.7494H8.5899V12.7536H12.5771V24.7494ZM10.5836 11.1156H10.5577C9.21967 11.1156 8.35433 10.1946 8.35433 9.04344C8.35433 7.86633 9.24615 6.97075 10.6101 6.97075C11.9741 6.97075 12.8135 7.86633 12.8394 9.04344C12.8394 10.1946 11.9741 11.1156 10.5836 11.1156ZM26.9543 24.7494H22.9676V18.3319C22.9676 16.7192 22.3903 15.6192 20.9476 15.6192C19.8462 15.6192 19.1902 16.3612 18.9019 17.0774C18.7965 17.3337 18.7707 17.6919 18.7707 18.0504V24.7494H14.7837C14.7837 24.7494 14.8359 13.8791 14.7837 12.7536H18.7707V14.4521C19.3006 13.6347 20.2486 12.4721 22.364 12.4721C24.9873 12.4721 26.9543 14.1866 26.9543 17.871V24.7494Z" fill="#666A73"/>
</svg>
