<svg width="33" height="33" viewBox="0 0 33 33" fill="none" xmlns="http://www.w3.org/2000/svg">
<path d="M16.9779 7.95996C12.4856 7.95996 8.83208 11.612 8.83008 16.1011C8.82958 17.6394 9.26025 19.1375 10.0754 20.4338L10.269 20.7418L9.44611 23.7463L12.5285 22.9379L12.8261 23.1143C14.0764 23.8562 15.5098 24.2487 16.9712 24.2492H16.9744C21.4633 24.2492 25.1168 20.5969 25.1188 16.1076C25.1196 13.932 24.2732 11.8865 22.7356 10.3477C21.198 8.80882 19.1531 7.96071 16.9779 7.95996ZM21.7683 19.6014C21.5642 20.173 20.5862 20.6949 20.1158 20.7653C19.6939 20.8283 19.1603 20.8545 18.5737 20.6684C18.218 20.5555 17.7621 20.4048 17.1778 20.1528C14.7219 19.0926 13.1179 16.6204 12.9954 16.4571C12.873 16.2937 11.9957 15.1298 11.9957 13.925C11.9957 12.7204 12.6282 12.1281 12.8526 11.8833C13.0771 11.6382 13.3424 11.577 13.5056 11.577C13.6687 11.577 13.8321 11.5785 13.9747 11.5855C14.1251 11.593 14.3269 11.5283 14.5255 12.0057C14.7296 12.4958 15.2193 13.7004 15.2805 13.8228C15.3417 13.9455 15.3824 14.0883 15.301 14.2517C15.2193 14.4151 14.8341 14.9072 14.6889 15.0888C14.5807 15.2237 14.4386 15.3434 14.5815 15.5885C14.7241 15.8333 15.2158 16.6349 15.9435 17.2839C16.8788 18.1178 17.6677 18.3761 17.9125 18.4988C18.1571 18.6212 18.2999 18.6007 18.4428 18.4376C18.5855 18.2742 19.0549 17.7229 19.218 17.4778C19.3811 17.2327 19.5445 17.2737 19.7688 17.3554C19.9934 17.4368 21.197 18.0291 21.4418 18.1515C21.6866 18.2742 21.8498 18.3354 21.911 18.4376C21.9724 18.5397 21.9724 19.0296 21.7683 19.6014Z" fill="#666A73"/>
<path d="M30.6377 0H2.61733C1.31306 0 0.255859 1.0572 0.255859 2.36147V30.3819C0.255859 31.6861 1.31306 32.7433 2.61733 32.7433H30.6377C31.942 32.7433 32.9992 31.6861 32.9992 30.3819V2.36147C32.9992 1.0572 31.942 0 30.6377 0V0ZM16.9745 25.9037C16.9743 25.9037 16.9748 25.9037 16.9745 25.9037H16.9705C15.3305 25.903 13.719 25.4918 12.2878 24.7114L7.09346 26.0736L8.48366 20.9974C7.62606 19.5121 7.1749 17.8268 7.17565 16.1004C7.1779 10.6994 11.5736 6.3055 16.9745 6.3055C19.5955 6.3065 22.0559 7.32673 23.9058 9.17809C25.7559 11.0297 26.7741 13.4908 26.7731 16.1081C26.7709 21.5093 22.3747 25.9037 16.9745 25.9037Z" fill="#666A73"/>
</svg>
