<svg width="33" height="33" viewBox="0 0 33 33" fill="none" xmlns="http://www.w3.org/2000/svg">
<path d="M31.1784 0.212891H1.82C0.814728 0.213477 -0.000201379 1.0041 3.73281e-08 1.9793V30.448C0.000604288 31.4229 0.815936 32.2131 1.82161 32.2129H17.6279V19.8379H13.3418V14.9941H17.6279V11.4295C17.6279 7.2957 20.2304 5.0457 24.0332 5.0457C25.8546 5.0457 27.4198 5.17734 27.876 5.23613V9.55664H25.2537C23.1848 9.55664 22.7842 10.51 22.7842 11.9092V14.9941H27.731L27.0864 19.8379H22.7842V32.2129H31.1784C32.1843 32.2131 32.9998 31.4227 33 30.4473C33 30.4471 33 30.4469 33 30.4465V1.97773C32.9996 1.00293 32.1841 0.212695 31.1784 0.212891Z" fill="#5B73E8"/>
</svg>
