<svg width="40" height="40" viewBox="0 0 40 40" fill="none" xmlns="http://www.w3.org/2000/svg">
<path d="M20.0753 0C9.24855 0 0.46875 8.7798 0.46875 19.6065C0.46875 30.4333 9.24855 39.2131 20.0753 39.2131C30.902 39.2131 39.6818 30.4333 39.6818 19.6065C39.6818 8.7798 30.902 0 20.0753 0ZM20.4908 31.022C20.4905 31.022 20.4911 31.022 20.4908 31.022H20.486C18.522 31.0211 16.592 30.5287 14.8781 29.5941L8.65739 31.2255L10.3223 25.1463C9.29522 23.3674 8.75492 21.3492 8.75581 19.2816C8.75851 12.8135 14.0227 7.5514 20.4908 7.5514C23.6297 7.5526 26.5763 8.77442 28.7917 10.9916C31.0073 13.209 32.2268 16.1565 32.2256 19.2909C32.2229 25.7593 26.958 31.022 20.4908 31.022Z" fill="#666A73"/>
<path d="M20.4951 9.53271C15.1151 9.53271 10.7397 13.9063 10.7373 19.2824C10.7367 21.1247 11.2525 22.9189 12.2287 24.4713L12.4605 24.8401L11.4751 28.4383L15.1665 27.4702L15.5229 27.6814C17.0202 28.5699 18.7369 29.0399 20.487 29.0405H20.4909C25.8667 29.0405 30.2421 24.6666 30.2445 19.2902C30.2454 16.6847 29.2318 14.2351 27.3904 12.3922C25.549 10.5493 23.1 9.53361 20.4951 9.53271ZM26.232 23.4744C25.9876 24.1589 24.8163 24.7839 24.253 24.8683C23.7477 24.9437 23.1087 24.9751 22.4062 24.7522C21.9802 24.617 21.4342 24.4366 20.7344 24.1347C17.7933 22.865 15.8723 19.9044 15.7257 19.7088C15.5791 19.5131 14.5284 18.1193 14.5284 16.6763C14.5284 15.2337 15.2859 14.5244 15.5546 14.2312C15.8235 13.9377 16.1412 13.8644 16.3366 13.8644C16.532 13.8644 16.7276 13.8662 16.8985 13.8746C17.0786 13.8836 17.3203 13.8061 17.5581 14.3778C17.8026 14.9648 18.3889 16.4074 18.4622 16.554C18.5355 16.7009 18.5843 16.872 18.4868 17.0677C18.3889 17.2633 18.064 17.6855 17.7538 18.0702C17.6236 18.2314 17.454 18.375 17.6251 18.6685C17.796 18.9617 18.3847 19.9218 19.2562 20.699C20.3763 21.6976 21.3211 22.007 21.6143 22.1539C21.9072 22.3005 22.0783 22.2759 22.2494 22.0806C22.4203 21.8849 22.9824 21.2247 23.1778 20.9312C23.3731 20.6377 23.5688 20.6867 23.8374 20.7846C24.1064 20.8821 25.5478 21.5914 25.841 21.738C26.1342 21.8849 26.3295 21.9582 26.4028 22.0806C26.4764 22.2029 26.4764 22.7896 26.232 23.4744Z" fill="#666A73"/>
</svg>
