<svg width="39" height="38" viewBox="0 0 39 38" fill="none" xmlns="http://www.w3.org/2000/svg">
<path d="M19.5 0C8.73209 0 0 8.50819 0 19C0 29.4918 8.73209 38 19.5 38C30.2679 38 39 29.4918 39 19C39 8.50819 30.2679 0 19.5 0ZM13.8335 28.7227H9.08439V14.8011H13.8335V28.7227ZM11.4591 12.9001H11.4282C9.8345 12.9001 8.8038 11.8312 8.8038 10.4953C8.8038 9.1292 9.86604 8.08984 11.4906 8.08984C13.1152 8.08984 14.115 9.1292 14.146 10.4953C14.146 11.8312 13.1152 12.9001 11.4591 12.9001ZM30.9579 28.7227H26.2094V21.275C26.2094 19.4033 25.5217 18.1268 23.8034 18.1268C22.4915 18.1268 21.7102 18.9878 21.3668 19.819C21.2412 20.1165 21.2106 20.5322 21.2106 20.9482V28.7227H16.4618C16.4618 28.7227 16.5239 16.1072 16.4618 14.8011H21.2106V16.7723C21.8417 15.8237 22.9709 14.4744 25.4905 14.4744C28.615 14.4744 30.9579 16.4641 30.9579 20.7401V28.7227Z" fill="#666A73"/>
</svg>
