<svg width="22" height="28" viewBox="0 0 22 28" fill="none" xmlns="http://www.w3.org/2000/svg">
<path d="M5.50014 19.6H16.5001V22.4H5.50014V19.6ZM5.50014 14H16.5001V16.8H5.50014V14ZM13.7501 0H2.75014C2.01483 0.00870575 1.31284 0.308087 0.797564 0.832735C0.282286 1.35738 -0.00439958 2.06465 0.000143962 2.8V25.2C-0.00733015 25.9338 0.276489 26.6407 0.789372 27.1655C1.30226 27.6904 2.00235 27.9905 2.73614 28H19.2501C19.9855 27.9913 20.6874 27.6919 21.2027 27.1673C21.718 26.6426 22.0047 25.9354 22.0001 25.2V8.4L13.7501 0ZM19.2501 25.2H2.75014V2.8H12.3751V9.8H19.2501V25.2Z" fill="#AFB1B3"/>
</svg>
