<svg width="22" height="24" viewBox="0 0 22 24" fill="none" xmlns="http://www.w3.org/2000/svg">
<path d="M19.2 24H2.4C1.76348 24 1.15303 23.7471 0.702944 23.2971C0.252856 22.847 0 22.2365 0 21.6L0.012 4.8C0.0119921 4.16555 0.263201 3.55692 0.710696 3.10717C1.15819 2.65743 1.76556 2.40317 2.4 2.4H3.6V0H6V2.4H15.6V0H18V2.4H19.2C19.8365 2.4 20.447 2.65286 20.8971 3.10294C21.3471 3.55303 21.6 4.16348 21.6 4.8V21.6C21.6 22.2365 21.3471 22.847 20.8971 23.2971C20.447 23.7471 19.8365 24 19.2 24ZM2.4 9.6V21.6H19.2V9.6H2.4ZM2.4 4.8V7.2H19.2V4.8H2.4ZM16.8 19.2H10.8V13.2H16.8V19.2Z" fill="#A5A4BF"/>
</svg>
