<svg width="24" height="24" viewBox="0 0 24 24" fill="none" xmlns="http://www.w3.org/2000/svg">
<path d="M0 12C0.00923395 8.82024 1.27695 5.77334 3.52539 3.5249C5.77383 1.27646 8.82024 0.00923395 12 0C15.1798 0.00923395 18.2262 1.27646 20.4746 3.5249C22.723 5.77334 23.9908 8.82024 24 12C23.9908 15.1798 22.723 18.2267 20.4746 20.4751C18.2262 22.7235 15.1798 23.9908 12 24C8.82024 23.9908 5.77383 22.7235 3.52539 20.4751C1.27695 18.2267 0.00923395 15.1798 0 12ZM2.40039 12C2.40778 14.5438 3.42098 16.9813 5.21973 18.78C7.01848 20.5788 9.45619 21.5926 12 21.6C14.5437 21.5923 16.9806 20.5785 18.7793 18.7798C20.578 16.9811 21.592 14.5437 21.5996 12C21.592 9.45627 20.578 7.01891 18.7793 5.22021C16.9806 3.42152 14.5437 2.40767 12 2.40002C9.45627 2.40767 7.0194 3.42152 5.2207 5.22021C3.42201 7.01891 2.40804 9.45627 2.40039 12ZM10.7998 13.2V6H12.5996V12.24L18 15.48L17.04 17.04L10.7998 13.2Z" fill="#A5A4BF"/>
</svg>
