<svg width="22" height="22" viewBox="0 0 22 22" fill="none" xmlns="http://www.w3.org/2000/svg">
<path d="M22 10.8581C21.929 7.94839 20.7935 5.18064 18.7355 3.19355C16.6774 1.13548 13.9097 0 11 0C8.09032 0 5.32258 1.13548 3.19355 3.19355C1.13548 5.32258 0 8.09032 0 11C0 13.9097 1.13548 16.6774 3.12258 18.7355C5.18064 20.7935 7.87742 22 10.7871 22C10.8581 22 10.8581 22 10.929 22C11.8516 22 12.7032 21.5742 13.3419 20.8645C13.9806 20.1548 14.1935 19.2323 14.0516 18.2387C13.9806 18.0258 13.9806 17.8129 13.9806 17.529C13.9806 16.6065 14.4065 15.6839 15.0452 15.0452C15.6839 14.4065 16.6065 13.9806 17.529 13.9806C17.7419 13.9806 17.9548 13.9806 18.2387 14.0516C19.1613 14.1935 20.1548 13.9097 20.8645 13.3419C21.5742 12.7032 22 11.8516 22 10.929V10.8581ZM5.03871 6.6C6.10323 6.6 6.95484 7.45161 6.95484 8.51613C6.95484 9.58064 6.10323 10.4323 5.03871 10.4323C3.97419 10.4323 3.12258 9.58064 3.12258 8.51613C3.12258 7.45161 3.97419 6.6 5.03871 6.6ZM5.03871 15.4C3.97419 15.4 3.12258 14.5484 3.12258 13.4839C3.12258 12.4194 3.97419 11.5677 5.03871 11.5677C6.10323 11.5677 6.95484 12.4194 6.95484 13.4839C6.95484 14.5484 6.10323 15.4 5.03871 15.4ZM8.51613 18.8774C7.45161 18.8774 6.6 18.0258 6.6 16.9613C6.6 15.8968 7.45161 15.0452 8.51613 15.0452C9.58064 15.0452 10.4323 15.8968 10.4323 16.9613C10.5032 18.0258 9.58064 18.8774 8.51613 18.8774ZM8.51613 6.95484C7.45161 6.95484 6.6 6.10323 6.6 5.03871C6.6 3.97419 7.45161 3.12258 8.51613 3.12258C9.58064 3.12258 10.4323 3.97419 10.4323 5.03871C10.5032 6.10323 9.58064 6.95484 8.51613 6.95484ZM13.4839 6.95484C12.4194 6.95484 11.5677 6.10323 11.5677 5.03871C11.5677 3.97419 12.4194 3.12258 13.4839 3.12258C14.5484 3.12258 15.4 3.97419 15.4 5.03871C15.4 6.10323 14.5484 6.95484 13.4839 6.95484ZM16.9613 10.5032C15.8968 10.5032 15.0452 9.65161 15.0452 8.5871C15.0452 7.52258 15.8968 6.67097 16.9613 6.67097C18.0258 6.67097 18.8774 7.52258 18.8774 8.5871C18.8774 9.58065 18.0258 10.5032 16.9613 10.5032Z" fill="#5B73E8"/>
</svg>
