<svg width="50" height="51" viewBox="0 0 50 51" fill="none" xmlns="http://www.w3.org/2000/svg">
<path d="M47.3211 15.7524L4.86601 0.220118C3.54694 -0.261711 2.06642 0.0615584 1.06953 1.05194C0.0726423 2.04233 -0.261821 3.5196 0.212423 4.84264L15.5807 47.7514C16.0879 49.1676 17.4174 50.1223 18.9218 50.1512C18.9449 50.1515 18.9676 50.1519 18.9904 50.1519C20.4673 50.1519 21.799 49.2543 22.3509 47.88L28.1159 33.5266L40.2374 45.7793C40.9457 46.4948 41.8787 46.8538 42.812 46.8538C43.7327 46.8538 44.6534 46.5049 45.3595 45.8071C46.7815 44.3999 46.7938 42.1074 45.3869 40.6851L33.1899 28.3562L47.4515 22.5052C48.8342 21.9382 49.7267 20.579 49.6978 19.0844C49.6692 17.5894 48.7251 16.2664 47.3211 15.7524ZM25.4362 23.7069C24.5311 24.0782 23.8148 24.7999 23.45 25.7079L19.184 36.3302L9.63843 9.67899L36.0639 19.347L25.4362 23.7069Z" fill="#5B73E8"/>
</svg>
