<svg width="49" height="48" viewBox="0 0 49 48" fill="none" xmlns="http://www.w3.org/2000/svg">
<path d="M26.8927 26.977C26.9137 26.4519 26.9767 25.9269 26.9767 25.4018C26.9557 21.8526 26.9137 18.3033 26.9347 14.754C26.9347 11.8558 26.9767 8.93662 27.0397 6.0384C27.0817 4.6523 28.5308 3.56022 29.9169 3.81224C30.82 3.98025 31.471 4.50529 31.66 5.42936C31.87 6.41643 32.0381 7.4245 32.1431 8.43258C32.3321 10.2177 32.4371 11.9818 32.5841 13.767C32.6051 13.914 32.6261 14.082 32.6471 14.25C33.1301 14.145 33.5712 13.998 34.0332 13.956C35.5663 13.767 36.5534 14.292 37.3304 15.6361C37.3934 15.7621 37.6245 15.8461 37.7715 15.8671C38.2125 15.9301 38.6535 15.9091 39.0736 15.9721C40.3127 16.1822 41.2367 16.8542 41.7198 18.0513C41.9718 18.6603 42.1608 19.2904 42.3708 19.8994C42.8118 19.9834 43.2529 20.0254 43.6729 20.1304C45.395 20.5715 46.2351 21.8316 46.5291 23.4697C46.8021 24.9608 46.9492 26.4729 47.1382 27.985C47.4322 30.4002 47.8102 32.8154 47.9782 35.2306C48.1882 38.1918 47.4742 41.069 46.8021 43.9252C46.6551 44.5763 46.6551 45.1013 47.0752 45.6263C47.3692 45.9834 47.6002 46.4034 47.8312 46.8234C48.0832 47.2435 47.9782 47.6425 47.6212 47.8735C47.2222 48.1255 46.8651 47.9785 46.6131 47.6215C46.1091 46.8864 45.6261 46.1304 45.185 45.3533C45.059 45.1223 45.101 44.7863 45.143 44.5133C45.563 42.2031 46.0671 39.8929 46.4241 37.5617C46.7181 35.6926 46.3821 33.8235 46.1511 31.9753C45.8361 29.4131 45.5 26.8719 45.143 24.3308C45.08 23.8897 44.954 23.4487 44.807 23.0077C44.471 21.9996 43.6729 21.6006 42.6438 21.4745C42.7278 22.2096 42.8328 22.8816 42.8539 23.5747C42.8959 24.2677 42.8749 24.9818 42.8328 25.6749C42.8118 26.2629 42.5178 26.5359 42.0558 26.5149C41.5938 26.4939 41.3207 26.1369 41.3627 25.5278C41.5098 23.4487 41.1737 21.4115 40.5647 19.4164C40.4177 18.9334 40.2077 18.4083 39.8716 18.0303C39.3046 17.3792 38.4855 17.3162 37.5825 17.3792C37.6035 17.7783 37.6245 18.1563 37.6665 18.5133C37.8555 20.6555 38.0445 22.7976 38.2335 24.9398C38.2755 25.4858 38.0445 25.8219 37.6245 25.8849C37.1624 25.9479 36.8264 25.6539 36.7844 25.1078C36.5744 22.7976 36.3854 20.5085 36.1754 18.1983C36.1334 17.6523 36.0914 17.1062 35.9863 16.5812C35.8813 16.0351 35.5873 15.5941 34.9993 15.4891C34.2642 15.3631 33.5082 15.3211 32.9411 15.9511C32.7521 16.1612 32.7101 16.5392 32.7311 16.8332C32.8361 19.6054 32.9831 22.3986 33.1091 25.1708C33.1301 25.5909 33.1511 26.0109 33.1511 26.4309C33.1511 26.8929 32.9201 27.166 32.4791 27.208C32.0801 27.25 31.723 26.9349 31.681 26.4729C31.639 25.7799 31.618 25.0658 31.576 24.3728C31.261 19.0594 30.946 13.746 30.5889 8.45358C30.5469 7.67652 30.3999 6.89946 30.2529 6.12241C30.1689 5.72338 30.0219 5.28234 29.4549 5.34535C28.7618 5.40835 28.4258 5.70238 28.4258 6.33242C28.4258 11.5408 28.4678 16.7702 28.4258 21.9786C28.4048 25.0028 28.2158 28.027 28.0898 31.0513C28.0688 31.4923 27.8167 31.7653 27.3547 31.7863C26.9347 31.7863 26.5566 31.4503 26.6407 30.9883C26.8717 29.8542 26.5566 28.9721 25.6956 28.216C25.3806 27.943 25.2335 27.481 25.0445 27.082C24.1205 25.1498 22.5033 24.0367 20.5292 23.4277C20.1092 23.3017 19.6261 23.3227 19.1851 23.4067C18.5971 23.5327 18.366 24.0577 18.6811 24.5618C19.0801 25.1918 19.5211 25.8219 20.0042 26.3889C21.4323 28.006 22.5033 29.8332 23.1964 31.8913C23.7844 33.6554 24.6455 35.2516 25.6116 36.8267C26.4516 38.1708 27.2707 39.5569 27.9848 40.964C28.7198 42.3921 29.9799 43.1902 31.24 44.0092C31.513 44.1982 31.828 44.3242 32.1011 44.4923C32.5211 44.7443 32.6471 45.1433 32.4581 45.5003C32.2481 45.8784 31.807 46.0254 31.429 45.7733C30.2529 44.9963 29.0768 44.1982 27.9638 43.3582C27.5647 43.0431 27.2497 42.5811 26.9977 42.1401C25.9476 40.3759 24.8975 38.6118 23.9315 36.8267C23.1964 35.4616 22.4823 34.0755 21.9363 32.6264C21.2223 30.7362 20.3192 28.9931 18.9961 27.46C18.5341 26.9349 18.093 26.3889 17.694 25.8009C17.0849 24.9398 16.7909 23.9947 17.421 23.0077C18.051 22.0206 19.0171 21.6636 20.1092 21.8526C22.8394 22.3146 24.9185 23.7427 26.2626 26.1789C26.4096 26.4309 26.5356 26.7039 26.6827 26.977C26.7667 26.9349 26.8087 26.9349 26.8927 26.977Z" fill="#949090"/>
<path d="M22.252 42.1188C23.05 42.1188 23.8271 42.1188 24.5831 42.1188C25.2342 42.1188 25.5702 42.3918 25.5702 42.8749C25.5702 43.3579 25.2132 43.5889 24.5621 43.5889C23.7851 43.5889 23.029 43.5889 22.231 43.5889C21.9579 45.038 21.2649 46.1931 20.0678 47.0332C19.1647 47.6632 18.1567 47.9783 17.0646 47.9573C14.5864 47.9153 12.9063 46.4661 12.0032 43.5889C11.8352 43.5889 11.6462 43.5889 11.4572 43.5889C8.36993 43.5889 5.2617 43.5889 2.17447 43.5889C2.02746 43.5889 1.85945 43.5889 1.71244 43.5889C1.2714 43.5469 0.95638 43.2319 0.998383 42.8329C1.01939 42.4128 1.29241 42.1608 1.69143 42.1188C1.83845 42.0978 2.00646 42.1188 2.15347 42.1188C5.2407 42.1188 8.34893 42.1188 11.4362 42.1188C11.6252 42.1188 11.8142 42.1188 12.0452 42.1188C12.3182 40.6697 13.0113 39.5146 14.1874 38.6746C15.0904 38.0445 16.0985 37.7295 17.1906 37.7505C19.2907 37.7715 21.5799 39.0946 22.252 42.1188ZM20.8028 42.8959C20.8239 40.8587 19.2067 39.2206 17.1696 39.1786C15.1534 39.1576 13.4733 40.7957 13.4523 42.8119C13.4313 44.849 15.0694 46.5082 17.0856 46.5292C19.1017 46.5292 20.7818 44.891 20.8028 42.8959Z" fill="#949090"/>
<path d="M23.0712 6.83653C22.8402 6.83653 22.6091 6.83653 22.3991 6.83653C15.6366 6.83653 8.89512 6.83653 2.13262 6.83653C1.96461 6.83653 1.7756 6.85754 1.60759 6.81553C1.22956 6.75253 0.977539 6.50051 0.977539 6.10148C0.977539 5.70245 1.20856 5.45043 1.60759 5.36643C1.7756 5.34542 1.98561 5.36643 2.17463 5.36643C8.93713 5.36643 15.7206 5.36643 22.4831 5.38743C22.9242 5.38743 23.0712 5.28242 23.1552 4.84139C23.8272 1.90117 26.9355 0.242047 29.7077 1.29212C30.0647 1.41813 30.3797 1.62815 30.3167 2.02718C30.2957 2.2582 30.1067 2.59422 29.8967 2.67823C29.6657 2.78323 29.3296 2.69923 29.0566 2.63622C27.2295 2.09018 25.3393 3.01425 24.7093 4.77838C24.2683 6.01747 24.4783 7.15156 25.2763 8.20164C25.3603 8.30664 25.4653 8.41165 25.5494 8.51666C25.8014 8.85268 25.8014 9.20971 25.5073 9.52473C25.2343 9.81875 24.7933 9.79775 24.4783 9.50373C23.8692 8.93669 23.4702 8.22264 23.2392 7.40358C23.1762 7.21456 23.1342 7.04655 23.0712 6.83653Z" fill="#949090"/>
<path d="M11.2245 23.7429C12.4006 23.7429 13.5347 23.7429 14.6688 23.7429C14.8578 23.7429 15.1098 23.7219 15.2148 23.8269C15.4038 24.0369 15.6349 24.3309 15.6349 24.5829C15.6349 25.003 15.2988 25.213 14.8788 25.213C13.8707 25.213 12.8417 25.213 11.8336 25.213C11.6446 25.213 11.4556 25.213 11.2245 25.213C10.9095 26.9351 10.0275 28.2372 8.49434 29.0353C7.38126 29.6233 6.20517 29.7703 4.98708 29.4763C2.5089 28.9093 0.870774 26.6831 0.996783 24.0999C1.12279 21.6637 3.11794 19.6056 5.61713 19.3536C7.67528 19.1225 10.4895 20.2776 11.2245 23.7429ZM2.42489 24.4569C2.40389 26.4731 4.06301 28.1532 6.07916 28.1532C8.11631 28.1532 9.77543 26.5361 9.77543 24.4989C9.79643 22.4618 8.13731 20.8027 6.12116 20.8027C4.10501 20.8027 2.44589 22.4198 2.42489 24.4569Z" fill="#949090"/>
<path d="M40.6495 6.83632C38.5703 6.83632 36.4912 6.83632 34.412 6.83632C34.265 6.83632 34.097 6.85733 33.95 6.81532C33.572 6.73132 33.3199 6.4793 33.3199 6.08027C33.3199 5.68124 33.572 5.45022 33.95 5.36622C34.055 5.34521 34.16 5.34521 34.265 5.34521C38.5283 5.34521 42.7916 5.34521 47.055 5.34521C47.643 5.34521 48 5.63924 48 6.08027C48 6.5423 47.643 6.79432 47.034 6.81532C46.9289 6.81532 46.8239 6.81532 46.7189 6.81532C44.7028 6.83632 42.6656 6.83632 40.6495 6.83632Z" fill="#949090"/>
</svg>
