<svg width="622" height="489" viewBox="0 0 622 489" fill="none" xmlns="http://www.w3.org/2000/svg">
<path d="M311 488.011C482.761 488.011 622 482.635 622 476.004C622 469.373 482.761 463.998 311 463.998C139.239 463.998 0 469.373 0 476.004C0 482.635 139.239 488.011 311 488.011Z" fill="url(#paint0_linear)"/>
<path d="M451.993 249.968L393.378 474.421C392.961 476.172 391.377 477.423 389.542 477.423C387.375 477.423 385.54 475.672 385.54 473.421C385.54 473.171 385.54 472.837 385.624 472.587L432.565 249.884H451.993V249.968Z" fill="url(#paint1_linear)"/>
<path d="M530.201 249.968L588.816 474.421C589.233 476.172 590.817 477.423 592.651 477.423C594.819 477.423 596.653 475.672 596.653 473.421C596.653 473.171 596.653 472.837 596.57 472.587L549.628 249.884H530.201V249.968Z" fill="url(#paint2_linear)"/>
<path d="M184.766 249.968L126.151 474.421C125.734 476.172 124.15 477.423 122.316 477.423C120.148 477.423 118.314 475.672 118.314 473.421C118.314 473.171 118.314 472.837 118.397 472.587L165.339 249.884H184.766V249.968Z" fill="url(#paint3_linear)"/>
<path d="M242.296 249.968L300.911 474.421C301.328 476.172 302.912 477.423 304.746 477.423C306.914 477.423 308.748 475.672 308.748 473.421C308.748 473.171 308.748 472.837 308.665 472.587L261.723 249.884H242.296V249.968Z" fill="url(#paint4_linear)"/>
<path d="M562.135 249.967H150.831C148.497 249.967 146.662 248.133 146.662 245.798C146.662 243.464 148.497 241.629 150.831 241.629H562.135C564.47 241.629 566.304 243.464 566.304 245.798C566.304 248.05 564.386 249.967 562.135 249.967Z" fill="url(#paint5_linear)"/>
<path d="M562.135 241.629C564.469 241.629 566.304 243.464 566.304 245.798C566.304 248.133 564.469 249.967 562.135 249.967H423.06V241.629H562.135Z" fill="#5B73E8"/>
<path d="M483.509 156.668H468.584V241.713H483.509V156.668Z" fill="#85EF47"/>
<path d="M511.274 156.668H483.51V241.713H511.274V156.668Z" fill="#00BD56"/>
<path d="M478.34 169.091H473.754V218.201H478.34V169.091Z" fill="white"/>
<path d="M476.006 229.29C477.249 229.29 478.257 228.282 478.257 227.039C478.257 225.796 477.249 224.788 476.006 224.788C474.762 224.788 473.754 225.796 473.754 227.039C473.754 228.282 474.762 229.29 476.006 229.29Z" fill="#00BD56"/>
<path d="M468.585 156.667H453.66V241.713H468.585V156.667Z" fill="#5893D4"/>
<path d="M463.416 169.09H458.83V218.2H463.416V169.09Z" fill="white"/>
<path d="M461.081 229.289C462.324 229.289 463.332 228.281 463.332 227.038C463.332 225.794 462.324 224.786 461.081 224.786C459.838 224.786 458.83 225.794 458.83 227.038C458.83 228.281 459.838 229.289 461.081 229.289Z" fill="#1F3C88"/>
<path d="M453.66 156.667H438.735V241.713H453.66V156.667Z" fill="#FFD700"/>
<path d="M448.407 169.09H443.821V218.2H448.407V169.09Z" fill="white"/>
<path d="M446.155 229.289C447.398 229.289 448.406 228.281 448.406 227.038C448.406 225.794 447.398 224.786 446.155 224.786C444.912 224.786 443.904 225.794 443.904 227.038C443.904 228.281 444.912 229.289 446.155 229.289Z" fill="#C6A000"/>
<path d="M389.709 221.785C386.457 221.785 383.789 224.453 383.789 227.705C383.789 230.956 386.457 233.625 389.709 233.625C392.96 233.625 395.629 230.956 395.629 227.705C395.545 224.453 392.96 221.785 389.709 221.785ZM389.709 230.039C388.375 230.039 387.374 228.955 387.374 227.705C387.374 226.454 388.458 225.37 389.709 225.37C391.043 225.37 392.043 226.454 392.043 227.705C392.043 228.955 390.959 230.039 389.709 230.039Z" fill="url(#paint6_linear)"/>
<path d="M392.627 217.699H416.056C417.057 217.699 417.807 218.449 417.807 219.45V234.875C417.807 238.543 414.806 241.628 411.054 241.628H397.547C393.878 241.628 390.793 238.627 390.793 234.875V219.45C390.876 218.449 391.627 217.699 392.627 217.699Z" fill="url(#paint7_linear)"/>
<path d="M337.097 416.474H340.265C340.265 407.386 347.686 399.965 356.774 399.965C365.862 399.965 373.283 407.386 373.283 416.474H376.451C376.451 405.635 367.613 396.797 356.774 396.797C345.852 396.797 337.097 405.635 337.097 416.474Z" fill="#080957"/>
<path d="M407.802 411.722H315.752V477.424H407.802V411.722Z" fill="#8AACFF"/>
<path d="M359.943 450.91H353.523C350.021 450.91 347.186 448.075 347.186 444.573H366.363C366.363 448.075 363.528 450.91 359.943 450.91Z" fill="white"/>
<path d="M407.801 443.737H315.752V445.321H407.801V443.737Z" fill="#080957"/>
<path d="M407.802 411.722H398.547V477.424H407.802V411.722Z" fill="#080957"/>
<path d="M531.785 377.118C531.785 377.118 549.878 344.434 584.146 352.521C584.146 352.521 588.982 396.045 539.205 415.055C539.289 415.138 546.126 382.454 531.785 377.118Z" fill="#5B73E8"/>
<path d="M538.622 393.126L553.63 379.786L555.714 368.28L556.464 368.446L554.547 378.952L564.636 369.947L566.72 358.358L567.47 358.524L565.553 369.113L576.392 359.525L576.892 360.109L561.134 374.199L572.056 376.201L571.889 376.951L560.3 374.867L548.46 385.372L559.383 387.373L559.216 388.124L547.626 386.039L538.955 393.71L538.622 393.126Z" fill="#C4C4C4"/>
<path d="M500.852 480.091H535.954C538.538 480.091 540.79 478.173 541.123 475.588L548.127 422.393C548.627 418.891 546.126 415.723 542.624 415.223C542.374 415.223 542.04 415.139 541.79 415.139H495.015C491.513 415.139 488.595 417.974 488.595 421.56C488.595 421.81 488.595 422.143 488.678 422.393L495.682 475.588C496.099 478.173 498.267 480.091 500.852 480.091Z" fill="url(#paint8_linear)"/>
<path d="M537.955 415.139C537.955 415.139 561.384 393.377 542.291 379.87C523.197 366.362 534.703 358.442 543.875 346.519C553.046 334.595 531.952 325.424 538.705 310.332C545.459 295.241 519.612 281.317 515.693 305.58C511.774 329.843 531.034 332.011 518.444 353.772C505.854 375.534 523.947 401.048 518.444 415.139H537.955Z" fill="#A393EB"/>
<path d="M529.95 415.389C530.034 415.222 542.123 394.878 532.118 383.622C522.029 372.282 521.112 356.857 529.867 347.019C534.536 341.766 532.535 335.512 530.367 328.842C528.199 322.089 525.698 314.501 529.95 306.664L529.283 306.247C524.864 314.334 527.449 322.172 529.7 329.092C531.868 335.763 533.786 341.599 529.367 346.435C520.278 356.607 521.195 372.366 531.534 384.039C541.123 394.794 529.366 414.638 529.283 414.805L529.95 415.389Z" fill="#5E63B6"/>
<path d="M518.444 415.139C518.444 415.139 520.112 371.199 478.339 351.688C436.567 332.178 423.06 369.448 441.403 383.455C459.746 397.463 488.095 388.458 502.519 415.223L518.444 415.139Z" fill="#FA67AB"/>
<path d="M512.025 415.224L512.775 415.141C512.775 415.058 511.191 403.885 502.687 391.962C494.849 380.956 479.257 367.115 449.742 363.363L449.658 364.114C478.841 367.782 494.265 381.54 502.02 392.379C510.441 404.052 511.942 415.058 512.025 415.224Z" fill="#FFD7F1"/>
<path d="M223.703 214.032L418.224 214.865C423.06 214.865 427.062 210.113 427.062 205.277V76.8749C427.062 71.2885 422.56 66.7861 416.974 66.7861H225.288C220.702 66.7861 216.95 70.5381 216.95 75.1239V207.361C216.95 211.03 219.951 214.032 223.703 214.032Z" fill="url(#paint9_linear)"/>
<path d="M420.725 205.277C420.725 210.029 416.973 214.615 412.304 214.865L243.13 214.198L223.786 214.115C220.034 214.115 217.033 211.113 217.033 207.361V192.687H420.809V205.277H420.725Z" fill="#F0F0F0"/>
<path d="M318.838 208.862C321.693 208.862 324.007 206.548 324.007 203.693C324.007 200.838 321.693 198.523 318.838 198.523C315.983 198.523 313.668 200.838 313.668 203.693C313.668 206.548 315.983 208.862 318.838 208.862Z" fill="white"/>
<path d="M355.023 214.615L357.024 231.541C357.608 236.46 354.023 240.962 349.104 241.546C348.77 241.546 348.437 241.629 348.103 241.629H279.483C279.483 237.711 282.651 234.459 286.653 234.459H311.167C315.419 234.459 318.921 230.957 318.921 226.705V214.448L355.023 214.615Z" fill="url(#paint10_linear)"/>
<path d="M279.399 241.629H348.02C353.022 241.629 357.024 237.627 357.024 232.625C357.024 232.291 357.024 231.958 356.941 231.624L356.858 231.124C356.191 235.543 352.355 238.711 347.936 238.711H279.983C279.65 239.545 279.399 240.546 279.399 241.629Z" fill="url(#paint11_linear)"/>
<path d="M350.437 214.615L352.438 231.624C353.022 236.543 349.437 241.045 344.518 241.629C344.184 241.629 343.85 241.712 343.434 241.712H348.019C353.022 241.712 357.024 237.71 357.024 232.708C357.024 232.374 357.024 232.041 356.941 231.707L354.94 214.781L350.437 214.615Z" fill="#866EC7"/>
<path d="M326.841 241.629H215.198V234.459H319.754C323.59 234.459 326.841 237.627 326.841 241.629Z" fill="url(#paint12_linear)"/>
<path d="M411.887 214.865H418.224C423.06 214.865 427.062 210.113 427.062 205.277V76.8749C427.062 71.2885 422.56 66.7861 416.973 66.7861H410.637C416.223 66.7861 420.725 71.2885 420.725 76.8749V205.277C420.725 210.113 416.723 214.865 411.887 214.865Z" fill="#5B73E8"/>
<path d="M418.224 214.865H411.887C416.723 214.865 420.726 210.113 420.726 205.277V192.603L427.062 191.936V205.277C427.062 210.113 423.143 214.865 418.224 214.865Z" fill="url(#paint13_linear)"/>
<path d="M362.194 48.6091C362.194 55.2793 367.614 60.6989 374.284 60.6989C380.954 60.6989 386.374 55.2793 386.374 48.6091C386.374 41.9389 380.954 36.5193 374.284 36.5193C367.614 36.5193 362.194 41.8555 362.194 48.6091Z" fill="url(#paint14_linear)"/>
<path d="M371.032 43.7736C371.032 45.5245 372.449 46.942 374.2 46.942C375.951 46.942 377.369 45.5245 377.369 43.7736C377.369 42.0227 375.951 40.6052 374.2 40.6052C372.449 40.6052 371.032 42.0227 371.032 43.7736Z" fill="white"/>
<path d="M366.113 57.5304C370.699 61.6993 377.786 61.6993 382.372 57.5304C381.288 52.6111 378.036 49.0259 374.284 49.0259C370.532 49.0259 367.197 52.6111 366.113 57.5304Z" fill="white"/>
<path d="M260.473 70.6206C269.176 70.6206 276.232 63.5653 276.232 54.8622C276.232 46.1591 269.176 39.1038 260.473 39.1038C251.77 39.1038 244.715 46.1591 244.715 54.8622C244.715 63.5653 251.77 70.6206 260.473 70.6206Z" fill="url(#paint15_linear)"/>
<path d="M254.053 55.8634V60.0323C254.053 62.0334 255.637 63.6176 257.638 63.6176H263.141C265.142 63.6176 266.727 62.0334 266.727 60.0323V55.8634C266.727 54.6127 266.06 53.4454 264.976 52.7784V50.2771C264.976 47.6924 262.975 45.6079 260.39 45.6079C257.805 45.6079 255.721 47.609 255.721 50.1937V50.2771V52.8618C254.72 53.4455 254.053 54.6127 254.053 55.8634ZM258.639 57.1975C258.639 56.1969 259.389 55.4465 260.39 55.4465C261.39 55.4465 262.141 56.1969 262.141 57.1975C262.141 57.9479 261.641 58.6149 260.89 58.865V59.8656C260.89 60.1991 260.64 60.4492 260.307 60.3658C259.973 60.3658 259.806 60.1157 259.806 59.8656V58.865C259.139 58.6983 258.722 58.0312 258.639 57.1975ZM257.722 52.2782C257.388 52.2782 257.055 52.3615 256.805 52.4449V50.2771C256.805 48.1926 258.472 46.5251 260.557 46.5251C262.641 46.5251 264.309 48.1926 264.309 50.2771V52.4449C263.975 52.3615 263.642 52.2782 263.392 52.2782H257.722Z" fill="white"/>
<path d="M303.829 43.773C313.868 43.773 322.006 35.6351 322.006 25.5966C322.006 15.558 313.868 7.42017 303.829 7.42017C293.791 7.42017 285.653 15.558 285.653 25.5966C285.653 35.6351 293.791 43.773 303.829 43.773Z" fill="url(#paint16_linear)"/>
<path d="M314.168 17.9255H293.491V33.1837H314.168V17.9255Z" fill="white"/>
<path d="M293.491 17.9255L301.745 25.5129C302.912 26.5969 304.747 26.5969 305.997 25.5129L314.252 17.9255H293.491Z" fill="#CDD9FF"/>
<path d="M305.664 25.8471L314.168 33.1843L306.247 25.2634L305.664 25.8471Z" fill="#CDD9FF"/>
<path d="M301.412 25.2634L293.491 33.1843L301.995 25.8471L301.412 25.2634Z" fill="#CDD9FF"/>
<path d="M350.272 23.0123C356.626 23.0123 361.778 17.8608 361.778 11.5062C361.778 5.15149 356.626 0 350.272 0C343.917 0 338.766 5.15149 338.766 11.5062C338.766 17.8608 343.917 23.0123 350.272 23.0123Z" fill="url(#paint17_linear)"/>
<path d="M348.27 16.3412C347.936 16.3412 347.686 16.1745 347.436 16.0077L344.101 12.6726C343.601 12.2557 343.601 11.4219 344.101 11.005C344.518 10.5048 345.352 10.5048 345.769 11.005L348.27 13.423L354.69 7.00289C355.107 6.50262 355.941 6.50262 356.358 7.00289C356.858 7.41978 356.858 8.25356 356.358 8.67045L349.104 15.9243C348.854 16.1745 348.603 16.3412 348.27 16.3412Z" fill="white"/>
<path d="M346.687 77.4577C347.792 77.4577 348.688 76.5618 348.688 75.4566C348.688 74.3515 347.792 73.4556 346.687 73.4556C345.581 73.4556 344.686 74.3515 344.686 75.4566C344.686 76.5618 345.581 77.4577 346.687 77.4577Z" fill="url(#paint18_linear)"/>
<path d="M336.598 61.9506C338.808 61.9506 340.6 60.1588 340.6 57.9484C340.6 55.7381 338.808 53.9463 336.598 53.9463C334.388 53.9463 332.596 55.7381 332.596 57.9484C332.596 60.1588 334.388 61.9506 336.598 61.9506Z" fill="url(#paint19_linear)"/>
<path d="M335.347 43.3567C336.867 43.3567 338.099 42.1248 338.099 40.6052C338.099 39.0856 336.867 37.8538 335.347 37.8538C333.828 37.8538 332.596 39.0856 332.596 40.6052C332.596 42.1248 333.828 43.3567 335.347 43.3567Z" fill="url(#paint20_linear)"/>
<path d="M351.439 60.2826C352.129 60.2826 352.689 59.7226 352.689 59.0319C352.689 58.3412 352.129 57.7812 351.439 57.7812C350.748 57.7812 350.188 58.3412 350.188 59.0319C350.188 59.7226 350.748 60.2826 351.439 60.2826Z" fill="url(#paint21_linear)"/>
<path d="M296.41 65.2848C297.285 65.2848 297.994 64.5756 297.994 63.7006C297.994 62.8257 297.285 62.1165 296.41 62.1165C295.535 62.1165 294.825 62.8257 294.825 63.7006C294.825 64.5756 295.535 65.2848 296.41 65.2848Z" fill="url(#paint22_linear)"/>
<path d="M282.819 60.2826C283.51 60.2826 284.069 59.7226 284.069 59.0319C284.069 58.3412 283.51 57.7812 282.819 57.7812C282.128 57.7812 281.568 58.3412 281.568 59.0319C281.568 59.7226 282.128 60.2826 282.819 60.2826Z" fill="url(#paint23_linear)"/>
<path d="M315.586 60.5321C316.415 60.5321 317.087 59.8602 317.087 59.0313C317.087 58.2025 316.415 57.5305 315.586 57.5305C314.757 57.5305 314.085 58.2025 314.085 59.0313C314.085 59.8602 314.757 60.5321 315.586 60.5321Z" fill="url(#paint24_linear)"/>
<path d="M317.087 76.2079C317.916 76.2079 318.588 75.536 318.588 74.7071C318.588 73.8782 317.916 73.2063 317.087 73.2063C316.258 73.2063 315.586 73.8782 315.586 74.7071C315.586 75.536 316.258 76.2079 317.087 76.2079Z" fill="url(#paint25_linear)"/>
<path d="M288.572 53.6956C289.954 53.6956 291.073 52.5757 291.073 51.1942C291.073 49.8128 289.954 48.6929 288.572 48.6929C287.191 48.6929 286.071 49.8128 286.071 51.1942C286.071 52.5757 287.191 53.6956 288.572 53.6956Z" fill="url(#paint26_linear)"/>
<path d="M324.675 47.525C325.227 47.525 325.675 47.077 325.675 46.5245C325.675 45.9719 325.227 45.5239 324.675 45.5239C324.122 45.5239 323.674 45.9719 323.674 46.5245C323.674 47.077 324.122 47.525 324.675 47.525Z" fill="url(#paint27_linear)"/>
<path d="M357.609 34.7687C358.484 34.7687 359.193 34.0594 359.193 33.1845C359.193 32.3096 358.484 31.6003 357.609 31.6003C356.734 31.6003 356.024 32.3096 356.024 33.1845C356.024 34.0594 356.734 34.7687 357.609 34.7687Z" fill="url(#paint28_linear)"/>
<path d="M188.852 444.655C188.852 444.655 192.02 440.069 202.359 452.575C209.446 461.163 219.868 454.993 224.204 458.912C225.455 460.163 226.288 461.83 226.622 463.581C227.372 467.417 224.871 471.169 221.036 471.919C220.535 472.003 220.119 472.086 219.618 472.086H204.86C201.442 472.169 198.023 471.502 194.855 470.252C193.854 469.835 192.854 469.585 191.77 469.585H184.683C183.099 469.668 181.598 470.252 180.347 471.252C178.846 472.419 177.012 473.086 175.094 473.253C172.76 473.42 170.509 473.337 168.174 473.086C166.923 473.003 165.673 472.67 164.505 472.253C162.754 471.336 161.587 469.585 161.254 467.667C160.503 463.415 158.335 456.911 160.67 448.573C161.337 446.322 163.421 444.738 165.756 444.738L188.852 444.655Z" fill="#151130"/>
<path d="M188.851 444.655C188.851 444.655 190.936 444.655 193.02 448.657C195.272 452.992 189.018 455.16 179.597 454.243C170.175 453.326 164.839 444.655 164.839 444.655H188.851Z" fill="#FFB192"/>
<path d="M145.412 282.15L242.547 283.818C251.969 283.985 259.473 291.739 259.39 301.161C259.39 302.328 259.223 303.412 258.973 304.579L228.123 444.738H204.443L215.116 332.677C215.199 331.427 214.282 330.26 213.031 330.176C212.865 330.176 212.698 330.176 212.614 330.176C198.107 331.677 131.404 338.431 107.725 339.848C81.1273 341.432 70.3716 282.234 70.3716 282.234L145.412 282.15Z" fill="url(#paint29_linear)"/>
<path d="M212.531 330.093L188.851 444.654H164.839L172.926 334.012L212.531 330.093Z" fill="url(#paint30_linear)" stroke="black" stroke-miterlimit="10"/>
<path d="M228.04 444.655C228.04 444.655 231.625 440.069 241.964 452.575C249.051 461.163 259.473 454.993 263.809 458.912C265.06 460.163 265.893 461.83 266.227 463.581C266.977 467.417 264.476 471.169 260.641 471.919C260.14 472.003 259.723 472.086 259.223 472.086H243.965C240.63 472.086 237.378 471.419 234.293 470.168C233.376 469.751 232.375 469.585 231.291 469.585H224.288C221.62 469.585 219.118 470.919 217.701 473.17H207.612C204.277 473.17 201.442 470.835 200.858 467.584C200.025 462.664 199.941 454.827 204.36 444.655H228.04Z" fill="#352961"/>
<path d="M228.039 444.655C228.039 444.655 230.541 444.655 232.625 448.657C234.876 452.992 228.623 455.16 219.201 454.243C209.78 453.326 204.443 444.655 204.443 444.655H228.039Z" fill="#FFB192"/>
<path d="M148.58 132.489C148.58 132.489 165.506 143.578 173.677 148.08C181.848 152.583 198.857 220.702 203.109 221.453C207.362 222.203 240.879 221.87 240.879 221.87L249.134 231.959C249.134 231.959 210.863 244.549 193.104 246.967C175.344 249.385 158.919 195.189 158.919 195.189C158.919 195.189 162.087 221.453 153.333 231.125C143.744 241.714 143.077 269.229 145.412 282.235C145.412 282.235 110.81 295.909 70.2881 282.235C70.2881 282.235 68.7039 202.776 70.2881 177.679C71.8722 152.583 83.3784 131.571 116.813 129.404L148.58 132.489Z" fill="url(#paint31_linear)"/>
<path d="M70.2882 282.151C70.2882 282.151 70.0381 270.061 69.8713 253.802L119.565 246.965L126.819 206.944L145.162 185.349C145.162 185.349 154.917 198.523 151.582 208.861C148.247 219.2 134.489 226.371 137.741 236.96C140.993 247.549 127.652 257.221 133.739 268.31C139.825 279.399 145.412 282.234 145.412 282.234C145.412 282.234 110.81 295.825 70.2882 282.151Z" fill="url(#paint32_linear)"/>
<path d="M151.582 170.509L158.919 195.188L159.169 197.523C159.586 202.692 160.17 215.366 157.001 224.454C158.836 216.7 151.582 170.509 151.582 170.509Z" fill="url(#paint33_linear)"/>
<path d="M249.134 231.958C252.803 231.958 256.555 231.625 260.14 231.041C264.226 230.207 265.81 232.792 268.311 232.792C270.813 232.792 267.644 227.539 259.89 224.454C252.136 221.369 241.797 222.953 241.797 222.953L249.134 231.958Z" fill="#FFB192"/>
<path d="M152.332 121.231C153.415 123.315 154.916 125.817 156.334 128.652C160.836 129.319 166.589 129.235 168.674 124.983C171.592 119.063 173.093 97.8016 173.593 89.7973C173.009 90.1309 172.426 90.4644 171.759 90.7145C168.173 92.2987 164.088 92.0486 160.669 90.1309C158.918 89.2137 156.751 88.8802 155.583 92.2153C153.499 98.3019 159.169 98.7188 158.001 101.47C156.834 104.222 146.578 110.475 152.332 121.231Z" fill="#FFB192"/>
<path d="M171.759 90.7156C168.173 92.2998 164.088 92.0496 160.669 90.1319C158.918 89.2148 156.751 88.8813 155.667 92.2164C153.582 98.303 159.252 98.7199 158.085 101.471C156.917 104.223 146.662 110.476 152.415 121.232C158.168 131.988 172.509 154.25 147.829 165.339C123.149 176.428 159.752 187.601 150.997 206.694C142.243 225.788 126.318 218.201 130.737 234.543C135.156 250.885 130.32 262.724 106.057 267.143C81.7937 271.562 65.9519 263.975 56.7803 239.295C47.6087 214.615 67.536 217.867 63.9508 181.681C60.3655 145.495 84.2116 135.156 97.302 128.402C110.392 121.649 101.304 112.394 104.472 86.9636C107.641 61.5333 124.066 52.4451 137.073 52.4451C150.08 52.4451 168.173 69.5376 179.179 72.2057C190.185 74.8738 182.514 82.7113 177.178 87.2137C175.594 88.5477 173.76 89.7984 171.759 90.7156Z" fill="url(#paint34_linear)"/>
<path d="M134.822 346.269L129.403 475.172C129.403 476.172 128.569 476.923 127.568 476.923C126.568 476.923 125.818 476.172 125.734 475.172L120.398 346.269H134.822Z" fill="url(#paint35_linear)"/>
<path d="M188.685 346.269L217.7 473.254C218.034 474.838 217.033 476.422 215.449 476.839C215.199 476.923 215.032 476.923 214.782 476.923C213.448 476.923 212.281 476.005 211.947 474.755L175.594 346.269H188.685Z" fill="url(#paint36_linear)"/>
<path d="M54.1121 345.436L24.9298 473.254C24.5963 474.838 25.5968 476.422 27.181 476.839C27.4312 476.923 27.5979 476.923 27.848 476.923C29.1821 476.923 30.3494 476.005 30.6829 474.755L67.0357 345.436H54.1121Z" fill="#866EC7"/>
<path d="M112.227 218.367H26.5977L28.1818 315.586C28.1818 332.512 40.355 346.269 57.2808 346.269H200.357C201.942 346.269 203.192 345.018 203.192 343.434C203.192 341.85 201.942 340.599 200.357 340.599H138.324C127.819 340.599 119.064 332.428 118.48 321.923L112.227 218.367Z" fill="url(#paint37_linear)"/>
<path d="M112.56 321.589L104.889 218.367H112.226L118.48 321.839C119.147 332.345 127.818 340.516 138.324 340.516H200.357C201.941 340.516 203.192 341.767 203.192 343.351C203.192 344.935 201.941 346.186 200.357 346.186H136.656C122.982 346.269 113.31 335.263 112.56 321.589Z" fill="#FFEEF6"/>
<path d="M114.894 346.269L105.056 474.171C104.972 475.589 105.973 476.756 107.39 476.923C107.474 476.923 107.557 476.923 107.557 476.923C108.808 476.923 109.892 476.005 110.059 474.671L125.9 346.269H114.894Z" fill="url(#paint38_linear)"/>
<path d="M414.305 73.1211H223.286V186.265H414.305V73.1211Z" fill="#F0F0F0"/>
<path d="M362.194 186.265H275.48V89.13C275.48 85.1278 278.732 81.7927 282.818 81.7927H354.94C358.942 81.7927 362.277 85.0445 362.277 89.13L362.194 186.265Z" fill="white"/>
<path d="M306.747 104.221C306.747 110.891 312.167 116.311 318.837 116.311C325.507 116.311 330.927 110.891 330.927 104.221C330.927 97.5509 325.507 92.1313 318.837 92.1313C312.167 92.0479 306.747 97.4675 306.747 104.221C306.747 104.138 306.747 104.138 306.747 104.221Z" fill="url(#paint39_linear)"/>
<path d="M315.586 99.3844C315.586 101.135 317.003 102.553 318.754 102.553C320.505 102.553 321.922 101.135 321.922 99.3844C321.922 97.6335 320.505 96.2161 318.754 96.2161C317.086 96.2161 315.586 97.6335 315.586 99.3844Z" fill="white"/>
<path d="M310.666 113.143C315.252 117.312 322.339 117.312 326.925 113.143C325.841 108.224 322.589 104.639 318.837 104.639C315.085 104.639 311.75 108.224 310.666 113.143Z" fill="white"/>
<path d="M338.848 130.486C338.848 132.07 337.597 133.32 336.013 133.32H291.823C290.238 133.32 288.988 132.07 288.988 130.486C288.988 128.901 290.238 127.651 291.823 127.651H336.013C337.597 127.651 338.848 128.901 338.848 130.486Z" fill="#F0F0F0"/>
<path d="M348.686 130.486C348.686 132.07 347.436 133.32 345.851 133.32C344.267 133.32 343.017 132.07 343.017 130.486C343.017 128.901 344.267 127.651 345.851 127.651C347.436 127.651 348.686 128.901 348.686 130.486Z" fill="#F0F0F0"/>
<path d="M348.686 140.825C348.686 142.409 347.436 143.659 345.851 143.659C344.267 143.659 343.017 142.409 343.017 140.825C343.017 139.24 344.267 137.99 345.851 137.99C347.436 137.99 348.686 139.24 348.686 140.825Z" fill="#F0F0F0"/>
<path d="M338.848 140.825C338.848 142.409 337.597 143.659 336.013 143.659H291.823C290.238 143.659 288.988 142.409 288.988 140.825C288.988 139.24 290.238 137.99 291.823 137.99H336.013C337.597 137.99 338.848 139.24 338.848 140.825Z" fill="#F0F0F0"/>
<path d="M326.091 170.34H311.083C308.332 170.34 306.08 168.088 306.08 165.337C306.08 162.585 308.332 160.334 311.083 160.334H326.091C328.843 160.334 331.094 162.585 331.094 165.337C331.094 168.088 328.843 170.34 326.091 170.34Z" fill="#F0F0F0"/>
<defs>
<linearGradient id="paint0_linear" x1="311.021" y1="343.781" x2="311.021" y2="509.7" gradientUnits="userSpaceOnUse">
<stop stop-color="#866EC7"/>
<stop offset="1" stop-color="#866EC7" stop-opacity="0"/>
</linearGradient>
<linearGradient id="paint1_linear" x1="422.516" y1="518.972" x2="343.94" y2="238.535" gradientUnits="userSpaceOnUse">
<stop stop-color="#866EC7"/>
<stop offset="1" stop-color="#F2C0FF"/>
</linearGradient>
<linearGradient id="paint2_linear" x1="565.301" y1="442.941" x2="487.357" y2="162.137" gradientUnits="userSpaceOnUse">
<stop stop-color="#866EC7"/>
<stop offset="1" stop-color="#F2C0FF"/>
</linearGradient>
<linearGradient id="paint3_linear" x1="164.118" y1="615.026" x2="42.3432" y2="405.145" gradientUnits="userSpaceOnUse">
<stop stop-color="#866EC7"/>
<stop offset="1" stop-color="#F2C0FF"/>
</linearGradient>
<linearGradient id="paint4_linear" x1="281.395" y1="481.38" x2="159.627" y2="271.522" gradientUnits="userSpaceOnUse">
<stop stop-color="#866EC7"/>
<stop offset="1" stop-color="#F2C0FF"/>
</linearGradient>
<linearGradient id="paint5_linear" x1="-61.5223" y1="245.785" x2="483.185" y2="245.785" gradientUnits="userSpaceOnUse">
<stop stop-color="#BF9FEE"/>
<stop offset="1" stop-color="#F2C0FF"/>
</linearGradient>
<linearGradient id="paint6_linear" x1="-27.4203" y1="227.696" x2="-40.6469" y2="227.696" gradientUnits="userSpaceOnUse">
<stop stop-color="#D30746"/>
<stop offset="1" stop-color="#FF1F5A"/>
</linearGradient>
<linearGradient id="paint7_linear" x1="404.35" y1="242.379" x2="404.35" y2="223.733" gradientUnits="userSpaceOnUse">
<stop stop-color="#FF1F5A"/>
<stop offset="1" stop-color="#FF6C7E"/>
</linearGradient>
<linearGradient id="paint8_linear" x1="231.397" y1="447.6" x2="160.373" y2="447.6" gradientUnits="userSpaceOnUse">
<stop stop-color="#71397C"/>
<stop offset="1" stop-color="#C582D5"/>
</linearGradient>
<linearGradient id="paint9_linear" x1="170.307" y1="140.813" x2="385.448" y2="140.813" gradientUnits="userSpaceOnUse">
<stop stop-color="#BF9FEE"/>
<stop offset="1" stop-color="#F2C0FF"/>
</linearGradient>
<linearGradient id="paint10_linear" x1="318.241" y1="209.681" x2="318.241" y2="239.231" gradientUnits="userSpaceOnUse">
<stop stop-color="#866EC7"/>
<stop offset="1" stop-color="#F2C0FF"/>
</linearGradient>
<linearGradient id="paint11_linear" x1="316.767" y1="236.319" x2="436.236" y2="236.319" gradientUnits="userSpaceOnUse">
<stop stop-color="#866EC7"/>
<stop offset="1" stop-color="#F2C0FF"/>
</linearGradient>
<linearGradient id="paint12_linear" x1="51.7791" y1="238.037" x2="145.474" y2="238.037" gradientUnits="userSpaceOnUse">
<stop stop-color="#F2C0FF"/>
<stop offset="1" stop-color="#FFEEF6"/>
</linearGradient>
<linearGradient id="paint13_linear" x1="405.682" y1="146.928" x2="398.388" y2="133.838" gradientUnits="userSpaceOnUse">
<stop stop-color="#866EC7"/>
<stop offset="1" stop-color="#F2C0FF"/>
</linearGradient>
<linearGradient id="paint14_linear" x1="315.322" y1="48.6156" x2="339.501" y2="48.6156" gradientUnits="userSpaceOnUse">
<stop stop-color="#00C6FF"/>
<stop offset="1" stop-color="#0072FF"/>
</linearGradient>
<linearGradient id="paint15_linear" x1="425.407" y1="54.8536" x2="456.939" y2="54.8536" gradientUnits="userSpaceOnUse">
<stop stop-color="#FDC830"/>
<stop offset="1" stop-color="#F37335"/>
</linearGradient>
<linearGradient id="paint16_linear" x1="379.61" y1="25.5912" x2="416.037" y2="25.5912" gradientUnits="userSpaceOnUse">
<stop stop-color="#FF1F5A"/>
<stop offset="1" stop-color="#FFB5B3"/>
</linearGradient>
<linearGradient id="paint17_linear" x1="339.853" y1="11.5092" x2="362.904" y2="11.5092" gradientUnits="userSpaceOnUse">
<stop stop-color="#DBE42C"/>
<stop offset="1" stop-color="#6AD419"/>
</linearGradient>
<linearGradient id="paint18_linear" x1="346.704" y1="82.7764" x2="346.704" y2="71.4153" gradientUnits="userSpaceOnUse">
<stop stop-color="#0072FF"/>
<stop offset="1" stop-color="#00C6FF" stop-opacity="0"/>
</linearGradient>
<linearGradient id="paint19_linear" x1="335.319" y1="85.28" x2="337.011" y2="48.3237" gradientUnits="userSpaceOnUse">
<stop stop-color="#0072FF"/>
<stop offset="1" stop-color="#00C6FF" stop-opacity="0"/>
</linearGradient>
<linearGradient id="paint20_linear" x1="335.378" y1="36.8759" x2="335.378" y2="48.8121" gradientUnits="userSpaceOnUse">
<stop stop-color="#DBE42C" stop-opacity="0"/>
<stop offset="1" stop-color="#6AD419"/>
</linearGradient>
<linearGradient id="paint21_linear" x1="351.473" y1="66.2054" x2="351.473" y2="57.3252" gradientUnits="userSpaceOnUse">
<stop stop-color="#0072FF"/>
<stop offset="1" stop-color="#00C6FF" stop-opacity="0"/>
</linearGradient>
<linearGradient id="paint22_linear" x1="296.431" y1="61.9801" x2="296.431" y2="67.6597" gradientUnits="userSpaceOnUse">
<stop stop-color="#FDC830" stop-opacity="0"/>
<stop offset="1" stop-color="#F37335"/>
</linearGradient>
<linearGradient id="paint23_linear" x1="282.8" y1="55.8326" x2="282.8" y2="64.1878" gradientUnits="userSpaceOnUse">
<stop stop-color="#FDC830" stop-opacity="0"/>
<stop offset="1" stop-color="#F37335"/>
</linearGradient>
<linearGradient id="paint24_linear" x1="315.614" y1="64.8963" x2="315.614" y2="55.9476" gradientUnits="userSpaceOnUse">
<stop stop-color="#FF1F5A"/>
<stop offset="1" stop-color="#FFB5B3" stop-opacity="0"/>
</linearGradient>
<linearGradient id="paint25_linear" x1="317.093" y1="80.4615" x2="317.093" y2="71.5039" gradientUnits="userSpaceOnUse">
<stop stop-color="#FF1F5A"/>
<stop offset="1" stop-color="#FFB5B3" stop-opacity="0"/>
</linearGradient>
<linearGradient id="paint26_linear" x1="288.582" y1="48.6674" x2="288.582" y2="57.9271" gradientUnits="userSpaceOnUse">
<stop stop-color="#FDC830" stop-opacity="0"/>
<stop offset="1" stop-color="#F37335"/>
</linearGradient>
<linearGradient id="paint27_linear" x1="324.648" y1="52.113" x2="324.648" y2="44.987" gradientUnits="userSpaceOnUse">
<stop stop-color="#FF1F5A"/>
<stop offset="1" stop-color="#FFB5B3" stop-opacity="0"/>
</linearGradient>
<linearGradient id="paint28_linear" x1="357.633" y1="30.5859" x2="357.633" y2="39.5472" gradientUnits="userSpaceOnUse">
<stop stop-color="#DBE42C" stop-opacity="0"/>
<stop offset="1" stop-color="#6AD419"/>
</linearGradient>
<linearGradient id="paint29_linear" x1="165.315" y1="360.01" x2="164.896" y2="281.501" gradientUnits="userSpaceOnUse">
<stop stop-color="#774181"/>
<stop offset="1" stop-color="#352961"/>
</linearGradient>
<linearGradient id="paint30_linear" x1="215.575" y1="649.968" x2="172.306" y2="576.579" gradientUnits="userSpaceOnUse">
<stop stop-color="#774181"/>
<stop offset="1" stop-color="#352961"/>
</linearGradient>
<linearGradient id="paint31_linear" x1="296.413" y1="465.988" x2="213.453" y2="304.015" gradientUnits="userSpaceOnUse">
<stop stop-color="#B122E5"/>
<stop offset="1" stop-color="#FF63DE"/>
</linearGradient>
<linearGradient id="paint32_linear" x1="138.558" y1="382.669" x2="113.383" y2="299.418" gradientUnits="userSpaceOnUse">
<stop stop-color="#B122E5"/>
<stop offset="1" stop-color="#B122E5" stop-opacity="0"/>
</linearGradient>
<linearGradient id="paint33_linear" x1="532.093" y1="259.757" x2="553.033" y2="259.83" gradientUnits="userSpaceOnUse">
<stop stop-color="#B122E5"/>
<stop offset="1" stop-color="#B122E5" stop-opacity="0"/>
</linearGradient>
<linearGradient id="paint34_linear" x1="584.059" y1="480.245" x2="438.143" y2="443.757" gradientUnits="userSpaceOnUse">
<stop stop-color="#3C2A4B"/>
<stop offset="1" stop-color="#7C3DB2"/>
</linearGradient>
<linearGradient id="paint35_linear" x1="515.285" y1="-337.094" x2="583.773" y2="-338.697" gradientUnits="userSpaceOnUse">
<stop stop-color="#866EC7"/>
<stop offset="1" stop-color="#BF9FEE"/>
</linearGradient>
<linearGradient id="paint36_linear" x1="327.464" y1="-19.4101" x2="405.268" y2="-46.0553" gradientUnits="userSpaceOnUse">
<stop stop-color="#BF9FEE"/>
<stop offset="1" stop-color="#F2C0FF"/>
</linearGradient>
<linearGradient id="paint37_linear" x1="114.878" y1="341.79" x2="114.878" y2="232.562" gradientUnits="userSpaceOnUse">
<stop stop-color="#BF9FEE"/>
<stop offset="1" stop-color="#F2C0FF"/>
</linearGradient>
<linearGradient id="paint38_linear" x1="448.24" y1="1817.61" x2="408.183" y2="1813.29" gradientUnits="userSpaceOnUse">
<stop stop-color="#BF9FEE"/>
<stop offset="1" stop-color="#F2C0FF"/>
</linearGradient>
<linearGradient id="paint39_linear" x1="370.702" y1="104.185" x2="394.881" y2="104.185" gradientUnits="userSpaceOnUse">
<stop stop-color="#B122E5"/>
<stop offset="1" stop-color="#FF63DE"/>
</linearGradient>
</defs>
</svg>
