<svg width="25" height="25" viewBox="0 0 25 25" fill="none" xmlns="http://www.w3.org/2000/svg">
<path d="M2.04788 23.0291L1.97171 22.9521C1.34499 22.3287 0.848927 21.5871 0.510772 20.7704C0.172616 19.9537 -0.000638507 19.078 0.00198242 18.194C-0.000583267 17.31 0.172619 16.4344 0.510772 15.6177C0.848924 14.801 1.34503 14.0595 1.97171 13.4361L5.92776 9.47903C6.04447 9.36313 6.20273 9.29812 6.36722 9.29812C6.5317 9.29812 6.68898 9.36313 6.80569 9.47903L9.2803 11.955L7.09573 14.138L6.41019 13.4511L4.19534 15.6651C3.52411 16.3368 3.14651 17.2475 3.14651 18.197C3.14651 19.1466 3.52411 20.0573 4.19534 20.729L4.26858 20.804C4.60102 21.1364 4.99634 21.4002 5.43069 21.5801C5.86505 21.76 6.33066 21.8527 6.80081 21.8527C7.27096 21.8527 7.73657 21.76 8.17093 21.5801C8.60528 21.4002 8.99963 21.1364 9.33206 20.804L11.5459 18.59L10.8594 17.903L13.041 15.72L15.5166 18.195C15.6325 18.3117 15.6983 18.4696 15.6983 18.6341C15.6983 18.7985 15.6325 18.9563 15.5166 19.073L11.5606 23.0301C10.9375 23.6566 10.1963 24.1533 9.37991 24.4915C8.56354 24.8296 7.68835 25.0025 6.80472 25C5.92087 25.0023 5.04606 24.8293 4.22952 24.491C3.41298 24.1527 2.6711 23.6558 2.04788 23.0291ZM7.26956 17.729C6.99208 17.45 6.83694 17.0725 6.83694 16.679C6.83694 16.2855 6.99208 15.9081 7.26956 15.6291L7.92679 14.971L10.1104 12.788L11.71 11.188L13.9766 8.92007L14.6377 8.26297C14.7755 8.12498 14.939 8.01567 15.1192 7.94119C15.2994 7.86671 15.4925 7.82856 15.6875 7.82901C15.8824 7.82831 16.0758 7.86632 16.2559 7.94082C16.436 8.01532 16.5999 8.12479 16.7373 8.26297C17.0153 8.54171 17.1709 8.91936 17.1709 9.31301C17.1709 9.70667 17.0153 10.0843 16.7373 10.3631L16.0791 11.021L13.8116 13.288L12.2119 14.888L10.0293 17.072L9.3721 17.729C9.2342 17.8672 9.07004 17.9768 8.88968 18.0514C8.70932 18.1261 8.51652 18.1642 8.32132 18.164C8.12626 18.1651 7.9324 18.1277 7.75198 18.0535C7.57156 17.9793 7.40741 17.8701 7.26956 17.7321V17.729ZM17.1153 16.596L14.6397 14.12L16.9082 11.8531L17.5957 12.5401L19.8086 10.3271C20.4799 9.6552 20.8575 8.74433 20.8575 7.79458C20.8575 6.84483 20.4799 5.93385 19.8086 5.26199L19.7354 5.18801C19.4029 4.85556 19.0076 4.59181 18.5733 4.41189C18.1389 4.23197 17.6733 4.13943 17.2032 4.13943C16.733 4.13943 16.2674 4.23197 15.833 4.41189C15.3987 4.59181 15.0043 4.85556 14.6719 5.18801L12.459 7.402L13.1485 8.09207L10.8819 10.359L8.40628 7.88406C8.29038 7.76735 8.22464 7.60946 8.22464 7.44497C8.22464 7.28049 8.29038 7.12272 8.40628 7.00601L12.4424 2.96597C13.0658 2.33955 13.8066 1.84293 14.6231 1.50479C15.4396 1.16665 16.3155 0.99373 17.1992 0.995998C18.083 0.99351 18.9579 1.16639 19.7744 1.50454C20.591 1.84269 21.3328 2.33937 21.9561 2.96597L22.0332 3.04007C22.6598 3.66336 23.156 4.40468 23.4942 5.22122C23.8323 6.03775 24.0054 6.91324 24.003 7.79702C24.0055 8.68096 23.8323 9.55661 23.4942 10.3733C23.156 11.19 22.6599 11.9316 22.0332 12.5551L17.9942 16.596C17.877 16.7118 17.7185 16.7768 17.5537 16.777C17.4724 16.7779 17.3919 16.7627 17.3164 16.7323C17.2409 16.702 17.1724 16.657 17.1143 16.6L17.1153 16.596Z" fill="#A5A4BF"/>
</svg>
