<svg width="10" height="13" viewBox="0 0 10 13" fill="none" xmlns="http://www.w3.org/2000/svg">
<path d="M3.92583 0.775932H6.07416V1.13742H6.84999V0.725328C6.85009 0.325397 6.52489 0 6.12516 0H3.87484C3.4751 0 3.1499 0.325397 3.1499 0.725328V1.13742H3.92583V0.775932Z" fill="#F91A10"/>
<path d="M8.64181 4.21191H1.35833C1.15876 4.21191 1.00165 4.38216 1.01774 4.58115L1.62665 12.1106C1.66059 12.5309 2.01119 12.8546 2.4324 12.8546H7.56765C7.98886 12.8546 8.33946 12.5309 8.3734 12.1105L8.98231 4.58115C8.9985 4.38216 8.84139 4.21191 8.64181 4.21191ZM3.12193 12.0516C3.11379 12.052 3.10565 12.0523 3.09761 12.0523C2.89421 12.0523 2.72347 11.894 2.71082 11.6882L2.32923 5.50693C2.31609 5.29304 2.47879 5.10896 2.69258 5.09582C2.90569 5.08288 3.09055 5.24518 3.10369 5.45917L3.48518 11.6404C3.49842 11.8543 3.33572 12.0383 3.12193 12.0516ZM5.39235 11.6644C5.39235 11.8786 5.21867 12.0522 5.00439 12.0522C4.79011 12.0522 4.61642 11.8786 4.61642 11.6644V5.483C4.61642 5.26872 4.79011 5.09504 5.00439 5.09504C5.21857 5.09504 5.39235 5.26872 5.39235 5.483V11.6644ZM7.67092 5.50585L7.30659 11.6871C7.29453 11.8933 7.12349 12.0522 6.9197 12.0522C6.91205 12.0522 6.9043 12.052 6.89656 12.0516C6.68266 12.039 6.51948 11.8554 6.53213 11.6415L6.89636 5.46015C6.90891 5.24626 7.09191 5.08307 7.30639 5.09572C7.52028 5.10828 7.68347 5.29196 7.67092 5.50585Z" fill="#F91A10"/>
<path d="M9.98334 3.01402L9.72855 2.25025C9.66138 2.04891 9.47289 1.91309 9.26056 1.91309H0.739338C0.527114 1.91309 0.338525 2.04891 0.271445 2.25025L0.0166587 3.01402C-0.0324745 3.16132 0.0314673 3.31157 0.150819 3.38649C0.199462 3.41699 0.257029 3.43533 0.320284 3.43533H9.67972C9.74297 3.43533 9.80064 3.41699 9.84918 3.3864C9.96853 3.31147 10.0325 3.16123 9.98334 3.01402Z" fill="#F91A10"/>
</svg>
