<svg width="10" height="16" viewBox="0 0 10 16" fill="none" xmlns="http://www.w3.org/2000/svg">
<path d="M4 14C4 14.3956 3.8827 14.7822 3.66294 15.1111C3.44318 15.44 3.13082 15.6964 2.76537 15.8478C2.39992 15.9991 1.99778 16.0387 1.60982 15.9616C1.22186 15.8844 0.865492 15.6939 0.585787 15.4142C0.306082 15.1345 0.115601 14.7781 0.0384303 14.3902C-0.0387401 14.0022 0.000866562 13.6001 0.152242 13.2346C0.303617 12.8692 0.559963 12.5568 0.888861 12.3371C1.21776 12.1173 1.60444 12 2 12C2.52995 12.0016 3.03774 12.2128 3.41247 12.5875C3.7872 12.9623 3.99842 13.4701 4 14ZM2 6C1.60444 6 1.21776 6.1173 0.888861 6.33706C0.559963 6.55682 0.303617 6.86918 0.152242 7.23463C0.000866562 7.60009 -0.0387401 8.00222 0.0384303 8.39018C0.115601 8.77814 0.306082 9.13451 0.585787 9.41421C0.865492 9.69392 1.22186 9.8844 1.60982 9.96157C1.99778 10.0387 2.39992 9.99914 2.76537 9.84776C3.13082 9.69639 3.44318 9.44004 3.66294 9.11114C3.8827 8.78224 4 8.39556 4 8C3.99842 7.47005 3.7872 6.96227 3.41247 6.58754C3.03774 6.21281 2.52995 6.00158 2 6ZM2 1.07779e-06C1.60444 1.07779e-06 1.21776 0.117299 0.888861 0.337062C0.559963 0.556825 0.303617 0.869182 0.152242 1.23463C0.000866562 1.60009 -0.0387401 2.00222 0.0384303 2.39018C0.115601 2.77814 0.306082 3.13451 0.585787 3.41421C0.865492 3.69392 1.22186 3.8844 1.60982 3.96157C1.99778 4.03874 2.39992 3.99914 2.76537 3.84776C3.13082 3.69639 3.44318 3.44004 3.66294 3.11114C3.8827 2.78224 4 2.39556 4 2C3.99842 1.47005 3.7872 0.962266 3.41247 0.587536C3.03774 0.212806 2.52995 0.0015838 2 1.07779e-06ZM8 4C8.39556 4 8.78224 3.8827 9.11114 3.66294C9.44004 3.44318 9.69639 3.13082 9.84776 2.76537C9.99914 2.39992 10.0387 1.99778 9.96157 1.60982C9.8844 1.22186 9.69392 0.865492 9.41421 0.585787C9.13451 0.306082 8.77814 0.115601 8.39018 0.0384303C8.00222 -0.0387401 7.60009 0.000866562 7.23463 0.152242C6.86918 0.303617 6.55682 0.559963 6.33706 0.888861C6.1173 1.21776 6 1.60444 6 2C6.00158 2.52995 6.21281 3.03774 6.58754 3.41247C6.96227 3.7872 7.47005 3.99842 8 4ZM8 6C7.60444 6 7.21776 6.1173 6.88886 6.33706C6.55996 6.55682 6.30362 6.86918 6.15224 7.23463C6.00087 7.60009 5.96126 8.00222 6.03843 8.39018C6.1156 8.77814 6.30608 9.13451 6.58579 9.41421C6.86549 9.69392 7.22186 9.8844 7.60982 9.96157C7.99778 10.0387 8.39992 9.99914 8.76537 9.84776C9.13082 9.69639 9.44318 9.44004 9.66294 9.11114C9.8827 8.78224 10 8.39556 10 8C9.99842 7.47005 9.7872 6.96227 9.41247 6.58754C9.03774 6.21281 8.52995 6.00158 8 6ZM8 12C7.60444 12 7.21776 12.1173 6.88886 12.3371C6.55996 12.5568 6.30362 12.8692 6.15224 13.2346C6.00087 13.6001 5.96126 14.0022 6.03843 14.3902C6.1156 14.7781 6.30608 15.1345 6.58579 15.4142C6.86549 15.6939 7.22186 15.8844 7.60982 15.9616C7.99778 16.0387 8.39992 15.9991 8.76537 15.8478C9.13082 15.6964 9.44318 15.44 9.66294 15.1111C9.8827 14.7822 10 14.3956 10 14C9.99842 13.4701 9.7872 12.9623 9.41247 12.5875C9.03774 12.2128 8.52995 12.0016 8 12Z" fill="#5B73E8"/>
</svg>
