<svg width="24" height="30" viewBox="0 0 24 30" fill="none" xmlns="http://www.w3.org/2000/svg">
<path d="M15 0H3C2.20695 0.00396529 1.44774 0.321785 0.88837 0.883965C0.329001 1.44615 0.0149902 2.20694 0.0150001 3L2.34714e-10 27C-9.91304e-06 27.7931 0.314001 28.5539 0.87337 29.116C1.43274 29.6782 2.19195 29.996 2.985 30H21C21.7949 29.9976 22.5566 29.6808 23.1187 29.1187C23.6808 28.5566 23.9976 27.7949 24 27V9L15 0ZM21 27H3V3H13.5V10.5H21V27ZM6 19.515L8.115 21.633L10.5 19.263V25.503H13.5V19.263L15.885 21.648L18 19.518L12.015 13.503L6 19.515Z" fill="#7B8190"/>
</svg>
