<?xml version="1.0"?>
<svg xmlns="http://www.w3.org/2000/svg" xmlns:xlink="http://www.w3.org/1999/xlink" xmlns:svgjs="http://svgjs.com/svgjs" version="1.1" width="512" height="512" x="0" y="0" viewBox="0 0 31.646 31.646" style="enable-background:new 0 0 512 512" xml:space="preserve" class=""><g>
<g xmlns="http://www.w3.org/2000/svg">
	<g>
		<path d="M1.176,7.401h7.403V0H1.176V7.401z M2.466,1.29h4.822v4.822H2.466V1.29z" fill="#686668" data-original="#686668" style="" class=""/>
		<path d="M1.176,15.504h7.403V8.101H1.176V15.504z M2.466,9.392h4.822v4.821H2.466V9.392z" fill="#686668" data-original="#686668" style="" class=""/>
		<path d="M1.176,23.573h7.403V16.17H1.176V23.573z M2.466,17.46h4.822v4.822H2.466V17.46z" fill="#686668" data-original="#686668" style="" class=""/>
		<path d="M1.176,31.646h7.403v-7.403H1.176V31.646z M2.466,25.533h4.822v4.822H2.466V25.533z" fill="#686668" data-original="#686668" style="" class=""/>
		<rect x="10.563" y="1.488" width="19.423" height="1.45" fill="#686668" data-original="#686668" style="" class=""/>
		<rect x="10.563" y="4.067" width="13.943" height="1.451" fill="#686668" data-original="#686668" style="" class=""/>
		<rect x="10.563" y="9.146" width="19.423" height="1.45" fill="#686668" data-original="#686668" style="" class=""/>
		<rect x="10.563" y="11.725" width="13.943" height="1.45" fill="#686668" data-original="#686668" style="" class=""/>
		<rect x="11.046" y="17.445" width="19.425" height="1.451" fill="#686668" data-original="#686668" style="" class=""/>
		<rect x="11.046" y="20.025" width="13.944" height="1.451" fill="#686668" data-original="#686668" style="" class=""/>
		<rect x="11.046" y="25.346" width="19.425" height="1.45" fill="#686668" data-original="#686668" style="" class=""/>
		<rect x="11.046" y="27.925" width="13.944" height="1.451" fill="#686668" data-original="#686668" style="" class=""/>
	</g>
</g>
<g xmlns="http://www.w3.org/2000/svg">
</g>
<g xmlns="http://www.w3.org/2000/svg">
</g>
<g xmlns="http://www.w3.org/2000/svg">
</g>
<g xmlns="http://www.w3.org/2000/svg">
</g>
<g xmlns="http://www.w3.org/2000/svg">
</g>
<g xmlns="http://www.w3.org/2000/svg">
</g>
<g xmlns="http://www.w3.org/2000/svg">
</g>
<g xmlns="http://www.w3.org/2000/svg">
</g>
<g xmlns="http://www.w3.org/2000/svg">
</g>
<g xmlns="http://www.w3.org/2000/svg">
</g>
<g xmlns="http://www.w3.org/2000/svg">
</g>
<g xmlns="http://www.w3.org/2000/svg">
</g>
<g xmlns="http://www.w3.org/2000/svg">
</g>
<g xmlns="http://www.w3.org/2000/svg">
</g>
<g xmlns="http://www.w3.org/2000/svg">
</g>
</g></svg>
