<svg width="13" height="13" viewBox="0 0 13 13" fill="none" xmlns="http://www.w3.org/2000/svg">
<path d="M10 1C10 0.447715 10.4477 0 11 0H12C12.5523 0 13 0.447715 13 1V2C13 2.55228 12.5523 3 12 3H11C10.4477 3 10 2.55228 10 2V1Z" fill="#C4C4C4"/>
<path d="M10 6C10 5.44772 10.4477 5 11 5H12C12.5523 5 13 5.44772 13 6V7C13 7.55228 12.5523 8 12 8H11C10.4477 8 10 7.55228 10 7V6Z" fill="#C4C4C4"/>
<path d="M10 11C10 10.4477 10.4477 10 11 10H12C12.5523 10 13 10.4477 13 11V12C13 12.5523 12.5523 13 12 13H11C10.4477 13 10 12.5523 10 12V11Z" fill="#C4C4C4"/>
<path d="M5 1C5 0.447715 5.44772 0 6 0H7C7.55228 0 8 0.447715 8 1V2C8 2.55228 7.55228 3 7 3H6C5.44772 3 5 2.55228 5 2V1Z" fill="#C4C4C4"/>
<path d="M5 6C5 5.44772 5.44772 5 6 5H7C7.55228 5 8 5.44772 8 6V7C8 7.55228 7.55228 8 7 8H6C5.44772 8 5 7.55228 5 7V6Z" fill="#C4C4C4"/>
<path d="M5 11C5 10.4477 5.44772 10 6 10H7C7.55228 10 8 10.4477 8 11V12C8 12.5523 7.55228 13 7 13H6C5.44772 13 5 12.5523 5 12V11Z" fill="#C4C4C4"/>
<path d="M0 1C0 0.447715 0.447715 0 1 0H2C2.55228 0 3 0.447715 3 1V2C3 2.55228 2.55228 3 2 3H1C0.447715 3 0 2.55228 0 2V1Z" fill="#C4C4C4"/>
<path d="M0 6C0 5.44772 0.447715 5 1 5H2C2.55228 5 3 5.44772 3 6V7C3 7.55228 2.55228 8 2 8H1C0.447715 8 0 7.55228 0 7V6Z" fill="#C4C4C4"/>
<path d="M0 11C0 10.4477 0.447715 10 1 10H2C2.55228 10 3 10.4477 3 11V12C3 12.5523 2.55228 13 2 13H1C0.447715 13 0 12.5523 0 12V11Z" fill="#C4C4C4"/>
</svg>
