<svg width="19" height="15" viewBox="0 0 19 15" fill="none" xmlns="http://www.w3.org/2000/svg">
<path d="M17.7007 3.86682H17.2056V9.4858C17.2056 10.3317 16.7105 11.1171 15.6584 11.1171H5.38477V11.3588C5.38477 12.1442 6.25122 12.9297 7.17956 12.9297H14.9776L17.9483 14.6214L17.5151 12.9297H17.6389C18.5672 12.9297 19.0004 12.1442 19.0004 11.3588V5.19604C19.0004 4.47101 18.6291 3.86682 17.7007 3.86682Z" fill="#C4C4C4"/>
<path d="M14.1108 0H2.22802C1.1759 0 0 0.906286 0 1.75215V8.76077C0 9.54622 0.990229 10.1504 1.98046 10.2108L1.36157 12.5672L5.44626 10.2712H14.1108C15.1629 10.2712 16.0912 9.66705 16.0912 8.76077V3.14179V1.75215C16.0912 0.906286 15.101 0 14.1108 0ZM4.02281 5.92107C3.40391 5.92107 2.97069 5.43772 2.97069 4.89395C2.97069 4.35017 3.4658 3.86682 4.02281 3.86682C4.6417 3.86682 5.07492 4.35017 5.07492 4.89395C5.07492 5.43772 4.6417 5.92107 4.02281 5.92107ZM8.04561 5.92107C7.42672 5.92107 6.99349 5.43772 6.99349 4.89395C6.99349 4.35017 7.42672 3.8064 8.04561 3.8064C8.66451 3.8064 9.09773 4.28975 9.09773 4.83353C9.09773 5.3773 8.66451 5.92107 8.04561 5.92107ZM12.0684 5.92107C11.4495 5.92107 11.0163 5.43772 11.0163 4.89395C11.0163 4.35017 11.5114 3.86682 12.0684 3.86682C12.6873 3.86682 13.1205 4.35017 13.1205 4.89395C13.1205 5.43772 12.6254 5.92107 12.0684 5.92107Z" fill="#C4C4C4"/>
</svg>
