<svg width="20" height="18" viewBox="0 0 20 18" fill="none" xmlns="http://www.w3.org/2000/svg">
<path fill-rule="evenodd" clip-rule="evenodd" d="M6.31579 13.6842L9.47368 10.5895C9.06316 10.5474 8.75789 10.5263 8.42105 10.5263C5.61053 10.5263 0 11.9368 0 14.7368V16.8421H9.47368L6.31579 13.6842ZM8.42105 8.42105C10.7474 8.42105 12.6316 6.53684 12.6316 4.21053C12.6316 1.88421 10.7474 0 8.42105 0C6.09474 0 4.21053 1.88421 4.21053 4.21053C4.21053 6.53684 6.09474 8.42105 8.42105 8.42105Z" fill="#949090"/>
<path fill-rule="evenodd" clip-rule="evenodd" d="M13.1272 17.3683L9.47461 13.6841L10.9483 12.1999L13.1272 14.3894L18.5272 8.94727L20.0009 10.4315L13.1272 17.3683Z" fill="#949090"/>
</svg>
