<svg width="107" height="38" viewBox="0 0 107 38" fill="none" xmlns="http://www.w3.org/2000/svg">
<path opacity="0.56" d="M19.1152 7.66016V11H17.9902V2.46875H21.1367C22.0703 2.46875 22.8008 2.70703 23.3281 3.18359C23.8594 3.66016 24.125 4.29102 24.125 5.07617C24.125 5.9043 23.8652 6.54297 23.3457 6.99219C22.8301 7.4375 22.0898 7.66016 21.125 7.66016H19.1152ZM19.1152 6.74023H21.1367C21.7383 6.74023 22.1992 6.59961 22.5195 6.31836C22.8398 6.0332 23 5.62305 23 5.08789C23 4.58008 22.8398 4.17383 22.5195 3.86914C22.1992 3.56445 21.7598 3.40625 21.2012 3.39453H19.1152V6.74023ZM32.123 7.00977C32.123 7.8457 31.9824 8.57617 31.7012 9.20117C31.4199 9.82227 31.0215 10.2969 30.5059 10.625C29.9902 10.9531 29.3887 11.1172 28.7012 11.1172C28.0293 11.1172 27.4336 10.9531 26.9141 10.625C26.3945 10.293 25.9902 9.82227 25.7012 9.21289C25.416 8.59961 25.2695 7.89062 25.2617 7.08594V6.4707C25.2617 5.65039 25.4043 4.92578 25.6895 4.29688C25.9746 3.66797 26.377 3.1875 26.8965 2.85547C27.4199 2.51953 28.0176 2.35156 28.6895 2.35156C29.373 2.35156 29.9746 2.51758 30.4941 2.84961C31.0176 3.17773 31.4199 3.65625 31.7012 4.28516C31.9824 4.91016 32.123 5.63867 32.123 6.4707V7.00977ZM31.0039 6.45898C31.0039 5.44727 30.8008 4.67188 30.3945 4.13281C29.9883 3.58984 29.4199 3.31836 28.6895 3.31836C27.9785 3.31836 27.418 3.58984 27.0078 4.13281C26.6016 4.67188 26.3926 5.42188 26.3809 6.38281V7.00977C26.3809 7.99023 26.5859 8.76172 26.9961 9.32422C27.4102 9.88281 27.9785 10.1621 28.7012 10.1621C29.4277 10.1621 29.9902 9.89844 30.3887 9.37109C30.7871 8.83984 30.9922 8.08008 31.0039 7.0918V6.45898ZM35.6504 8.31055L35.8145 9.43555L36.0547 8.42188L37.7422 2.46875H38.6914L40.3379 8.42188L40.5723 9.45312L40.7539 8.30469L42.0781 2.46875H43.209L41.1406 11H40.1152L38.3574 4.7832L38.2227 4.13281L38.0879 4.7832L36.2656 11H35.2402L33.1777 2.46875H34.3027L35.6504 8.31055ZM49.2852 7.05664H45.5879V10.0801H49.8828V11H44.4629V2.46875H49.8242V3.39453H45.5879V6.13672H49.2852V7.05664ZM54.4121 7.54883H52.4082V11H51.2773V2.46875H54.1016C55.0625 2.46875 55.8008 2.6875 56.3164 3.125C56.8359 3.5625 57.0957 4.19922 57.0957 5.03516C57.0957 5.56641 56.9512 6.0293 56.6621 6.42383C56.377 6.81836 55.9785 7.11328 55.4668 7.30859L57.4707 10.9297V11H56.2637L54.4121 7.54883ZM52.4082 6.62891H54.1367C54.6953 6.62891 55.1387 6.48438 55.4668 6.19531C55.7988 5.90625 55.9648 5.51953 55.9648 5.03516C55.9648 4.50781 55.8066 4.10352 55.4902 3.82227C55.1777 3.54102 54.7246 3.39844 54.1309 3.39453H52.4082V6.62891ZM63.5 7.05664H59.8027V10.0801H64.0977V11H58.6777V2.46875H64.0391V3.39453H59.8027V6.13672H63.5V7.05664ZM65.498 11V2.46875H67.9062C68.6484 2.46875 69.3047 2.63281 69.875 2.96094C70.4453 3.28906 70.8848 3.75586 71.1934 4.36133C71.5059 4.9668 71.6641 5.66211 71.668 6.44727V6.99219C71.668 7.79688 71.5117 8.50195 71.1992 9.10742C70.8906 9.71289 70.4473 10.1777 69.8691 10.502C69.2949 10.8262 68.625 10.9922 67.8594 11H65.498ZM66.623 3.39453V10.0801H67.8066C68.6738 10.0801 69.3477 9.81055 69.8281 9.27148C70.3125 8.73242 70.5547 7.96484 70.5547 6.96875V6.4707C70.5547 5.50195 70.3262 4.75 69.8691 4.21484C69.416 3.67578 68.7715 3.40234 67.9355 3.39453H66.623ZM76.3496 11V2.46875H79.1387C80.0645 2.46875 80.7598 2.66016 81.2246 3.04297C81.6934 3.42578 81.9277 3.99219 81.9277 4.74219C81.9277 5.14062 81.8145 5.49414 81.5879 5.80273C81.3613 6.10742 81.0527 6.34375 80.6621 6.51172C81.123 6.64062 81.4863 6.88672 81.752 7.25C82.0215 7.60938 82.1562 8.03906 82.1562 8.53906C82.1562 9.30469 81.9082 9.90625 81.4121 10.3438C80.916 10.7812 80.2148 11 79.3086 11H76.3496ZM77.4746 7.00977V10.0801H79.332C79.8555 10.0801 80.2676 9.94531 80.5684 9.67578C80.873 9.40234 81.0254 9.02734 81.0254 8.55078C81.0254 7.52344 80.4668 7.00977 79.3496 7.00977H77.4746ZM77.4746 6.10742H79.1738C79.666 6.10742 80.0586 5.98438 80.3516 5.73828C80.6484 5.49219 80.7969 5.1582 80.7969 4.73633C80.7969 4.26758 80.6602 3.92773 80.3867 3.7168C80.1133 3.50195 79.6973 3.39453 79.1387 3.39453H77.4746V6.10742ZM86.0996 6.75195L88.3262 2.46875H89.6035L86.6621 7.81836V11H85.5371V7.81836L82.5957 2.46875H83.8848L86.0996 6.75195Z" fill="#1A1A1A"/>
<path d="M15.4391 17.0204C14.7786 17.0204 14.2007 17.5918 14.2007 18.2449C14.2007 18.8979 14.7786 19.4694 15.4391 19.4694C16.0996 19.4694 16.6775 18.8979 16.6775 18.2449C16.6775 17.5918 16.0996 17.0204 15.4391 17.0204Z" fill="#666A73"/>
<path d="M15.4391 20.6122C14.7786 20.6122 14.2007 21.1837 14.2007 21.8367C14.2007 22.4898 14.7786 23.0612 15.4391 23.0612C16.0996 23.0612 16.6775 22.4898 16.6775 21.8367C16.6775 21.102 16.0996 20.6122 15.4391 20.6122Z" fill="#666A73"/>
<path d="M10.8156 21.0204C10.1551 21.0204 9.57715 21.5918 9.57715 22.2449C9.57715 22.8979 10.1551 23.4694 10.8156 23.4694C11.4761 23.4694 12.054 22.8979 12.054 22.2449C12.054 21.5918 11.4761 21.0204 10.8156 21.0204Z" fill="#666A73"/>
<path d="M10.8156 24.6122C10.1551 24.6122 9.57715 25.1836 9.57715 25.8367C9.57715 26.4897 10.1551 27.0612 10.8156 27.0612C11.4761 27.0612 12.054 26.4897 12.054 25.8367C12.054 25.102 11.4761 24.6122 10.8156 24.6122Z" fill="#666A73"/>
<path d="M6.19253 32.6122C5.53203 32.6122 4.9541 33.1836 4.9541 33.8367C4.9541 34.4897 5.53203 35.0612 6.19253 35.0612C6.85302 35.0612 7.43095 34.4897 7.43095 33.8367C7.43095 33.102 6.85302 32.6122 6.19253 32.6122Z" fill="#666A73"/>
<path d="M6.19253 29.0204C5.53203 29.0204 4.9541 29.5918 4.9541 30.2449C4.9541 30.8979 5.53203 31.4694 6.19253 31.4694C6.85302 31.4694 7.43095 30.8979 7.43095 30.2449C7.43095 29.5918 6.85302 29.0204 6.19253 29.0204Z" fill="#666A73"/>
<path d="M15.4395 24.2857C14.8616 24.2857 14.3662 24.7755 14.3662 25.3469V33.9184C14.3662 34.4898 14.779 34.9796 15.357 34.9796C15.6046 34.9796 15.9349 34.8979 16.1 34.653C16.2651 34.4898 16.4303 34.1633 16.4303 33.9184V25.3469C16.5128 24.7755 16.0174 24.2857 15.4395 24.2857Z" fill="#666A73"/>
<path d="M20.0626 19.7143C19.4846 19.7143 18.9893 20.2041 18.9893 20.7755V31.3061C18.9893 31.8776 19.4846 32.3674 20.0626 32.3674C20.6405 32.3674 21.1359 31.8776 21.1359 31.3061V20.7755C21.0533 20.2041 20.6405 19.7143 20.0626 19.7143Z" fill="#666A73"/>
<path d="M10.816 28.2857C10.238 28.2857 9.74268 28.7755 9.74268 29.3469V36.5306C9.74268 37.102 10.1555 37.5918 10.7334 37.5918C10.9811 37.5918 11.3113 37.5102 11.4765 37.2653C11.6416 37.0204 11.8067 36.7755 11.8067 36.5306V29.3469C11.8893 28.7755 11.3939 28.2857 10.816 28.2857Z" fill="#666A73"/>
<path d="M6.1924 27.7143C6.77033 27.7143 7.2657 27.2245 7.2657 26.6531V18.1633C7.2657 17.5918 6.8529 17.1021 6.27496 17.1021C6.02728 17.1021 5.77959 17.1837 5.53191 17.4286C5.28422 17.5918 5.20166 17.8367 5.20166 18.0816V26.6531C5.20166 27.2245 5.61447 27.7143 6.1924 27.7143Z" fill="#666A73"/>
<path d="M10.8157 19.7143C11.3936 19.7143 11.889 19.2245 11.889 18.653V15.4694C11.889 14.8979 11.4762 14.4081 10.8983 14.4081C10.6506 14.4081 10.4029 14.4898 10.1552 14.7347C9.99008 14.8979 9.82495 15.2245 9.82495 15.4694V18.653C9.74239 19.2245 10.2378 19.7143 10.8157 19.7143Z" fill="#666A73"/>
<path d="M1.56887 19.7143C0.990934 19.7143 0.578125 20.2041 0.578125 20.7755V31.3061C0.578125 31.8776 1.0735 32.3674 1.65143 32.3674C2.22936 32.3674 2.72473 31.8776 2.72473 31.3061V20.7755C2.64217 20.2041 2.1468 19.7143 1.56887 19.7143Z" fill="#666A73"/>
<path d="M67.2879 32.2857C65.4715 32.2857 64.068 31.551 63.0773 30.1633C62.3342 29.0204 61.9214 27.6327 61.9214 26.0816C61.9214 24.2041 62.4168 22.6531 63.4901 21.4286C64.3982 20.2857 65.6367 19.7143 67.2879 19.7143C69.1043 19.7143 70.5078 20.449 71.4985 21.9184C72.2416 23.0612 72.6544 24.449 72.6544 26.0816C72.6544 27.9592 72.159 29.5102 71.0857 30.6531C70.095 31.7959 68.8566 32.2857 67.2879 32.2857ZM67.2879 30.8163C68.5263 30.8163 69.4345 30.3265 70.0124 29.3469C70.5078 28.5306 70.7555 27.4694 70.7555 26.1633C70.7555 24.6123 70.4252 23.3878 69.7648 22.5714C69.1868 21.7551 68.3612 21.3469 67.2879 21.3469C66.132 21.3469 65.2239 21.8367 64.5634 22.898C64.068 23.7143 63.8203 24.8572 63.8203 26.1633C63.8203 27.7143 64.1506 28.8572 64.811 29.6735C65.389 30.4082 66.2146 30.8163 67.2879 30.8163Z" fill="#666A73"/>
<path d="M36.2448 30.7347H31.1259V26.4898H35.3366C35.7494 26.4898 36.0796 26.1633 36.0796 25.7551C36.0796 25.347 35.7494 25.0204 35.3366 25.0204H35.254H31.1259V21.2653H36.2448C36.6576 21.2653 36.9878 20.9388 36.9878 20.5307C36.9878 20.1225 36.6576 19.796 36.2448 19.796H30.7957H29.3096V32.3674H30.7957H35.6668H36.2448C36.6576 32.3674 36.9878 32.0409 36.9878 31.6327C37.0704 31.1429 36.6576 30.7347 36.2448 30.7347Z" fill="#666A73"/>
<path d="M55.0685 19.7143C54.0778 19.7143 53.0045 19.7959 51.8486 19.9592V25.8367V31.3878C51.8486 31.8776 52.2614 32.2857 52.7568 32.2857C53.2522 32.2857 53.665 31.8776 53.665 31.3878V30.4898V27.4694C54.1604 27.551 54.7383 27.6327 55.3162 27.6327C56.4721 27.6327 57.4628 27.3061 58.2884 26.7347C59.1966 26 59.692 24.9388 59.692 23.551C59.692 21.0204 58.1233 19.7143 55.0685 19.7143ZM55.3162 26.1633C54.7383 26.1633 54.1604 26.0816 53.665 26V25.8367V21.3469C54.0778 21.2653 54.5732 21.1837 55.1511 21.1837C56.8849 21.1837 57.7105 22 57.7105 23.551C57.7105 25.2653 56.8849 26.1633 55.3162 26.1633Z" fill="#666A73"/>
<path d="M84.9559 20.6939C84.9559 20.2041 84.5431 19.7959 84.0477 19.7959C83.5524 19.7959 83.1395 20.2041 83.1395 20.6939V22.1633V23.4694V26.2449V27.2245C83.1395 29.5918 82.2314 30.7347 80.3324 30.7347C78.5161 30.7347 77.5253 29.5918 77.5253 27.2245V25.7551V20.6123C77.5253 20.1225 77.1125 19.7143 76.6172 19.7143C76.1218 19.7143 75.709 20.1225 75.709 20.6123V26.2449V26.8163C75.709 30.4898 77.2777 32.3674 80.415 32.3674C83.5524 32.3674 85.121 30.4898 85.121 26.8163V26.2449V20.6939H84.9559Z" fill="#666A73"/>
<path d="M105.761 30.7347H100.643V26.4898H104.853C105.266 26.4898 105.596 26.1633 105.596 25.7551C105.596 25.347 105.266 25.0204 104.853 25.0204H104.771H100.643V21.2653H105.761C106.174 21.2653 106.504 20.9388 106.504 20.5307C106.504 20.1225 106.174 19.796 105.761 19.796H100.312H98.8262V32.3674H100.312H105.183H105.761C106.174 32.3674 106.504 32.0409 106.504 31.6327C106.587 31.1429 106.174 30.7347 105.761 30.7347Z" fill="#666A73"/>
<path d="M94.8632 26.4081C94.2028 25.7551 93.0469 25.1837 91.4782 24.5306C90.4049 24.1224 89.827 23.551 89.827 22.7347C89.827 22.3265 89.9921 21.9183 90.4049 21.5918C90.8177 21.2653 91.3131 21.1837 91.9736 21.1837C92.8818 21.1837 93.7899 21.4285 94.6156 21.8367C94.9458 21.9183 95.2761 21.8367 95.4412 21.5102C95.6063 21.2653 95.5237 21.0204 95.4412 20.7755C95.4412 20.6939 95.3586 20.6939 95.3586 20.6939C95.3586 20.6939 95.2761 20.6939 95.2761 20.6122C94.2853 19.9592 93.1295 19.6326 91.891 19.6326C91.5608 19.6326 91.2305 19.6326 90.9003 19.7143C90.2398 19.7959 89.5793 20.0408 89.0839 20.449C88.3409 21.0204 87.9281 21.8367 87.9281 22.8163C87.9281 23.6326 88.2583 24.3673 88.8362 24.9388C89.4967 25.5102 90.4875 26 91.891 26.4898C93.212 26.8979 93.8725 27.6326 93.8725 28.6939C93.8725 30 93.0469 30.653 91.4782 30.653C90.57 30.653 89.6619 30.4898 88.9188 30.0816L88.2583 29.6734C87.9281 29.5102 87.5153 29.5918 87.3501 29.9183C87.185 30.2449 87.2676 30.653 87.5978 30.8163L87.6804 30.8979C89.0839 31.7959 90.4049 32.2041 91.6433 32.2041C91.8085 32.2041 91.9736 32.2041 92.1387 32.2041C92.9643 32.1224 93.7074 31.8775 94.3679 31.4694C95.2761 30.8163 95.6889 29.9183 95.6889 28.7755C95.854 27.8775 95.5237 27.0612 94.8632 26.4081Z" fill="#666A73"/>
<path d="M49.1244 31.8776L45.1615 25.8368L48.2988 21.2653L49.0419 20.2041C48.9593 20.1225 48.9593 20.1225 48.8767 20.0408C48.2988 19.6327 47.4732 19.6327 47.0604 20.2041L44.1707 24.6123L41.3636 20.2041C41.281 20.1225 41.2811 20.0408 41.1985 20.0408C40.6206 19.6327 39.7949 19.6327 39.3821 20.2041L43.0148 25.8368L38.8042 31.8776C38.8868 31.9592 38.8868 31.9592 38.9693 32.0408C39.5473 32.449 40.3729 32.449 40.7857 31.8776L44.0881 26.898L47.1429 31.8776C47.2255 31.9592 47.2255 31.9592 47.3081 32.0408C47.886 32.449 48.7116 32.3674 49.1244 31.8776Z" fill="#666A73"/>
</svg>
