<svg width="213" height="48" viewBox="0 0 213 48" fill="none" xmlns="http://www.w3.org/2000/svg">
<path d="M30.7348 6.01172C29.42 6.01172 28.2695 7.14924 28.2695 8.44925C28.2695 9.74927 29.42 10.8868 30.7348 10.8868C32.0496 10.8868 33.2001 9.74927 33.2001 8.44925C33.2001 7.14924 32.0496 6.01172 30.7348 6.01172Z" fill="#666A73"/>
<path d="M30.7348 13.1619C29.42 13.1619 28.2695 14.2994 28.2695 15.5994C28.2695 16.8994 29.42 18.0369 30.7348 18.0369C32.0496 18.0369 33.2001 16.8994 33.2001 15.5994C33.2001 14.1369 32.0496 13.1619 30.7348 13.1619Z" fill="#666A73"/>
<path d="M21.5307 13.9746C20.2159 13.9746 19.0654 15.1121 19.0654 16.4121C19.0654 17.7122 20.2159 18.8497 21.5307 18.8497C22.8455 18.8497 23.996 17.7122 23.996 16.4121C23.996 15.1121 22.8455 13.9746 21.5307 13.9746Z" fill="#666A73"/>
<path d="M21.5307 21.1245C20.2159 21.1245 19.0654 22.262 19.0654 23.562C19.0654 24.8621 20.2159 25.9996 21.5307 25.9996C22.8455 25.9996 23.996 24.8621 23.996 23.562C23.996 22.0995 22.8455 21.1245 21.5307 21.1245Z" fill="#666A73"/>
<path d="M12.3266 37.0493C11.0118 37.0493 9.86133 38.1868 9.86133 39.4869C9.86133 40.7869 11.0118 41.9244 12.3266 41.9244C13.6414 41.9244 14.7919 40.7869 14.7919 39.4869C14.7919 38.0243 13.6414 37.0493 12.3266 37.0493Z" fill="#666A73"/>
<path d="M12.3266 29.8992C11.0118 29.8992 9.86133 31.0367 9.86133 32.3367C9.86133 33.6367 11.0118 34.7742 12.3266 34.7742C13.6414 34.7742 14.7919 33.6367 14.7919 32.3367C14.7919 31.0367 13.6414 29.8992 12.3266 29.8992Z" fill="#666A73"/>
<path d="M30.7347 20.4746C29.5843 20.4746 28.5981 21.4496 28.5981 22.5871V39.6499C28.5981 40.7874 29.4199 41.7624 30.5704 41.7624C31.0634 41.7624 31.7208 41.5999 32.0495 41.1124C32.3782 40.7874 32.7069 40.1374 32.7069 39.6499V22.5871C32.8713 21.4496 31.8852 20.4746 30.7347 20.4746Z" fill="#666A73"/>
<path d="M39.9374 11.375C38.7869 11.375 37.8008 12.35 37.8008 13.4875V34.4503C37.8008 35.5879 38.7869 36.5629 39.9374 36.5629C41.0878 36.5629 42.0739 35.5879 42.0739 34.4503V13.4875C41.9096 12.35 41.0878 11.375 39.9374 11.375Z" fill="#666A73"/>
<path d="M21.5301 28.437C20.3797 28.437 19.3936 29.412 19.3936 30.5495V44.8498C19.3936 45.9873 20.2153 46.9623 21.3658 46.9623C21.8588 46.9623 22.5162 46.7998 22.8449 46.3123C23.1736 45.8248 23.5024 45.3373 23.5024 44.8498V30.5495C23.6667 29.412 22.6806 28.437 21.5301 28.437Z" fill="#666A73"/>
<path d="M12.3262 27.2994C13.4767 27.2994 14.4628 26.3244 14.4628 25.1869V8.2866C14.4628 7.14909 13.641 6.17407 12.4906 6.17407C11.9975 6.17407 11.5045 6.33657 11.0114 6.82408C10.5184 7.14909 10.354 7.63659 10.354 8.1241V25.1869C10.354 26.3244 11.1758 27.2994 12.3262 27.2994Z" fill="#666A73"/>
<path d="M21.5307 11.3749C22.6812 11.3749 23.6673 10.3999 23.6673 9.26238V2.92479C23.6673 1.78727 22.8456 0.812256 21.6951 0.812256C21.202 0.812256 20.709 0.974758 20.2159 1.46227C19.8872 1.78727 19.5585 2.43728 19.5585 2.92479V9.26238C19.3942 10.3999 20.3803 11.3749 21.5307 11.3749Z" fill="#666A73"/>
<path d="M3.1231 11.375C1.97264 11.375 1.15088 12.35 1.15088 13.4875V34.4503C1.15088 35.5879 2.13699 36.5629 3.28745 36.5629C4.43792 36.5629 5.42403 35.5879 5.42403 34.4503V13.4875C5.25967 12.35 4.27356 11.375 3.1231 11.375Z" fill="#666A73"/>
<path d="M133.947 36.4016C130.331 36.4016 127.537 34.9391 125.565 32.1765C124.085 29.9015 123.264 27.139 123.264 24.0514C123.264 20.3139 124.25 17.2263 126.386 14.7888C128.194 12.5137 130.66 11.3762 133.947 11.3762C137.562 11.3762 140.356 12.8387 142.328 15.7638C143.808 18.0388 144.629 20.8014 144.629 24.0514C144.629 27.789 143.643 30.8765 141.507 33.1515C139.535 35.4266 137.069 36.4016 133.947 36.4016ZM133.947 33.4766C136.412 33.4766 138.22 32.5015 139.37 30.5515C140.356 28.9265 140.849 26.814 140.849 24.2139C140.849 21.1264 140.192 18.6888 138.877 17.0638C137.727 15.4388 136.083 14.6263 133.947 14.6263C131.646 14.6263 129.838 15.6013 128.523 17.7138C127.537 19.3388 127.044 21.6139 127.044 24.2139C127.044 27.3015 127.701 29.5765 129.016 31.2015C130.166 32.664 131.81 33.4766 133.947 33.4766Z" fill="#666A73"/>
<path d="M72.1503 33.3141H61.9605V24.864H70.3424C71.1642 24.864 71.8216 24.214 71.8216 23.4015C71.8216 22.589 71.1642 21.939 70.3424 21.939H70.1781H61.9605V14.4639H72.1503C72.972 14.4639 73.6294 13.8139 73.6294 13.0013C73.6294 12.1888 72.972 11.5388 72.1503 11.5388H61.3031H58.3447V36.5642H61.3031H70.9998H72.1503C72.972 36.5642 73.6294 35.9142 73.6294 35.1017C73.7938 34.1267 72.972 33.3141 72.1503 33.3141Z" fill="#666A73"/>
<path d="M109.622 11.3762C107.65 11.3762 105.513 11.5387 103.212 11.8637V23.5639V34.6141C103.212 35.5891 104.034 36.4016 105.02 36.4016C106.006 36.4016 106.828 35.5891 106.828 34.6141V32.8265V26.814C107.814 26.9765 108.965 27.139 110.115 27.139C112.416 27.139 114.388 26.4889 116.032 25.3514C117.84 23.8889 118.826 21.7764 118.826 19.0138C118.826 13.9763 115.703 11.3762 109.622 11.3762ZM110.115 24.2139C108.965 24.2139 107.814 24.0514 106.828 23.8889V23.5639V14.6263C107.65 14.4638 108.636 14.3013 109.786 14.3013C113.238 14.3013 114.881 15.9263 114.881 19.0138C114.881 22.4264 113.238 24.2139 110.115 24.2139Z" fill="#666A73"/>
<path d="M169.118 13.3262C169.118 12.3512 168.296 11.5387 167.31 11.5387C166.324 11.5387 165.502 12.3512 165.502 13.3262V16.2513V18.8513V24.3764V26.3264C165.502 31.039 163.694 33.314 159.914 33.314C156.298 33.314 154.326 31.039 154.326 26.3264V23.4014V13.1637C154.326 12.1887 153.504 11.3762 152.518 11.3762C151.532 11.3762 150.71 12.1887 150.71 13.1637V24.3764V25.5139C150.71 32.8265 153.833 36.5641 160.079 36.5641C166.324 36.5641 169.447 32.8265 169.447 25.5139V24.3764V13.3262H169.118Z" fill="#666A73"/>
<path d="M210.535 33.3141H200.345V24.864H208.727C209.548 24.864 210.206 24.214 210.206 23.4015C210.206 22.589 209.548 21.939 208.727 21.939H208.562H200.345V14.4639H210.535C211.356 14.4639 212.014 13.8139 212.014 13.0013C212.014 12.1888 211.356 11.5388 210.535 11.5388H199.687H196.729V36.5642H199.687H209.384H210.535C211.356 36.5642 212.014 35.9142 212.014 35.1017C212.178 34.1267 211.356 33.3141 210.535 33.3141Z" fill="#666A73"/>
<path d="M188.84 24.7001C187.525 23.4001 185.224 22.2626 182.102 20.9625C179.965 20.15 178.815 19.0125 178.815 17.3875C178.815 16.575 179.143 15.7625 179.965 15.1125C180.787 14.4625 181.773 14.2999 183.088 14.2999C184.896 14.2999 186.703 14.7875 188.347 15.6C189.004 15.7625 189.662 15.6 189.991 14.95C190.319 14.4625 190.155 13.9749 189.991 13.4874C189.991 13.3249 189.826 13.3249 189.826 13.3249C189.826 13.3249 189.662 13.3249 189.662 13.1624C187.69 11.8624 185.389 11.2124 182.923 11.2124C182.266 11.2124 181.609 11.2124 180.951 11.3749C179.636 11.5374 178.322 12.0249 177.335 12.8374C175.856 13.9749 175.035 15.6 175.035 17.55C175.035 19.175 175.692 20.6375 176.842 21.7751C178.157 22.9126 180.129 23.8876 182.923 24.8626C185.553 25.6751 186.868 27.1376 186.868 29.2502C186.868 31.8502 185.224 33.1502 182.102 33.1502C180.294 33.1502 178.486 32.8252 177.007 32.0127L175.692 31.2002C175.035 30.8752 174.213 31.0377 173.884 31.6877C173.555 32.3377 173.72 33.1502 174.377 33.4752L174.541 33.6377C177.335 35.4253 179.965 36.2378 182.43 36.2378C182.759 36.2378 183.088 36.2378 183.416 36.2378C185.06 36.0753 186.539 35.5878 187.854 34.7753C189.662 33.4752 190.484 31.6877 190.484 29.4127C190.812 27.6252 190.155 26.0001 188.84 24.7001Z" fill="#666A73"/>
<path d="M97.7886 35.5879L89.8997 23.5627L96.1451 14.4626L97.6243 12.35C97.4599 12.1875 97.4599 12.1875 97.2956 12.025C96.1451 11.2125 94.5016 11.2125 93.6798 12.35L87.9275 21.1252L82.3395 12.35C82.1752 12.1875 82.1752 12.025 82.0108 12.025C80.8604 11.2125 79.2169 11.2125 78.3951 12.35L85.6266 23.5627L77.2446 35.5879C77.409 35.7504 77.409 35.7504 77.5733 35.9129C78.7238 36.7254 80.3673 36.7254 81.1891 35.5879L87.7631 25.6752L93.8442 35.5879C94.0085 35.7504 94.0085 35.7504 94.1729 35.9129C95.3233 36.7254 96.9668 36.5629 97.7886 35.5879Z" fill="#666A73"/>
</svg>
