<svg width="22" height="13" viewBox="0 0 22 13" fill="none" xmlns="http://www.w3.org/2000/svg">
<path d="M21.877 6.31746C21.7008 6.06429 17.589 0.260864 11.0885 0.260864C5.50825 0.260864 0.534969 6.02534 0.319591 6.27851C0.182532 6.45378 0.182532 6.68748 0.319591 6.86275C0.534969 7.11592 5.50825 12.8804 11.0885 12.8804C16.6688 12.8804 21.642 7.11592 21.8574 6.86275C21.9749 6.70695 21.9945 6.47325 21.877 6.31746ZM11.0885 11.9651C6.6243 11.9651 2.35589 7.71963 1.279 6.55115C2.35589 5.38268 6.60472 1.13722 11.0885 1.13722C16.3163 1.13722 20.0169 5.38268 20.9176 6.5122C19.8799 7.6612 15.5919 11.9651 11.0885 11.9651Z" fill="white"/>
<path d="M11.0891 2.96777C9.09192 2.96777 7.4668 4.58416 7.4668 6.57057C7.4668 8.55698 9.09192 10.1734 11.0891 10.1734C13.0862 10.1734 14.7113 8.55698 14.7113 6.57057C14.7113 4.58416 13.0862 2.96777 11.0891 2.96777ZM11.0891 9.27754C9.601 9.27754 8.36747 8.07011 8.36747 6.57057C8.36747 5.07103 9.58142 3.8636 11.0891 3.8636C12.5967 3.8636 13.8107 5.07103 13.8107 6.57057C13.8107 8.07011 12.5771 9.27754 11.0891 9.27754Z" fill="white"/>
</svg>
