<svg width="31" height="18" viewBox="0 0 31 18" fill="none" xmlns="http://www.w3.org/2000/svg">
<path d="M15.5 0C9.57712 0 4.20594 3.15649 0.242559 8.28346C-0.080853 8.7035 -0.080853 9.29032 0.242559 9.71036C4.20594 14.8435 9.57712 18 15.5 18C21.4229 18 26.7941 14.8435 30.7574 9.71654C31.0809 9.2965 31.0809 8.70968 30.7574 8.28964C26.7941 3.15649 21.4229 0 15.5 0ZM15.9249 15.3377C11.9932 15.5786 8.74639 12.4221 8.99371 8.58614C9.19663 5.42347 11.8283 2.85999 15.0751 2.66232C19.0068 2.42141 22.2536 5.5779 22.0063 9.41386C21.797 12.5703 19.1653 15.1338 15.9249 15.3377ZM15.7283 12.4097C13.6103 12.5395 11.86 10.8408 11.9995 8.77763C12.1073 7.07275 13.5278 5.69526 15.2781 5.58408C17.3961 5.45436 19.1463 7.15306 19.0068 9.2162C18.8927 10.9272 17.4722 12.3047 15.7283 12.4097Z" fill="#949090"/>
</svg>
