<svg width="23" height="23" viewBox="0 0 23 23" fill="none" xmlns="http://www.w3.org/2000/svg">
<path d="M4.87607 13.2949L4.11007 16.1529L1.31007 16.2119C0.463349 14.6351 0.0134792 12.8757 -0.000633924 11.086C-0.014747 9.2962 0.407321 7.52995 1.22907 5.93994L3.72107 6.39694L4.81407 8.87294C4.32318 10.3091 4.34509 11.8711 4.87607 13.2929V13.2949Z" fill="#FBBB00"/>
<path d="M21.8082 8.94495C22.181 10.9063 22.0131 12.9321 21.3224 14.8053C20.6316 16.6784 19.4441 18.3283 17.8872 19.578L14.7482 19.418L14.3042 16.645C15.6004 15.8852 16.5962 14.7032 17.1252 13.297H11.2432V8.94495H21.8092H21.8082Z" fill="#518EF8"/>
<path d="M17.886 19.578C16.6275 20.5888 15.1619 21.3102 13.5933 21.691C12.0247 22.0718 10.3915 22.1028 8.8096 21.7816C7.2277 21.4605 5.73586 20.7951 4.43994 19.8327C3.14403 18.8703 2.07579 17.6346 1.31104 16.213L4.87604 13.295C5.2107 14.1872 5.73623 14.9955 6.41586 15.6634C7.09549 16.3313 7.91282 16.8426 8.81069 17.1617C9.70856 17.4808 10.6653 17.5999 11.614 17.5106C12.5627 17.4214 13.4804 17.126 14.303 16.6451L17.886 19.578Z" fill="#28B446"/>
<path d="M18.021 2.532L14.458 5.45C13.6232 4.92999 12.6819 4.60492 11.7041 4.49898C10.7263 4.39303 9.73724 4.50895 8.81046 4.83809C7.88367 5.16723 7.04304 5.70113 6.3511 6.40006C5.65917 7.09899 5.13376 7.94495 4.81396 8.875L1.23096 5.941C1.98664 4.48165 3.05972 3.21017 4.37132 2.21999C5.68293 1.22981 7.19973 0.546101 8.81027 0.219101C10.4208 -0.107899 12.0842 -0.0698769 13.6781 0.330372C15.272 0.730622 16.756 1.48293 18.021 2.532Z" fill="#F14336"/>
</svg>
