<svg width="31" height="31" viewBox="0 0 31 31" fill="none" xmlns="http://www.w3.org/2000/svg">
<path d="M30.9996 23.4953C30.9996 19.9418 28.5069 16.9453 25.1921 16.1762C24.6352 16.0436 24.0783 15.9906 23.4949 15.9906C23.3358 15.9906 23.1767 15.9906 23.0176 16.0171C19.3581 16.2293 16.441 19.0667 16.0433 22.6467C16.0168 22.9119 15.9902 23.2036 15.9902 23.4953C15.9902 24.0257 16.0433 24.556 16.1493 25.0599C16.8653 28.4542 19.8884 31 23.4949 31C27.6318 31 30.9996 27.6322 30.9996 23.4953ZM23.4949 28.4542C20.7635 28.4542 18.536 26.2267 18.536 23.4953C18.536 20.7639 20.7635 18.5364 23.4949 18.5364C26.2263 18.5364 28.4539 20.7639 28.4539 23.4953C28.4539 26.2267 26.2263 28.4542 23.4949 28.4542Z" fill="white"/>
<path d="M24.4506 20.101H22.7534V22.7528H20.1016V24.45H24.4506V22.7528V20.101Z" fill="white"/>
<path d="M5.56929 0C5.09196 0 4.7207 0.371258 4.7207 0.848589V2.78443V4.85287C4.7207 5.3302 5.09196 5.70145 5.56929 5.70145H6.28529C6.76262 5.70145 7.13388 5.3302 7.13388 4.85287V2.78443V0.848589C7.13388 0.371258 6.76262 0 6.28529 0H5.56929Z" fill="white"/>
<path d="M18.8818 0C18.431 0 18.0332 0.371258 18.0332 0.848589V2.78443V4.85287C18.0332 5.3302 18.4045 5.70145 18.8818 5.70145H19.6243C20.1016 5.70145 20.4729 5.3302 20.4729 4.85287V2.78443V0.848589C20.4729 0.371258 20.0751 0 19.6243 0H18.8818Z" fill="white"/>
<path d="M1.93584 25.0599H13.9222C13.8161 24.4765 13.7365 23.8665 13.7365 23.2566C13.7365 23.0445 13.7365 22.8588 13.763 22.6467H3.63302C2.83747 22.6467 2.17451 21.9837 2.17451 21.1882V9.57313H22.9914V14.0547C23.1506 14.0547 23.3097 14.0547 23.4688 14.0547C24.0522 14.0547 24.6091 14.1078 25.166 14.2139V4.72027C25.166 3.65953 24.2908 2.78442 23.2301 2.78442H21.6655V4.85286C21.6655 5.99315 20.7374 6.92129 19.5971 6.92129H18.8811C17.7408 6.92129 16.8127 5.99315 16.8127 4.85286V2.78442H8.32677V4.85286C8.32677 5.99315 7.39863 6.92129 6.25834 6.92129H5.56886C4.42857 6.92129 3.50043 5.99315 3.50043 4.85286V2.78442H1.93584C0.875107 2.78442 0 3.65953 0 4.72027V23.124C0 24.1848 0.875107 25.0599 1.93584 25.0599Z" fill="white"/>
<path d="M6.81557 15.1155C7.87007 15.1155 8.7249 14.2607 8.7249 13.2062C8.7249 12.1517 7.87007 11.2969 6.81557 11.2969C5.76108 11.2969 4.90625 12.1517 4.90625 13.2062C4.90625 14.2607 5.76108 15.1155 6.81557 15.1155Z" fill="white"/>
<path d="M12.5968 15.1155C13.6513 15.1155 14.5061 14.2607 14.5061 13.2062C14.5061 12.1517 13.6513 11.2969 12.5968 11.2969C11.5423 11.2969 10.6875 12.1517 10.6875 13.2062C10.6875 14.2607 11.5423 15.1155 12.5968 15.1155Z" fill="white"/>
<path d="M18.3507 15.1155C19.4052 15.1155 20.2601 14.2607 20.2601 13.2062C20.2601 12.1517 19.4052 11.2969 18.3507 11.2969C17.2962 11.2969 16.4414 12.1517 16.4414 13.2062C16.4414 14.2607 17.2962 15.1155 18.3507 15.1155Z" fill="white"/>
<path d="M12.5968 20.923C13.6513 20.923 14.5061 20.0682 14.5061 19.0137C14.5061 17.9592 13.6513 17.1044 12.5968 17.1044C11.5423 17.1044 10.6875 17.9592 10.6875 19.0137C10.6875 20.0682 11.5423 20.923 12.5968 20.923Z" fill="white"/>
<path d="M6.81557 20.923C7.87007 20.923 8.7249 20.0682 8.7249 19.0137C8.7249 17.9592 7.87007 17.1044 6.81557 17.1044C5.76108 17.1044 4.90625 17.9592 4.90625 19.0137C4.90625 20.0682 5.76108 20.923 6.81557 20.923Z" fill="white"/>
</svg>
