<svg width="25" height="29" viewBox="0 0 25 29" fill="none" xmlns="http://www.w3.org/2000/svg">
<path d="M18 3.19995C17.2 3.19995 16.5 3.89995 16.5 4.69995C16.5 5.49995 17.2 6.19995 18 6.19995C18.8 6.19995 19.5 5.49995 19.5 4.69995C19.5 3.89995 18.8 3.19995 18 3.19995Z" fill="#666A73"/>
<path d="M18 7.59998C17.2 7.59998 16.5 8.29998 16.5 9.09998C16.5 9.89998 17.2 10.6 18 10.6C18.8 10.6 19.5 9.89998 19.5 9.09998C19.5 8.19998 18.8 7.59998 18 7.59998Z" fill="#666A73"/>
<path d="M12.4004 8.09998C11.6004 8.09998 10.9004 8.79998 10.9004 9.59998C10.9004 10.4 11.6004 11.1 12.4004 11.1C13.2004 11.1 13.9004 10.4 13.9004 9.59998C13.9004 8.79998 13.2004 8.09998 12.4004 8.09998Z" fill="#666A73"/>
<path d="M12.4004 12.5C11.6004 12.5 10.9004 13.2 10.9004 14C10.9004 14.8 11.6004 15.5 12.4004 15.5C13.2004 15.5 13.9004 14.8 13.9004 14C13.9004 13.1 13.2004 12.5 12.4004 12.5Z" fill="#666A73"/>
<path d="M6.80078 22.3C6.00078 22.3 5.30078 23 5.30078 23.8C5.30078 24.6 6.00078 25.3 6.80078 25.3C7.60078 25.3 8.30078 24.6 8.30078 23.8C8.30078 22.9 7.60078 22.3 6.80078 22.3Z" fill="#666A73"/>
<path d="M6.80078 17.9C6.00078 17.9 5.30078 18.6 5.30078 19.4C5.30078 20.2 6.00078 20.9 6.80078 20.9C7.60078 20.9 8.30078 20.2 8.30078 19.4C8.30078 18.6 7.60078 17.9 6.80078 17.9Z" fill="#666A73"/>
<path d="M17.9992 12.1C17.2992 12.1 16.6992 12.7 16.6992 13.4V23.9C16.6992 24.6 17.1992 25.2 17.8992 25.2C18.1992 25.2 18.5992 25.1 18.7992 24.8C18.9992 24.6 19.1992 24.2 19.1992 23.9V13.4C19.2992 12.7 18.6992 12.1 17.9992 12.1Z" fill="#666A73"/>
<path d="M23.6008 6.5C22.9008 6.5 22.3008 7.1 22.3008 7.8V20.7C22.3008 21.4 22.9008 22 23.6008 22C24.3008 22 24.9008 21.4 24.9008 20.7V7.8C24.8008 7.1 24.3008 6.5 23.6008 6.5Z" fill="#666A73"/>
<path d="M12.3996 17C11.6996 17 11.0996 17.6 11.0996 18.3V27.1C11.0996 27.8 11.5996 28.4 12.2996 28.4C12.5996 28.4 12.9996 28.3 13.1996 28C13.3996 27.7 13.5996 27.4 13.5996 27.1V18.3C13.6996 17.6 13.0996 17 12.3996 17Z" fill="#666A73"/>
<path d="M6.79961 16.3C7.49961 16.3 8.09961 15.7 8.09961 15V4.60005C8.09961 3.90005 7.59961 3.30005 6.89961 3.30005C6.59961 3.30005 6.29961 3.40005 5.99961 3.70005C5.69961 3.90005 5.59961 4.20005 5.59961 4.50005V15C5.59961 15.7 6.09961 16.3 6.79961 16.3Z" fill="#666A73"/>
<path d="M12.4004 6.5C13.1004 6.5 13.7004 5.9 13.7004 5.2V1.3C13.7004 0.6 13.2004 0 12.5004 0C12.2004 0 11.9004 0.1 11.6004 0.4C11.4004 0.6 11.2004 1 11.2004 1.3V5.2C11.1004 5.9 11.7004 6.5 12.4004 6.5Z" fill="#666A73"/>
<path d="M1.2 6.5C0.5 6.5 0 7.1 0 7.8V20.7C0 21.4 0.6 22 1.3 22C2 22 2.6 21.4 2.6 20.7V7.8C2.5 7.1 1.9 6.5 1.2 6.5Z" fill="#666A73"/>
</svg>
