<svg width="19" height="18" viewBox="0 0 19 18" fill="none" xmlns="http://www.w3.org/2000/svg">
<path d="M18.7682 8.8169C19.1132 8.42254 19.0557 7.85916 18.7107 7.52113L10.2001 0.253521C9.79761 -0.084507 9.22258 -0.084507 8.82005 0.253521L0.309498 7.91549C-0.0930284 8.25352 -0.0930285 8.8169 0.251994 9.15493L0.482009 9.38028C0.827031 9.71831 1.40207 9.77465 1.74709 9.49296L2.37963 8.92958V17.0986C2.37963 17.6056 2.78216 18 3.29969 18H6.63491C7.15244 18 7.55497 17.6056 7.55497 17.0986V11.4085H11.8102V17.0986C11.8102 17.6056 12.1553 18 12.6728 18H16.1805C16.6981 18 17.1006 17.6056 17.1006 17.0986V9.04225C17.1006 9.04225 17.2731 9.21127 17.5031 9.38028C17.7331 9.5493 18.1932 9.43662 18.5382 9.04225L18.7682 8.8169Z" fill="#C4C4C4"/>
</svg>
