<svg width="46" height="46" viewBox="0 0 46 46" fill="none" xmlns="http://www.w3.org/2000/svg">
<path d="M40.4484 5.55098V40.451H5.5484V5.55098H40.4484ZM40.4484 0.565979H5.5484C4.22804 0.570726 2.96315 1.09755 2.02979 2.03148C1.09642 2.96541 0.570359 4.23061 0.566406 5.55098V40.451C0.570363 41.7719 1.09684 43.0375 2.03085 43.9715C2.96486 44.9055 4.23052 45.432 5.55141 45.436H40.4514C41.7723 45.432 43.0379 44.9055 43.972 43.9715C44.906 43.0375 45.4325 41.7719 45.4364 40.451V5.55098C45.4324 4.22957 44.9056 2.96346 43.9709 2.02937C43.0362 1.09527 41.7698 0.569144 40.4484 0.565979ZM28.3344 22.651L20.8564 32.297L15.5224 25.841L8.04441 35.466H37.9564L28.3344 22.651Z" fill="#D7D8DB"/>
</svg>
