<svg width="24" height="24" viewBox="0 0 24 24" fill="none" xmlns="http://www.w3.org/2000/svg">
<path d="M11 18C11 18.3956 10.8827 18.7822 10.6629 19.1111C10.4432 19.44 10.1308 19.6964 9.76537 19.8478C9.39992 19.9991 8.99778 20.0387 8.60982 19.9616C8.22186 19.8844 7.86549 19.6939 7.58579 19.4142C7.30608 19.1345 7.1156 18.7781 7.03843 18.3902C6.96126 18.0022 7.00087 17.6001 7.15224 17.2346C7.30362 16.8692 7.55996 16.5568 7.88886 16.3371C8.21776 16.1173 8.60444 16 9 16C9.52995 16.0016 10.0377 16.2128 10.4125 16.5875C10.7872 16.9623 10.9984 17.4701 11 18ZM9 10C8.60444 10 8.21776 10.1173 7.88886 10.3371C7.55996 10.5568 7.30362 10.8692 7.15224 11.2346C7.00087 11.6001 6.96126 12.0022 7.03843 12.3902C7.1156 12.7781 7.30608 13.1345 7.58579 13.4142C7.86549 13.6939 8.22186 13.8844 8.60982 13.9616C8.99778 14.0387 9.39992 13.9991 9.76537 13.8478C10.1308 13.6964 10.4432 13.44 10.6629 13.1111C10.8827 12.7822 11 12.3956 11 12C10.9984 11.4701 10.7872 10.9623 10.4125 10.5875C10.0377 10.2128 9.52995 10.0016 9 10ZM9 4C8.60444 4 8.21776 4.1173 7.88886 4.33706C7.55996 4.55682 7.30362 4.86918 7.15224 5.23463C7.00087 5.60009 6.96126 6.00222 7.03843 6.39018C7.1156 6.77814 7.30608 7.13451 7.58579 7.41421C7.86549 7.69392 8.22186 7.8844 8.60982 7.96157C8.99778 8.03874 9.39992 7.99914 9.76537 7.84776C10.1308 7.69639 10.4432 7.44004 10.6629 7.11114C10.8827 6.78224 11 6.39556 11 6C10.9984 5.47005 10.7872 4.96227 10.4125 4.58754C10.0377 4.21281 9.52995 4.00158 9 4ZM15 8C15.3956 8 15.7822 7.8827 16.1111 7.66294C16.44 7.44318 16.6964 7.13082 16.8478 6.76537C16.9991 6.39992 17.0387 5.99778 16.9616 5.60982C16.8844 5.22186 16.6939 4.86549 16.4142 4.58579C16.1345 4.30608 15.7781 4.1156 15.3902 4.03843C15.0022 3.96126 14.6001 4.00087 14.2346 4.15224C13.8692 4.30362 13.5568 4.55996 13.3371 4.88886C13.1173 5.21776 13 5.60444 13 6C13.0016 6.52995 13.2128 7.03774 13.5875 7.41247C13.9623 7.7872 14.4701 7.99842 15 8ZM15 10C14.6044 10 14.2178 10.1173 13.8889 10.3371C13.56 10.5568 13.3036 10.8692 13.1522 11.2346C13.0009 11.6001 12.9613 12.0022 13.0384 12.3902C13.1156 12.7781 13.3061 13.1345 13.5858 13.4142C13.8655 13.6939 14.2219 13.8844 14.6098 13.9616C14.9978 14.0387 15.3999 13.9991 15.7654 13.8478C16.1308 13.6964 16.4432 13.44 16.6629 13.1111C16.8827 12.7822 17 12.3956 17 12C16.9984 11.4701 16.7872 10.9623 16.4125 10.5875C16.0377 10.2128 15.5299 10.0016 15 10ZM15 16C14.6044 16 14.2178 16.1173 13.8889 16.3371C13.56 16.5568 13.3036 16.8692 13.1522 17.2346C13.0009 17.6001 12.9613 18.0022 13.0384 18.3902C13.1156 18.7781 13.3061 19.1345 13.5858 19.4142C13.8655 19.6939 14.2219 19.8844 14.6098 19.9616C14.9978 20.0387 15.3999 19.9991 15.7654 19.8478C16.1308 19.6964 16.4432 19.44 16.6629 19.1111C16.8827 18.7822 17 18.3956 17 18C16.9984 17.4701 16.7872 16.9623 16.4125 16.5875C16.0377 16.2128 15.5299 16.0016 15 16Z" fill="#7B8190"/>
</svg>
