<svg width="14" height="17" viewBox="0 0 14 17" fill="none" xmlns="http://www.w3.org/2000/svg">
<path d="M12.4177 17.0002C12.0509 17.0002 11.7537 16.7029 11.7537 16.3362C11.7537 13.7365 9.63862 11.6214 7.03891 11.6214H6.04284C3.44312 11.6214 1.3281 13.7365 1.3281 16.3362C1.3281 16.7029 1.0308 17.0002 0.664048 17.0002C0.297294 17.0002 0 16.7029 0 16.3362C0 13.0041 2.71081 10.2933 6.04284 10.2933H7.03891C10.3709 10.2933 13.0817 13.0041 13.0817 16.3362C13.0817 16.7029 12.7845 17.0002 12.4177 17.0002Z" fill="#C4C4C4"/>
<path d="M6.47451 8.96465C4.00296 8.96465 1.99219 6.95388 1.99219 4.48232C1.99219 2.01077 4.00296 0 6.47451 0C8.94606 0 10.9568 2.01077 10.9568 4.48232C10.9568 6.95388 8.94606 8.96465 6.47451 8.96465ZM6.47451 1.3281C4.73527 1.3281 3.32028 2.74308 3.32028 4.48232C3.32028 6.22157 4.73527 7.63655 6.47451 7.63655C8.21375 7.63655 9.62874 6.22157 9.62874 4.48232C9.62874 2.74308 8.21375 1.3281 6.47451 1.3281Z" fill="#C4C4C4"/>
</svg>
