<svg width="17" height="22" viewBox="0 0 17 22" fill="none" xmlns="http://www.w3.org/2000/svg">
<path d="M16.5705 5.73074C16.5705 5.65542 16.4952 5.65542 16.4952 5.5801L10.9968 0.0816908C10.9215 0.00637019 10.9215 0.00637019 10.8462 0.00637019C10.7709 0.00637019 10.6955 0.00637019 10.6955 0.00637019H1.35577C0.602565 -0.0689505 0 0.533615 0 1.28682V20.6442C0 21.3974 0.602565 22 1.35577 22H15.1395C15.8927 22 16.4952 21.3974 16.4952 20.6442V5.88138C16.5705 5.88138 16.5705 5.80606 16.5705 5.73074ZM12.4279 16.5016H4.14264C3.91667 16.5016 3.69071 16.2756 3.69071 16.0497C3.69071 15.8237 3.91667 15.5977 4.14264 15.5977H12.4279C12.6539 15.5977 12.8798 15.8237 12.8798 16.0497C12.8798 16.2756 12.6539 16.5016 12.4279 16.5016ZM12.4279 12.8109H4.14264C3.91667 12.8109 3.69071 12.5849 3.69071 12.359C3.69071 12.133 3.91667 11.907 4.14264 11.907H12.4279C12.6539 11.907 12.8798 12.133 12.8798 12.359C12.8798 12.5849 12.6539 12.8109 12.4279 12.8109ZM12.4279 9.12017H4.14264C3.91667 9.12017 3.69071 8.89421 3.69071 8.66825C3.69071 8.44228 3.91667 8.21632 4.14264 8.21632H12.4279C12.6539 8.21632 12.8798 8.44228 12.8798 8.66825C12.8798 8.89421 12.6539 9.12017 12.4279 9.12017ZM11.5241 5.42946C11.2981 5.42946 11.0721 5.2035 11.0721 4.97753V1.51278L14.9888 5.42946H11.5241Z" fill="#C4C4C4"/>
</svg>
