<svg width="19" height="18" viewBox="0 0 19 18" fill="none" xmlns="http://www.w3.org/2000/svg">
<path d="M18.9995 11.0349V18H14.9263V11.5017C14.9263 9.87004 14.3382 8.75576 12.8634 8.75576C11.738 8.75576 11.0694 9.50594 10.7741 10.2323C10.6669 10.4919 10.6392 10.8524 10.6392 11.2165V17.9997H6.56573C6.56573 17.9997 6.62041 6.99371 6.56573 5.85444H10.6395V7.57554C10.6313 7.58909 10.6198 7.60234 10.6125 7.61529H10.6395V7.57554C11.1809 6.74977 12.1462 5.56925 14.3106 5.56925C16.9904 5.56925 18.9995 7.3051 18.9995 11.0349ZM2.30449 0C0.911115 0 -0.000488281 0.906776 -0.000488281 2.09814C-0.000488281 3.26421 0.884688 4.19719 2.25103 4.19719H2.27746C3.69818 4.19719 4.58153 3.26421 4.58153 2.09814C4.55449 0.906776 3.69817 0 2.30449 0ZM0.241613 18H4.31361V5.85444H0.241613V18Z" fill="#007AB9"/>
</svg>
