<svg width="13" height="20" viewBox="0 0 13 20" fill="none" xmlns="http://www.w3.org/2000/svg">
<path d="M6.24021 0.709961C2.82338 0.709961 0.043457 3.48989 0.043457 6.90671C0.043457 7.93244 0.299908 8.94946 0.787429 9.85152L5.90134 19.1005C5.96942 19.2238 6.09915 19.3002 6.24021 19.3002C6.38127 19.3002 6.511 19.2238 6.57908 19.1005L11.6949 9.84847C12.1805 8.94946 12.437 7.9324 12.437 6.90667C12.437 3.48989 9.65703 0.709961 6.24021 0.709961ZM6.24021 10.0051C4.5318 10.0051 3.14185 8.61512 3.14185 6.90671C3.14185 5.1983 4.5318 3.80835 6.24021 3.80835C7.94862 3.80835 9.33856 5.1983 9.33856 6.90671C9.33856 8.61512 7.94862 10.0051 6.24021 10.0051Z" fill="#7B8190"/>
</svg>
