<svg width="15" height="21" viewBox="0 0 15 21" fill="none" xmlns="http://www.w3.org/2000/svg">
<path d="M2.38139 21H12.5912C13.9051 21 15 19.9123 15 18.5458V9.73307C15 8.39442 13.9325 7.30677 12.5912 7.30677H12.3996V5.01992C12.3996 2.25896 10.1825 0 7.47263 0C4.76277 0 2.54562 2.25896 2.54562 5.01992V7.30677H2.38139C1.06752 7.30677 0 8.39442 0 9.76096V18.6016C0 19.9123 1.06752 21 2.38139 21ZM8.54015 14.5578V15.506C8.54015 16.0916 8.07482 16.5657 7.5 16.5657C6.92518 16.5657 6.45985 16.0916 6.45985 15.506V14.5578C6.10401 14.251 5.88504 13.8048 5.88504 13.3028C5.88504 12.3825 6.59671 11.6574 7.5 11.6574C8.40328 11.6574 9.11496 12.3825 9.11496 13.3028C9.11496 13.8048 8.89599 14.251 8.54015 14.5578ZM4.65328 5.01992C4.65328 3.43028 5.93978 2.11952 7.5 2.11952C9.06022 2.11952 10.3467 3.43028 10.3467 5.01992V7.30677H4.65328V5.01992Z" fill="#5B73E8"/>
</svg>
