<svg width="18" height="11" viewBox="0 0 18 11" fill="none" xmlns="http://www.w3.org/2000/svg">
<path d="M16.3636 3.92857C15.4636 3.92857 14.7273 4.63571 14.7273 5.5V7.85714H3.27273V5.5C3.27273 4.63571 2.54455 3.92857 1.63636 3.92857C0.728182 3.92857 0 4.63571 0 5.5V9.42857C0 10.2929 0.736364 11 1.63636 11H16.3636C17.2636 11 18 10.2929 18 9.42857V5.5C18 4.63571 17.2636 3.92857 16.3636 3.92857ZM13.9091 0H4.09091C3.19091 0 2.45455 0.707143 2.45455 1.57143V3.26071C3.40364 3.58286 4.09091 4.455 4.09091 5.46857V7.07143H13.9091V5.47643C13.9091 4.455 14.5964 3.59071 15.5455 3.26857V1.57143C15.5455 0.707143 14.8091 0 13.9091 0Z" fill="#949090"/>
</svg>
