<svg width="18" height="19" viewBox="0 0 18 19" fill="none" xmlns="http://www.w3.org/2000/svg">
<path d="M17.1738 7.46693L15.7719 7.24514C15.6317 6.87549 15.4915 6.50584 15.3513 6.13619L16.2626 4.95331C16.6131 4.4358 16.543 3.77043 16.1925 3.40078L15.0008 2.14397C14.5802 1.70039 13.9494 1.70039 13.5288 2.07004L12.4072 3.03113C12.0567 2.88327 11.7062 2.73541 11.3558 2.58755L11.1455 1.10895C11.0053 0.44358 10.5146 0 9.95381 0H8.27148C7.7107 0 7.22002 0.44358 7.14992 1.03502L6.93963 2.51362C6.58914 2.66148 6.23866 2.80934 5.88817 2.9572L4.76661 2.07004C4.27593 1.70039 3.64506 1.77432 3.22447 2.14397L2.03282 3.40078C1.68233 3.84436 1.61224 4.50973 1.96272 5.02724L2.87399 6.21012C2.73379 6.57977 2.5936 6.94942 2.4534 7.31907L1.05146 7.54086C0.420584 7.54086 0 8.05837 0 8.64981V10.4241C0 11.0156 0.420584 11.5331 0.981362 11.607L2.38331 11.8288C2.5235 12.1984 2.6637 12.5681 2.80389 12.9377L1.89263 14.1206C1.54214 14.6381 1.61224 15.3035 1.96272 15.6732L3.15438 16.93C3.57496 17.3735 4.20584 17.3735 4.62642 17.0039L5.74798 16.0428C6.09846 16.1907 6.44895 16.3385 6.79943 16.4864L7.00973 17.965C7.07982 18.5564 7.57051 19 8.13128 19H9.81362C10.3744 19 10.8651 18.5564 10.9352 17.965L11.1455 16.4864C11.496 16.3385 11.8464 16.1907 12.1969 16.0428L13.3185 17.0039C13.8092 17.3735 14.44 17.2996 14.7905 16.93L15.9822 15.6732C16.4028 15.2296 16.4028 14.5642 16.0523 14.1206L15.141 12.9377C15.2812 12.5681 15.4214 12.1984 15.5616 11.8288L16.9635 11.607C17.5243 11.5331 17.9449 11.0156 17.9449 10.4241V8.64981C18.1552 8.05837 17.7346 7.54086 17.1738 7.46693ZM9.04255 13.5292C6.93963 13.5292 5.2573 11.7549 5.2573 9.53696C5.2573 7.31907 6.93963 5.54475 9.04255 5.54475C11.1455 5.54475 12.8278 7.31907 12.8278 9.53696C12.8278 11.7549 11.1455 13.5292 9.04255 13.5292Z" fill="#666A73"/>
</svg>
