<svg width="32" height="29" viewBox="0 0 32 29" fill="none" xmlns="http://www.w3.org/2000/svg">
<path d="M8.03985 21.02L7.9831 21.0165C7.5376 20.9895 7.10797 20.9077 6.69997 20.7793L3.84847 25.7166C3.58722 26.1689 3.74616 26.7474 4.20178 27.003L7.00866 28.5772C7.45641 28.8283 8.02297 28.6728 8.27966 28.2283L12.4428 21.02H8.03985Z" fill="#949090"/>
<path d="M23.8747 0.139489L15.4043 5.32524V20.259L23.8854 25.2975C24.5106 25.6688 25.3024 25.2185 25.3024 24.4915V0.93899C25.3024 0.206427 24.4996 -0.243074 23.8747 0.139489Z" fill="#949090"/>
<path d="M3.03313 15.8511V9.55358C3.03313 9.1927 3.07219 8.84114 3.1445 8.50195H1.781C0.797376 8.50195 0 9.29908 0 10.2824V15.1223C0 16.1056 0.797376 16.9028 1.781 16.9028H3.144C3.07194 16.5626 3.03313 16.2111 3.03313 15.8511Z" fill="#949090"/>
<path d="M13.5283 19.1455H8.09657C6.33594 19.0388 4.90869 17.612 4.90869 15.8519V9.55438C4.90869 7.79432 6.33594 6.36757 8.09657 6.47438H13.5283V19.1455Z" fill="#949090"/>
<path d="M29.4195 20.3668C29.1795 20.3668 28.9395 20.2752 28.7563 20.0921L26.8645 18.2009C26.4983 17.8349 26.4983 17.2413 26.8645 16.8751C27.2307 16.5091 27.8246 16.5091 28.1908 16.8751L30.0826 18.7663C30.4488 19.1324 30.4488 19.726 30.0826 20.0921C29.8995 20.2752 29.6595 20.3668 29.4195 20.3668Z" fill="#949090"/>
<path d="M27.5281 9.11681C27.2881 9.11681 27.0481 9.02531 26.865 8.84218C26.4988 8.47612 26.4988 7.88249 26.865 7.51637L28.7568 5.62518C29.1231 5.25905 29.7168 5.25905 30.0831 5.62518C30.4493 5.99124 30.4493 6.58487 30.0831 6.95099L28.1913 8.84218C28.0082 9.02525 27.7681 9.11681 27.5281 9.11681Z" fill="#949090"/>
<path d="M31.0615 13.7959H28.3861C27.8681 13.7959 27.4482 13.3761 27.4482 12.8584C27.4482 12.3406 27.8681 11.9209 28.3861 11.9209H31.0615C31.5794 11.9209 31.9993 12.3406 31.9993 12.8584C31.9993 13.3761 31.5794 13.7959 31.0615 13.7959Z" fill="#949090"/>
</svg>
