<svg width="15" height="24" viewBox="0 0 15 24" fill="none" xmlns="http://www.w3.org/2000/svg">
<path d="M12.75 0H2.25C1.65383 0.00184615 1.08261 0.239492 0.661049 0.661049C0.239492 1.08261 0.00184615 1.65383 0 2.25V21.75C0.00184615 22.3462 0.239492 22.9174 0.661049 23.339C1.08261 23.7605 1.65383 23.9982 2.25 24H12.75C13.3462 23.9982 13.9174 23.7605 14.339 23.339C14.7605 22.9174 14.9982 22.3462 15 21.75V2.25C14.9982 1.65383 14.7605 1.08261 14.339 0.661049C13.9174 0.239492 13.3462 0.00184615 12.75 0V0ZM4.5 1.125H10.5V1.875H4.5V1.125ZM7.5 22.5C7.20333 22.5 6.91331 22.412 6.66664 22.2472C6.41997 22.0824 6.22771 21.8481 6.11418 21.574C6.00065 21.2999 5.97095 20.9983 6.02882 20.7074C6.0867 20.4164 6.22956 20.1491 6.43934 19.9393C6.64912 19.7296 6.9164 19.5867 7.20737 19.5288C7.49834 19.4709 7.79994 19.5007 8.07403 19.6142C8.34812 19.7277 8.58239 19.92 8.74721 20.1666C8.91203 20.4133 9 20.7033 9 21C9 21.3978 8.84197 21.7794 8.56066 22.0607C8.27936 22.342 7.89782 22.5 7.5 22.5ZM13.5 18H1.5V3H13.5V18Z" fill="#A5A4BF"/>
</svg>
