<svg width="72" height="72" viewBox="0 0 72 72" fill="none" xmlns="http://www.w3.org/2000/svg">
<g clip-path="url(#clip0)">
<path d="M70.5925 18.0499L36.7019 6.0924C36.2478 5.93209 35.7524 5.93209 35.2983 6.0924L1.40766 18.0499C0.565033 18.3472 0.00112669 19.1431 1.68568e-06 20.0366C-0.00112331 20.9302 0.560955 21.7274 1.40288 22.0266L35.2935 34.075C35.522 34.1562 35.7611 34.1969 36 34.1969C36.2391 34.1969 36.478 34.1562 36.7065 34.075L70.5971 22.0266C71.439 21.7274 72.001 20.9302 72 20.0366C71.9989 19.1431 71.435 18.3472 70.5925 18.0499Z" fill="#666A73"/>
<path d="M66.9336 46.2055V27.8062L62.7148 29.3059V46.2055C61.4442 46.9369 60.5879 48.3073 60.5879 49.8788C60.5879 51.4501 61.4442 52.8207 62.7148 53.5521V63.9184C62.7148 65.0833 63.6593 66.0278 64.8242 66.0278C65.9892 66.0278 66.9336 65.0833 66.9336 63.9184V53.5522C68.2043 52.821 69.0605 51.4503 69.0605 49.8789C69.0605 48.3075 68.2044 46.9369 66.9336 46.2055Z" fill="#666A73"/>
<path d="M36.0001 38.4152C35.276 38.4152 34.5629 38.2922 33.8804 38.0496L14.8281 31.2764V40.5587C14.8281 42.8297 17.1972 44.7502 21.8696 46.2667C25.9423 47.5886 30.9606 48.3166 36.0001 48.3166C41.0395 48.3166 46.0577 47.5886 50.1305 46.2667C54.8029 44.7502 57.172 42.8297 57.172 40.5587V31.2764L38.1198 38.0496C37.4372 38.2922 36.7241 38.4152 36.0001 38.4152Z" fill="#666A73"/>
</g>
<defs>
<clipPath id="clip0">
<rect width="72" height="72" fill="white"/>
</clipPath>
</defs>
</svg>
