<svg width="25" height="13" viewBox="0 0 25 13" fill="none" xmlns="http://www.w3.org/2000/svg">
<path d="M8.33333 5H5.20833V2H3.125V5H0V7H3.125V10H5.20833V7H8.33333V5ZM18.75 6C20.4792 6 21.8646 4.66 21.8646 3C21.8646 1.34 20.4792 0 18.75 0C18.4167 0 18.0938 0.0499999 17.8021 0.14C18.3958 0.95 18.7396 1.93 18.7396 3C18.7396 4.07 18.3854 5.04 17.8021 5.86C18.0938 5.95 18.4167 6 18.75 6ZM13.5417 6C15.2708 6 16.6562 4.66 16.6562 3C16.6562 1.34 15.2708 0 13.5417 0C11.8125 0 10.4167 1.34 10.4167 3C10.4167 4.66 11.8125 6 13.5417 6ZM20.4375 8.16C21.3021 8.89 21.875 9.82 21.875 11V13H25V11C25 9.46 22.5312 8.51 20.4375 8.16ZM13.5417 8C11.4583 8 7.29167 9 7.29167 11V13H19.7917V11C19.7917 9 15.625 8 13.5417 8Z" fill="#949090"/>
</svg>
