<svg width="40" height="49" viewBox="0 0 40 49" fill="none" xmlns="http://www.w3.org/2000/svg">
<path d="M19.7725 48.876C21.0851 48.8679 22.3412 48.3406 23.2664 47.4094C24.1916 46.4782 24.7108 45.2187 24.7105 43.906H14.8345C14.8342 45.2187 15.3533 46.4782 16.2785 47.4094C17.2037 48.3406 18.4598 48.8679 19.7725 48.876ZM34.5855 33.962V21.534C34.5855 13.903 30.5615 7.51504 23.4755 5.82504V4.13404C23.4755 3.15181 23.0853 2.20981 22.3908 1.51527C21.6962 0.820731 20.7542 0.430542 19.772 0.430542C18.7898 0.430542 17.8478 0.820731 17.1532 1.51527C16.4587 2.20981 16.0685 3.15181 16.0685 4.13404V5.82404C9.00749 7.51404 4.95848 13.877 4.95848 21.533V33.962L0.0214844 38.933V41.419H39.5215V38.933L34.5855 33.962ZM29.6475 36.448H9.89648V21.534C9.89648 15.37 13.6245 10.349 19.7715 10.349C25.9185 10.349 29.6465 15.37 29.6465 21.534L29.6475 36.448Z" fill="#7B8190"/>
</svg>
