<svg width="17" height="17" viewBox="0 0 17 17" fill="none" xmlns="http://www.w3.org/2000/svg">
<path d="M15.3 4.25H11.05V1.7C11.05 0.765 10.285 0 9.35 0H7.65C6.715 0 5.95 0.765 5.95 1.7V4.25H1.7C0.765 4.25 0 5.015 0 5.95V15.3C0 16.235 0.765 17 1.7 17H15.3C16.235 17 17 16.235 17 15.3V5.95C17 5.015 16.235 4.25 15.3 4.25ZM5.95 8.5C6.6555 8.5 7.225 9.0695 7.225 9.775C7.225 10.4805 6.6555 11.05 5.95 11.05C5.2445 11.05 4.675 10.4805 4.675 9.775C4.675 9.0695 5.2445 8.5 5.95 8.5ZM8.5 13.6H3.4V12.9625C3.4 12.1125 5.1 11.6875 5.95 11.6875C6.8 11.6875 8.5 12.1125 8.5 12.9625V13.6ZM9.35 5.95H7.65V1.7H9.35V5.95ZM13.6 12.325H10.2V11.05H13.6V12.325ZM13.6 9.775H10.2V8.5H13.6V9.775Z" fill="#949090"/>
</svg>
