<svg width="18" height="18" viewBox="0 0 18 18" fill="none" xmlns="http://www.w3.org/2000/svg">
<path d="M11.06 6.02003L11.98 6.94003L2.92 16H2V15.08L11.06 6.02003ZM14.66 2.71933e-05C14.3977 0.00113181 14.1463 0.105283 13.96 0.290027L12.13 2.12003L15.88 5.87003L17.71 4.04003C17.8962 3.85266 18.0008 3.59921 18.0008 3.33503C18.0008 3.07084 17.8962 2.81739 17.71 2.63003L15.37 0.290027C15.2772 0.196529 15.1665 0.12267 15.0445 0.0728481C14.9225 0.0230264 14.7917 -0.00173893 14.66 2.71933e-05ZM11.06 3.19003L0 14.25V18H3.75L14.81 6.94003L11.06 3.19003Z" fill="#5B73E8"/>
</svg>
