<svg width="31" height="31" viewBox="0 0 31 31" fill="none" xmlns="http://www.w3.org/2000/svg">
<path d="M1.87695 16.411H11.4928L15.5024 20.4206L19.5119 16.411H29.1275V0H1.87695L1.87695 16.411ZM25.4943 12.7775H23.6774V10.9609H25.4943V12.7775ZM9.14376 3.69407H25.4943V5.51071H9.14376V3.69407ZM5.51048 3.69407H7.32712V5.51071H5.51048V3.69407ZM5.51048 7.32735H25.4943V9.144H5.51048V7.32735ZM5.51048 10.9609H21.8607V12.7775H5.51048V10.9609Z" fill="black"/>
<path d="M16.6032 26.3931L15.5025 24.1621L14.4015 26.3931L11.939 26.7505L13.7211 28.4874L13.3008 30.9999L15.5025 29.7816L17.7042 30.9999L17.2836 28.4874L19.0658 26.7505L16.6032 26.3931Z" fill="black"/>
<path d="M23.8698 26.3931L22.7691 24.1621L21.6681 26.3931L19.2056 26.7505L20.9879 28.4874L20.5674 30.9999L22.7691 29.7816L24.9708 30.9999L24.5502 28.4874L26.3324 26.7505L23.8698 26.3931Z" fill="black"/>
<path d="M8.23563 29.7816L10.4371 30.9999L10.0168 28.4874L11.7989 26.7505L9.33636 26.3931L8.23563 24.1621L7.13467 26.3931L4.67212 26.7505L6.45423 28.4874L6.03395 30.9999L8.23563 29.7816Z" fill="black"/>
</svg>
