<svg width="19" height="19" viewBox="0 0 19 19" fill="none" xmlns="http://www.w3.org/2000/svg">
<path d="M18.1279 7.46693L16.6481 7.24514C16.5001 6.87549 16.3521 6.50584 16.2042 6.13619L17.166 4.95331C17.536 4.4358 17.462 3.77043 17.0921 3.40078L15.8342 2.14397C15.3902 1.70039 14.7243 1.70039 14.2804 2.07004L13.0965 3.03113C12.7265 2.88327 12.3566 2.73541 11.9866 2.58755L11.7647 1.10895C11.6167 0.44358 11.0987 0 10.5068 0H8.731C8.13907 0 7.62113 0.44358 7.54714 1.03502L7.32516 2.51362C6.95521 2.66148 6.58525 2.80934 6.21529 2.9572L5.03143 2.07004C4.51349 1.70039 3.84756 1.77432 3.40361 2.14397L2.14576 3.40078C1.7758 3.84436 1.70181 4.50973 2.07176 5.02724L3.03365 6.21012C2.88567 6.57977 2.73769 6.94942 2.5897 7.31907L1.10987 7.54086C0.443949 7.54086 0 8.05837 0 8.64981V10.4241C0 11.0156 0.443949 11.5331 1.03588 11.607L2.51571 11.8288C2.6637 12.1984 2.81168 12.5681 2.95966 12.9377L1.99777 14.1206C1.62781 14.6381 1.70181 15.3035 2.07176 15.6732L3.32962 16.93C3.77357 17.3735 4.43949 17.3735 4.88344 17.0039L6.06731 16.0428C6.43727 16.1907 6.80722 16.3385 7.17718 16.4864L7.39916 17.965C7.47315 18.5564 7.99109 19 8.58302 19H10.3588C10.9508 19 11.4687 18.5564 11.5427 17.965L11.7647 16.4864C12.1346 16.3385 12.5046 16.1907 12.8745 16.0428L14.0584 17.0039C14.5763 17.3735 15.2423 17.2996 15.6122 16.93L16.8701 15.6732C17.314 15.2296 17.314 14.5642 16.9441 14.1206L15.9822 12.9377C16.1302 12.5681 16.2781 12.1984 16.4261 11.8288L17.906 11.607C18.4979 11.5331 18.9418 11.0156 18.9418 10.4241V8.64981C19.1638 8.05837 18.7199 7.54086 18.1279 7.46693ZM9.54491 13.5292C7.32516 13.5292 5.54937 11.7549 5.54937 9.53696C5.54937 7.31907 7.32516 5.54475 9.54491 5.54475C11.7647 5.54475 13.5405 7.31907 13.5405 9.53696C13.5405 11.7549 11.7647 13.5292 9.54491 13.5292Z" fill="#C4C4C4"/>
</svg>
