<svg width="39" height="49" viewBox="0 0 39 49" fill="none" xmlns="http://www.w3.org/2000/svg">
<path d="M30.6229 0H0.837891V49H38.1636V7.54036L30.6229 0ZM31.4397 4.87712L33.2596 6.69698H31.4397V4.87712ZM3.70898 46.1289V2.87109H28.5686V9.56807H35.2925V46.1289H3.70898Z" fill="white"/>
<path d="M7.48853 25.3386H18.1953V10.9824H7.48853V25.3386ZM10.3596 13.8535H15.3242V22.4675H10.3596V13.8535Z" fill="white"/>
<path d="M7.62207 28.21H18.0619V31.0811H7.62207V28.21Z" fill="white"/>
<path d="M7.62207 33.9526H18.0619V36.8237H7.62207V33.9526Z" fill="white"/>
<path d="M7.62207 39.6953H18.0619V42.5664H7.62207V39.6953Z" fill="white"/>
<path d="M20.9412 42.5662H31.6483V28.21H20.9412V42.5662ZM23.8123 31.0811H28.7772V39.6951H23.8123V31.0811Z" fill="white"/>
<path d="M21.075 22.4673H31.5144V25.3384H21.075V22.4673Z" fill="white"/>
<path d="M21.075 16.7251H31.5144V19.5962H21.075V16.7251Z" fill="white"/>
<path d="M21.075 10.9824H31.5144V13.8535H21.075V10.9824Z" fill="white"/>
</svg>
