<svg width="22" height="30" viewBox="0 0 22 30" fill="none" xmlns="http://www.w3.org/2000/svg">
<path d="M15.5833 1.83333H13.5923C13.2147 0.766333 12.1953 0 11 0C9.80467 0 8.78533 0.766333 8.40583 1.83333H6.41667C5.91067 1.83333 5.5 2.244 5.5 2.75V6.41667C5.5 6.92267 5.91067 7.33333 6.41667 7.33333H15.5833C16.0893 7.33333 16.5 6.92267 16.5 6.41667V2.75C16.5 2.244 16.0893 1.83333 15.5833 1.83333Z" fill="#949090"/>
<path d="M20.1667 3.66699H18.3333V6.41699C18.3333 7.93316 17.0995 9.16699 15.5833 9.16699H6.41667C4.9005 9.16699 3.66667 7.93316 3.66667 6.41699V3.66699H1.83333C0.823167 3.66699 0 4.49016 0 5.50033V27.5003C0 28.5288 0.804833 29.3337 1.83333 29.3337H20.1667C21.1952 29.3337 22 28.5288 22 27.5003V5.50033C22 4.47183 21.1952 3.66699 20.1667 3.66699ZM10.7323 19.8993L7.06567 23.566C6.886 23.7438 6.65133 23.8337 6.41667 23.8337C6.182 23.8337 5.94733 23.7438 5.76767 23.566L3.93433 21.7327C3.57683 21.3752 3.57683 20.794 3.93433 20.4365C4.29183 20.079 4.873 20.079 5.2305 20.4365L6.41667 21.6208L9.43433 18.6032C9.79183 18.2457 10.373 18.2457 10.7305 18.6032C11.088 18.9607 11.0898 19.54 10.7323 19.8993ZM10.7323 12.566L7.06567 16.2327C6.886 16.4105 6.65133 16.5003 6.41667 16.5003C6.182 16.5003 5.94733 16.4105 5.76767 16.2327L3.93433 14.3993C3.57683 14.0418 3.57683 13.4607 3.93433 13.1032C4.29183 12.7457 4.873 12.7457 5.2305 13.1032L6.41667 14.2875L9.43433 11.2698C9.79183 10.9123 10.373 10.9123 10.7305 11.2698C11.088 11.6273 11.0898 12.2067 10.7323 12.566ZM17.4167 22.0003H13.75C13.244 22.0003 12.8333 21.5897 12.8333 21.0837C12.8333 20.5777 13.244 20.167 13.75 20.167H17.4167C17.9227 20.167 18.3333 20.5777 18.3333 21.0837C18.3333 21.5897 17.9227 22.0003 17.4167 22.0003ZM17.4167 14.667H13.75C13.244 14.667 12.8333 14.2563 12.8333 13.7503C12.8333 13.2443 13.244 12.8337 13.75 12.8337H17.4167C17.9227 12.8337 18.3333 13.2443 18.3333 13.7503C18.3333 14.2563 17.9227 14.667 17.4167 14.667Z" fill="#949090"/>
</svg>
