<svg width="25" height="24" viewBox="0 0 25 24" fill="none" xmlns="http://www.w3.org/2000/svg">
<path d="M21.7002 24C21.5941 24 21.492 23.9578 21.417 23.8828C21.342 23.8078 21.2998 23.7057 21.2998 23.5996V22.7998H3.7002V23.5996C3.7002 23.7057 3.65802 23.8078 3.58301 23.8828C3.50799 23.9578 3.40589 24 3.2998 24H0.899902C0.793816 24 0.692202 23.9578 0.617188 23.8828C0.542173 23.8078 0.5 23.7057 0.5 23.5996V21.2002C0.5 21.0941 0.542173 20.992 0.617188 20.917C0.692202 20.842 0.793816 20.7998 0.899902 20.7998H1.7002V3.2002H0.899902C0.793816 3.2002 0.692202 3.15802 0.617188 3.08301C0.542173 3.00799 0.5 2.90589 0.5 2.7998V0.400391C0.5 0.294304 0.542173 0.192202 0.617188 0.117188C0.692202 0.0421729 0.793816 0 0.899902 0H3.2998C3.40589 0 3.50799 0.0421729 3.58301 0.117188C3.65802 0.192202 3.7002 0.294304 3.7002 0.400391V1.2002H21.2998V0.400391C21.2998 0.294304 21.342 0.192202 21.417 0.117188C21.492 0.0421729 21.5941 0 21.7002 0H24.1001C24.2062 0 24.3078 0.0421729 24.3828 0.117188C24.4578 0.192202 24.5 0.294304 24.5 0.400391V2.7998C24.5 2.90589 24.4578 3.00799 24.3828 3.08301C24.3078 3.15802 24.2062 3.2002 24.1001 3.2002H23.2998V20.7998H24.1001C24.2062 20.7998 24.3078 20.842 24.3828 20.917C24.4578 20.992 24.5 21.0941 24.5 21.2002V23.5996C24.5 23.7057 24.4578 23.8078 24.3828 23.8828C24.3078 23.9578 24.2062 24 24.1001 24H21.7002ZM2.5 20.7998H3.2998C3.40589 20.7998 3.50799 20.842 3.58301 20.917C3.65802 20.992 3.7002 21.0941 3.7002 21.2002V22H21.2998V21.2002C21.2998 21.0941 21.342 20.992 21.417 20.917C21.492 20.842 21.5941 20.7998 21.7002 20.7998H22.5V3.2002H21.7002C21.5941 3.2002 21.492 3.15802 21.417 3.08301C21.342 3.00799 21.2998 2.90589 21.2998 2.7998V2H3.7002V2.7998C3.7002 2.90589 3.65802 3.00799 3.58301 3.08301C3.50799 3.15802 3.40589 3.2002 3.2998 3.2002H2.5V20.7998ZM9.7002 20.4004C9.59411 20.4004 9.49201 20.3582 9.41699 20.2832C9.34198 20.2082 9.2998 20.1061 9.2998 20V18.4004C9.2998 18.2943 9.34198 18.1922 9.41699 18.1172C9.49201 18.0422 9.59411 18 9.7002 18H11.2998V6H7.7002V7.2002C7.7002 7.30628 7.65802 7.40741 7.58301 7.48242C7.50799 7.55744 7.40589 7.59961 7.2998 7.59961H5.7002C5.59411 7.59961 5.49201 7.55744 5.41699 7.48242C5.34198 7.40741 5.2998 7.30628 5.2998 7.2002V4C5.2998 3.89391 5.34198 3.79181 5.41699 3.7168C5.49201 3.64178 5.59411 3.59961 5.7002 3.59961H19.2998C19.4059 3.59961 19.508 3.64178 19.583 3.7168C19.658 3.79181 19.7002 3.89391 19.7002 4V7.2002C19.7002 7.30628 19.658 7.40741 19.583 7.48242C19.508 7.55744 19.4059 7.59961 19.2998 7.59961H17.7002C17.5941 7.59961 17.492 7.55744 17.417 7.48242C17.342 7.40741 17.2998 7.30628 17.2998 7.2002V6H13.7002V18H15.2998C15.4059 18 15.508 18.0422 15.583 18.1172C15.658 18.1922 15.7002 18.2943 15.7002 18.4004V20C15.7002 20.1061 15.658 20.2082 15.583 20.2832C15.508 20.3582 15.4059 20.4004 15.2998 20.4004H9.7002Z" fill="#A5A4BF"/>
</svg>
