<svg width="24" height="15" viewBox="0 0 24 15" fill="none" xmlns="http://www.w3.org/2000/svg">
<path d="M21.188 -1.81788e-05H2.813C2.08074 -0.0126052 1.37338 0.265728 0.846046 0.773941C0.318712 1.28215 0.0144544 1.97876 0 2.71098L0 12.289C0.0144544 13.0212 0.318712 13.7178 0.846046 14.226C1.37338 14.7342 2.08074 15.0126 2.813 15H21.188C21.9201 15.0123 22.6272 14.7338 23.1543 14.2257C23.6814 13.7175 23.9855 13.021 24 12.289V2.71098C23.9855 1.97893 23.6814 1.28248 23.1543 0.774299C22.6272 0.266115 21.9201 -0.0123376 21.188 -1.81788e-05ZM22.126 12.289C22.1202 12.5323 22.0185 12.7635 21.843 12.9321C21.6674 13.1007 21.4324 13.193 21.189 13.189H2.813C2.56965 13.193 2.33458 13.1007 2.15905 12.9321C1.98352 12.7635 1.88177 12.5323 1.876 12.289V2.71098C1.88177 2.46749 1.98366 2.23618 2.1594 2.06755C2.33515 1.89892 2.57048 1.80669 2.814 1.81098H21.188C21.4315 1.80669 21.6669 1.89892 21.8426 2.06755C22.0183 2.23618 22.1202 2.46749 22.126 2.71098V12.289ZM8.3 5.46698V11.386H6.422V5.46698H3.75V3.65998H10.875V5.46698H8.3ZM10.175 9.57798H12.05V11.385H10.172L10.175 9.57798ZM13.925 9.57798H15.8V11.385H13.922L13.925 9.57798ZM17.675 9.57798H19.55V11.385H17.672L17.675 9.57798Z" fill="#A5A4BF"/>
</svg>
