<svg width="19" height="15" viewBox="0 0 19 15" fill="none" xmlns="http://www.w3.org/2000/svg">
<path d="M16.2166 0.869004L6.74563 10.34L3.71763 7.312C3.41504 7.01785 3.00883 6.85462 2.58684 6.8576C2.16484 6.86058 1.76098 7.02954 1.46257 7.32795C1.16417 7.62635 0.995211 8.03021 0.992228 8.45221C0.989245 8.8742 1.15248 9.28041 1.44663 9.583L5.61863 13.755C5.76736 13.9048 5.94426 14.0237 6.13914 14.1049C6.33402 14.186 6.54303 14.2278 6.75413 14.2278C6.96523 14.2278 7.17424 14.186 7.36913 14.1049C7.56401 14.0237 7.74091 13.9048 7.88963 13.755L18.4996 3.14C18.6494 2.99128 18.7684 2.81438 18.8495 2.6195C18.9306 2.42462 18.9724 2.2156 18.9724 2.0045C18.9724 1.79341 18.9306 1.58439 18.8495 1.38951C18.7684 1.19463 18.6494 1.01773 18.4996 0.869004C18.1956 0.568609 17.7855 0.400146 17.3581 0.400146C16.9308 0.400146 16.5206 0.568609 16.2166 0.869004Z" fill="white"/>
</svg>
