<svg width="19" height="17" viewBox="0 0 19 17" fill="none" xmlns="http://www.w3.org/2000/svg">
<path d="M9.47517 6.44644C11.2553 6.44644 12.6984 5.00335 12.6984 3.22322C12.6984 1.44308 11.2553 0 9.47517 0C7.69504 0 6.25195 1.44308 6.25195 3.22322C6.25195 5.00335 7.69504 6.44644 9.47517 6.44644Z" fill="#C4C4C4"/>
<path d="M15.9947 6.44643C17.119 6.44643 18.0304 5.53501 18.0304 4.41072C18.0304 3.28642 17.119 2.375 15.9947 2.375C14.8704 2.375 13.959 3.28642 13.959 4.41072C13.959 5.53501 14.8704 6.44643 15.9947 6.44643Z" fill="#C4C4C4"/>
<path d="M2.95759 6.44643C4.08189 6.44643 4.99331 5.53501 4.99331 4.41072C4.99331 3.28642 4.08189 2.375 2.95759 2.375C1.8333 2.375 0.921875 3.28642 0.921875 4.41072C0.921875 5.53501 1.8333 6.44643 2.95759 6.44643Z" fill="#C4C4C4"/>
<path d="M4.96812 8.26409C4.16837 7.60975 3.44133 7.68246 2.52041 7.68246C1.13903 7.70669 0 8.82149 0 10.2029V14.2501C0 14.8559 0.484695 15.3406 1.09056 15.3406C3.68368 15.3406 3.36863 15.3891 3.36863 15.2195C3.36863 12.3598 3.02934 10.2513 4.96812 8.26409Z" fill="#C4C4C4"/>
<path d="M10.3717 7.7066C8.74795 7.5612 7.34233 7.7066 6.13059 8.70023C4.09488 10.324 4.48263 12.5293 4.48263 15.1951C4.48263 15.8979 5.06427 16.5038 5.79131 16.5038C13.6191 16.5038 13.9099 16.7462 14.3704 15.7283C14.5158 15.389 14.4916 15.486 14.4916 12.1658C14.4673 9.54844 12.1893 7.7066 10.3717 7.7066Z" fill="#C4C4C4"/>
<path d="M16.4555 7.70669C15.5346 7.70669 14.8076 7.60975 14.0078 8.28833C15.9224 10.2513 15.6073 12.2144 15.6073 15.2437C15.6073 15.4133 15.3407 15.3649 17.8611 15.3649C18.4912 15.3649 19.0002 14.8559 19.0002 14.2501V10.2029C18.9517 8.82149 17.8369 7.70669 16.4555 7.70669Z" fill="#C4C4C4"/>
</svg>
