<svg width="31" height="31" viewBox="0 0 31 31" fill="none" xmlns="http://www.w3.org/2000/svg">
<path d="M21.2691 16.3496H9.40031C9.23165 16.3496 9.09538 16.4886 9.09971 16.6572C9.13559 18.0485 9.22985 19.3775 9.3732 20.6342C9.39382 20.815 9.56844 20.9372 9.7448 20.8923C11.5594 20.43 13.4293 20.1966 15.3347 20.1966C17.2401 20.1966 19.1101 20.43 20.9246 20.8923C21.1009 20.9372 21.2756 20.815 21.2962 20.6342C21.4396 19.3775 21.5338 18.0484 21.5697 16.6572C21.5741 16.4886 21.4378 16.3496 21.2691 16.3496Z" fill="white"/>
<path d="M21.2962 10.1414C21.2756 9.9606 21.101 9.83846 20.9246 9.88336C19.1101 10.3457 17.2401 10.5791 15.3347 10.5791C13.4293 10.5791 11.5594 10.3457 9.7448 9.88342C9.5685 9.83852 9.39382 9.96066 9.3732 10.1415C9.22985 11.3982 9.13559 12.7273 9.09971 14.1185C9.09538 14.2872 9.23159 14.4261 9.40031 14.4261H21.2691C21.4377 14.4261 21.574 14.2871 21.5697 14.1185C21.5338 12.7272 21.4395 11.3982 21.2962 10.1414Z" fill="white"/>
<path d="M20.925 7.60495C20.3864 4.62506 19.561 2.18122 18.6082 0.454181C18.5658 0.377242 18.4914 0.322964 18.4052 0.305592C17.4053 0.104108 16.3783 0 15.335 0C14.2918 0 13.2647 0.104108 12.2648 0.305652C12.1787 0.323024 12.1042 0.377302 12.0618 0.454241C11.1091 2.18122 10.2836 4.62506 9.74504 7.60501C9.71745 7.75756 9.81128 7.90699 9.96095 7.94733C11.6752 8.40908 13.4769 8.65565 15.335 8.65565C17.1932 8.65565 18.9948 8.40908 20.7091 7.94726C20.8588 7.90699 20.9526 7.7575 20.925 7.60495Z" fill="white"/>
<path d="M21.7309 1.38437C21.486 1.27239 21.2308 1.51691 21.3277 1.76816C21.3294 1.77261 21.3311 1.77706 21.3328 1.78151C21.9178 3.30249 22.393 5.02924 22.7486 6.89663C22.7841 7.08327 22.9828 7.1896 23.1586 7.11747C24.3416 6.63197 25.4699 6.0396 26.5318 5.35292C26.689 5.25128 26.7173 5.03206 26.5897 4.89501C26.4676 4.7638 26.343 4.63432 26.2155 4.50689C24.8961 3.18733 23.3788 2.13777 21.7309 1.38437Z" fill="white"/>
<path d="M23.7943 14.4259H30.3691C30.5454 14.4259 30.6835 14.2749 30.669 14.0993C30.4565 11.5195 29.6075 9.07014 28.1978 6.93454C28.1056 6.79479 27.9183 6.75698 27.7786 6.84925C26.6301 7.608 25.4126 8.26108 24.1327 8.80242C23.8701 8.9135 23.606 9.01923 23.3405 9.11991C23.2101 9.16932 23.1305 9.30042 23.1479 9.43873C23.3371 10.9474 23.4543 12.5212 23.4943 14.1321C23.4984 14.2954 23.6311 14.4259 23.7943 14.4259Z" fill="white"/>
<path d="M9.74504 23.1708C10.2836 26.1507 11.1091 28.5945 12.0618 30.3216C12.1042 30.3985 12.1787 30.4528 12.2648 30.4702C13.2647 30.6717 14.2918 30.7758 15.335 30.7758C16.3783 30.7758 17.4053 30.6717 18.4052 30.4701C18.4914 30.4527 18.5658 30.3985 18.6082 30.3215C19.561 28.5945 20.3864 26.1507 20.925 23.1708C20.9526 23.0182 20.8588 22.8688 20.7091 22.8284C18.9948 22.3667 17.1932 22.1201 15.335 22.1201C13.4769 22.1201 11.6752 22.3667 9.96095 22.8285C9.81128 22.8688 9.71745 23.0183 9.74504 23.1708Z" fill="white"/>
<path d="M6.53732 21.973C6.79987 21.8619 7.06399 21.7562 7.32955 21.6555C7.45987 21.6061 7.53951 21.475 7.52214 21.3367C7.33292 19.828 7.2157 18.2543 7.17567 16.6433C7.17158 16.4801 7.03892 16.3496 6.87567 16.3496H0.300866C0.124628 16.3496 -0.0134419 16.5005 0.00104425 16.6762C0.213528 19.256 1.06256 21.7054 2.47223 23.841C2.56444 23.9806 2.75174 24.0185 2.89143 23.9262C4.03992 23.1674 5.25736 22.5144 6.53732 21.973Z" fill="white"/>
<path d="M26.5318 25.423C25.4699 24.7364 24.3416 24.1439 23.1586 23.6585C22.9828 23.5864 22.7841 23.6927 22.7486 23.8793C22.393 25.7467 21.9178 27.4735 21.3328 28.9945C21.3311 28.9989 21.3294 29.0034 21.3277 29.0078C21.2308 29.2591 21.486 29.5036 21.7309 29.3916C23.3788 28.6382 24.8961 27.5886 26.2156 26.2691C26.343 26.1416 26.4676 26.0122 26.5898 25.881C26.7173 25.7439 26.689 25.5247 26.5318 25.423Z" fill="white"/>
<path d="M23.4943 16.6434C23.4543 18.2543 23.337 19.8282 23.1479 21.3368C23.1305 21.4751 23.2101 21.6062 23.3405 21.6556C23.606 21.7563 23.8701 21.862 24.1327 21.9731C25.4126 22.5145 26.6301 23.1676 27.7786 23.9262C27.9183 24.0185 28.1055 23.9806 28.1978 23.841C29.6075 21.7054 30.4565 19.256 30.669 16.6762C30.6835 16.5005 30.5454 16.3496 30.3691 16.3496H23.7943C23.6311 16.3497 23.4984 16.4802 23.4943 16.6434Z" fill="white"/>
<path d="M4.13771 5.35292C5.19953 6.0396 6.32783 6.63203 7.51089 7.11747C7.68664 7.1896 7.88536 7.08327 7.92089 6.89663C8.27649 5.02924 8.75165 3.30249 9.33669 1.78151C9.33837 1.77706 9.34011 1.77261 9.3418 1.76816C9.43863 1.51691 9.18347 1.27239 8.93859 1.38437C7.29077 2.13783 5.77345 3.18739 4.45388 4.50689C4.32645 4.63432 4.20184 4.7638 4.0797 4.89501C3.95221 5.03206 3.98053 5.25128 4.13771 5.35292Z" fill="white"/>
<path d="M7.16924 14.4259C7.20176 12.7125 7.3215 11.0389 7.52214 9.43871C7.53951 9.3004 7.45987 9.16931 7.32955 9.1199C7.06399 9.01921 6.79987 8.91348 6.53732 8.8024C5.25736 8.261 4.03992 7.60792 2.89143 6.84923C2.75174 6.75697 2.5645 6.79483 2.47223 6.93453C1.06256 9.07013 0.213528 11.5195 0.00104425 14.0993C-0.0134419 14.2749 0.124628 14.4259 0.300866 14.4259H7.16924Z" fill="white"/>
<path d="M8.93859 29.3916C9.18348 29.5036 9.43864 29.2591 9.3418 29.0078C9.34012 29.0034 9.33838 28.9989 9.33669 28.9945C8.75172 27.4735 8.2765 25.7467 7.92089 23.8793C7.88537 23.6927 7.68665 23.5864 7.51089 23.6585C6.32783 24.144 5.19954 24.7364 4.13772 25.423C3.98047 25.5247 3.95222 25.7439 4.07977 25.881C4.20191 26.0122 4.32652 26.1416 4.45395 26.2691C5.77339 27.5886 7.29072 28.6382 8.93859 29.3916Z" fill="white"/>
</svg>
