<svg width="35" height="25" viewBox="0 0 35 25" fill="none" xmlns="http://www.w3.org/2000/svg">
<path d="M23.2007 12.2104L35.0001 19.6698V4.43604L23.2007 12.2104Z" fill="white"/>
<path d="M0 4.43604V19.6698L11.7994 12.2104L0 4.43604Z" fill="white"/>
<path d="M32.8123 0H2.18731C1.09574 0 0.229492 0.813751 0.0654297 1.86156L17.4998 13.3481L34.9342 1.86156C34.7701 0.813751 33.9039 0 32.8123 0Z" fill="white"/>
<path d="M21.197 13.532L18.1016 15.5707C17.9179 15.691 17.7101 15.7501 17.5001 15.7501C17.2901 15.7501 17.0823 15.691 16.8985 15.5707L13.8032 13.5298L0.0700684 22.2164C0.238506 23.2554 1.10038 24.0626 2.18757 24.0626H32.8126C33.8998 24.0626 34.7617 23.2554 34.9301 22.2164L21.197 13.532Z" fill="white"/>
</svg>
